<?xml version="1.0" encoding="UTF-8" standalone="no"?>
<!-- Created with Inkscape (http://www.inkscape.org/) -->

<svg
   xmlns:dc="http://purl.org/dc/elements/1.1/"
   xmlns:cc="http://creativecommons.org/ns#"
   xmlns:rdf="http://www.w3.org/1999/02/22-rdf-syntax-ns#"
   xmlns:svg="http://www.w3.org/2000/svg"
   xmlns="http://www.w3.org/2000/svg"
   xmlns:sodipodi="http://sodipodi.sourceforge.net/DTD/sodipodi-0.dtd"
   xmlns:inkscape="http://www.inkscape.org/namespaces/inkscape"
   width="600"
   height="1000"
   viewBox="0 0 600 1000"
   id="svg2"
   version="1.1"
   inkscape:version="0.91 r13725"
   sodipodi:docname="DU.svg"
   enable-background="new">
  <sodipodi:namedview
     id="base"
     pagecolor="#ffffff"
     bordercolor="#666666"
     borderopacity="1.0"
     inkscape:pageopacity="0.0"
     inkscape:pageshadow="2"
     inkscape:zoom="1.6960195"
     inkscape:cx="243.39688"
     inkscape:cy="479.96918"
     inkscape:document-units="px"
     inkscape:current-layer="g3843"
     showgrid="false"
     inkscape:window-width="1440"
     inkscape:window-height="851"
     inkscape:window-x="0"
     inkscape:window-y="1"
     inkscape:window-maximized="1"
     showguides="true"
     inkscape:snap-global="false">
    <sodipodi:guide
       id="guide3573"
       inkscape:label="baseline"
       position="0,250"
       orientation="0,1" />
    <sodipodi:guide
       id="guide3575"
       inkscape:label="ascender"
       position="0,1000"
       orientation="0,1" />
    <sodipodi:guide
       id="guide3577"
       inkscape:label="caps"
       position="0,1000"
       orientation="0,1" />
    <sodipodi:guide
       id="guide3579"
       inkscape:label="xheight"
       position="0,750"
       orientation="0,1" />
    <sodipodi:guide
       id="guide3581"
       inkscape:label="descender"
       position="0,0"
       orientation="0,1" />
  </sodipodi:namedview>
  <defs
     id="defs4" />
  <metadata
     id="metadata7">
    <rdf:RDF>
      <cc:Work
         rdf:about="">
        <dc:format>image/svg+xml</dc:format>
        <dc:type
           rdf:resource="http://purl.org/dc/dcmitype/StillImage" />
        <dc:title />
      </cc:Work>
    </rdf:RDF>
  </metadata>
  <g
     style="display:inline"
     inkscape:label="DU"
     id="g3843"
     inkscape:groupmode="layer">
    <path
       style="display:inline;opacity:1;fill:#000000;fill-opacity:1;fill-rule:nonzero;stroke:none;stroke-width:0.78352356;stroke-linecap:round;stroke-miterlimit:4;stroke-dasharray:none;stroke-dashoffset:0;stroke-opacity:1"
       d="m 50,250 0,100 200,0 0,300 -200,0 0,100 250,0 A 250,250 0 0 0 550,500 250,250 0 0 0 300,250 L 50,250 Z M 350,358.74805 A 150.00002,149.99998 0 0 1 450,500 150.00002,149.99998 0 0 1 350,641.23047 l 0,-282.48242 z M 300,825 a 50,50 0 0 0 -50,50 50,50 0 0 0 50,50 50,50 0 0 0 50,-50 50,50 0 0 0 -50,-50 z"
       id="path3845"
       inkscape:connector-curvature="0" />
  </g>
</svg>
