<?xml version="1.0" encoding="UTF-8" standalone="no"?>
<!-- Created with Inkscape (http://www.inkscape.org/) -->

<svg
   xmlns:dc="http://purl.org/dc/elements/1.1/"
   xmlns:cc="http://creativecommons.org/ns#"
   xmlns:rdf="http://www.w3.org/1999/02/22-rdf-syntax-ns#"
   xmlns:svg="http://www.w3.org/2000/svg"
   xmlns="http://www.w3.org/2000/svg"
   xmlns:sodipodi="http://sodipodi.sourceforge.net/DTD/sodipodi-0.dtd"
   xmlns:inkscape="http://www.inkscape.org/namespaces/inkscape"
   width="29.999998"
   height="30"
   viewBox="0 0 29.999998 29.999999"
   id="svg4454"
   version="1.1"
   inkscape:version="0.91 r13725"
   sodipodi:docname="Activate_white.svg"
   inkscape:export-filename="/Users/gsoed/proj/gazer/arts/traits/activate_white.png"
   inkscape:export-xdpi="375"
   inkscape:export-ydpi="375">
  <defs
     id="defs4456" />
  <sodipodi:namedview
     id="base"
     pagecolor="#ffffff"
     bordercolor="#666666"
     borderopacity="1.0"
     inkscape:pageopacity="0.0"
     inkscape:pageshadow="2"
     inkscape:zoom="9.757377"
     inkscape:cx="-2.6661223"
     inkscape:cy="4.3763202"
     inkscape:document-units="px"
     inkscape:current-layer="layer5"
     showgrid="false"
     inkscape:window-width="1440"
     inkscape:window-height="852"
     inkscape:window-x="0"
     inkscape:window-y="0"
     inkscape:window-maximized="1"
     fit-margin-top="0"
     fit-margin-left="0"
     fit-margin-right="0"
     fit-margin-bottom="0"
     units="px"
     showguides="true"
     inkscape:guide-bbox="true" />
  <metadata
     id="metadata4459">
    <rdf:RDF>
      <cc:Work
         rdf:about="">
        <dc:format>image/svg+xml</dc:format>
        <dc:type
           rdf:resource="http://purl.org/dc/dcmitype/StillImage" />
        <dc:title />
      </cc:Work>
    </rdf:RDF>
  </metadata>
  <g
     inkscape:groupmode="layer"
     id="layer5"
     inkscape:label="Activate"
     style="display:inline">
    <path
       style="fill:#ffffff;opacity:1"
       d="M 11.868681,29.672442 C 9.1852406,29.090182 5.9727506,27.177952 4.2088606,25.112951 0.40713062,20.662224 -0.35351938,14.517233 2.2381306,9.1921183 c 1.11591,-2.292869 3.77131,-5.110017 5.03295,-5.339513 1.57574,-0.286633 2.8889604,0.851192 2.8889604,2.503112 0,0.646998 -0.2078604,0.976528 -1.4314804,2.269473 -1.7088,1.8055957 -2.42717,2.9729137 -2.86553,4.6563307 -1.68578,6.473869 3.98747,12.795787 10.5125704,11.714542 5.56447,-0.922061 9.15339,-6.318625 7.75994,-11.668415 -0.472,-1.812131 -0.99916,-2.68838 -2.7323,-4.5416267 -1.35319,-1.446972 -1.57663,-1.79228 -1.57663,-2.436551 0,-1.645728 1.31588,-2.783014 2.88896,-2.496865 0.61802,0.11242 1.15347,0.512129 2.47608,1.848368 2.73012,2.758255 4.09139,6.1073737 4.09139,10.0659807 0,4.409327 -2.27242,8.898027 -5.76717,11.391825 -3.50298,2.499674 -7.61838,3.387849 -11.64719,2.513663 z m 2.35403,-13.991535 c -0.36605,-0.103118 -0.90979,-0.477763 -1.20832,-0.832545 l -0.54278,-0.645059 0,-6.4139967 0,-6.413998 0.64548,-0.60297102 c 1.15992,-1.083525 2.69526,-1.02184 3.7993,0.152645 0.49231,0.52372902 0.49374,0.54124702 0.55505,6.83598802 0.0529,5.4283017 0.0157,6.3807277 -0.2656,6.8101057 -0.64621,0.986239 -1.84227,1.431215 -2.98313,1.109831 z"
       id="path3376"
       inkscape:connector-curvature="0" />
  </g>
</svg>
