<?xml version="1.0" encoding="UTF-8" standalone="no"?>
<!-- Created with Inkscape (http://www.inkscape.org/) -->

<svg
   xmlns:dc="http://purl.org/dc/elements/1.1/"
   xmlns:cc="http://creativecommons.org/ns#"
   xmlns:rdf="http://www.w3.org/1999/02/22-rdf-syntax-ns#"
   xmlns:svg="http://www.w3.org/2000/svg"
   xmlns="http://www.w3.org/2000/svg"
   xmlns:sodipodi="http://sodipodi.sourceforge.net/DTD/sodipodi-0.dtd"
   xmlns:inkscape="http://www.inkscape.org/namespaces/inkscape"
   width="29.999998"
   height="30"
   viewBox="0 0 29.999998 29.999999"
   id="svg4454"
   version="1.1"
   inkscape:version="0.91 r13725"
   sodipodi:docname="Attack.svg">
  <defs
     id="defs4456" />
  <sodipodi:namedview
     id="base"
     pagecolor="#ffffff"
     bordercolor="#666666"
     borderopacity="1.0"
     inkscape:pageopacity="0.0"
     inkscape:pageshadow="2"
     inkscape:zoom="27.59803"
     inkscape:cx="13.625821"
     inkscape:cy="5.8652301"
     inkscape:document-units="px"
     inkscape:current-layer="layer3"
     showgrid="false"
     inkscape:window-width="1440"
     inkscape:window-height="851"
     inkscape:window-x="0"
     inkscape:window-y="1"
     inkscape:window-maximized="1"
     fit-margin-top="0"
     fit-margin-left="0"
     fit-margin-right="0"
     fit-margin-bottom="0"
     units="px" />
  <metadata
     id="metadata4459">
    <rdf:RDF>
      <cc:Work
         rdf:about="">
        <dc:format>image/svg+xml</dc:format>
        <dc:type
           rdf:resource="http://purl.org/dc/dcmitype/StillImage" />
        <dc:title />
      </cc:Work>
    </rdf:RDF>
  </metadata>
  <g
     inkscape:groupmode="layer"
     id="layer3"
     inkscape:label="Attack"
     style="display:inline">
    <path
       id="path3783"
       style="display:inline;fill:#000000;fill-opacity:1;stroke:none;stroke-width:0.3973152;stroke-miterlimit:4;stroke-dasharray:none;stroke-opacity:1;opacity:0.99"
       d="m 22.604211,6.4619775 -0.209321,0.061348 c -0.11438,0.034388 -2.14674,0.6398218 -4.514885,1.346165 -2.681165,0.7997135 -4.30525,1.3073036 -4.305564,1.3461632 -4.62e-4,0.056322 0.899148,3.0009103 0.923909,3.0243583 0.0055,0.0054 1.203262,-0.215653 2.659861,-0.490826 1.456579,-0.275185 2.66459,-0.498045 2.685101,-0.498045 0.04047,0 1.173716,1.817261 1.147661,1.840599 -0.0092,0.0078 -4.108586,-0.0369 -9.109152,-0.101057 -5.0005465,-0.06408 -9.0964016,-0.110758 -9.1019451,-0.104661 -0.00739,0.0067 1.3619528,2.138684 3.0423956,4.738643 l 3.0568454,4.727816 -0.6279809,6.348266 a 18.478181,18.478181 0 0 0 6.748878,1.299247 18.478181,18.478181 0 0 0 5.738344,-0.938344 c -0.381667,-3.125263 -0.760562,-6.228978 -0.765126,-6.279695 -0.0074,-0.07909 1.067799,-1.512162 3.619857,-4.836087 L 27.220153,13.221662 24.91038,9.8400107 22.604211,6.4619683 Z M 21.817779,6.0306229 21.913869,3.1942295 26.712412,2.9180583 26.431211,11.253211 22.845262,5.660431 Z M 16.201558,0.3215634 c 0.01478,-0.0470824 0.876716,-0.0864594 2.424282,-0.11073974 1.320987,-0.0206586 2.426536,-0.0289923 2.456785,-0.0184782 0.04176,0.0147825 -0.02513,5.94446784 -0.0741,6.19248934 L 16.462892,7.7624312 Z M 9.0044914,10.772981 9.1478821,4.8676024 9.2522838,0.60642119 9.4152614,0.5890517 12.219214,0.27619762 14.865272,-4.9952539e-6 15.322606,7.9115575 12.810202,8.642329 l 0.882814,3.665319 -4.5007493,0.09211 -0.2267273,0.01755 z m -6.0495532,1.462683 c 0.0037,-0.324935 0.6384212,-8.9180927 0.6604287,-8.9297413 0.060978,-0.032281 4.4995664,0.049152 4.5023196,0.082561 0.00739,0.082875 -0.4415915,8.7898063 -0.4528817,8.7932193 -0.041945,0.01275 -4.6424767,0.182601 -4.6730581,0.172587 -0.020696,-0.0072 -0.037326,-0.06024 -0.036772,-0.118667 z"
       inkscape:connector-curvature="0" />
  </g>
</svg>
