<?xml version="1.0" encoding="UTF-8" standalone="no"?>
<!-- Created with Inkscape (http://www.inkscape.org/) -->

<svg
   xmlns:dc="http://purl.org/dc/elements/1.1/"
   xmlns:cc="http://creativecommons.org/ns#"
   xmlns:rdf="http://www.w3.org/1999/02/22-rdf-syntax-ns#"
   xmlns:svg="http://www.w3.org/2000/svg"
   xmlns="http://www.w3.org/2000/svg"
   xmlns:sodipodi="http://sodipodi.sourceforge.net/DTD/sodipodi-0.dtd"
   xmlns:inkscape="http://www.inkscape.org/namespaces/inkscape"
   width="29.999998"
   height="30"
   viewBox="0 0 29.999998 29.999999"
   id="svg4454"
   version="1.1"
   inkscape:version="0.91 r13725"
   sodipodi:docname="Defend.svg">
  <defs
     id="defs4456" />
  <sodipodi:namedview
     id="base"
     pagecolor="#ffffff"
     bordercolor="#666666"
     borderopacity="1.0"
     inkscape:pageopacity="0.0"
     inkscape:pageshadow="2"
     inkscape:zoom="27.59803"
     inkscape:cx="13.625821"
     inkscape:cy="0.067714795"
     inkscape:document-units="px"
     inkscape:current-layer="layer8"
     showgrid="false"
     inkscape:window-width="1440"
     inkscape:window-height="851"
     inkscape:window-x="0"
     inkscape:window-y="1"
     inkscape:window-maximized="1"
     fit-margin-top="0"
     fit-margin-left="0"
     fit-margin-right="0"
     fit-margin-bottom="0"
     units="px" />
  <metadata
     id="metadata4459">
    <rdf:RDF>
      <cc:Work
         rdf:about="">
        <dc:format>image/svg+xml</dc:format>
        <dc:type
           rdf:resource="http://purl.org/dc/dcmitype/StillImage" />
        <dc:title />
      </cc:Work>
    </rdf:RDF>
  </metadata>
  <g
     inkscape:groupmode="layer"
     id="layer8"
     inkscape:label="Defend"
     style="display:inline">
    <path
       inkscape:connector-curvature="0"
       id="path3806"
       d="m 15.126465,0.00140013 c -0.58462,0.001 -1.171449,0.034969 -1.759832,0.080981 -0.32546,0.023108 -0.65278,0.051943 -0.979916,0.087116 -0.01022,0.001 -0.02188,7.975e-4 -0.03231,0.00131 l 0,0.00133 c -2.120874,0.2295496 -4.2807057,0.6985464 -6.5685327,1.44463867 -1.136623,0.3706331 -1.354864,0.4744366 -1.468871,0.6970332 -0.173006,0.3373611 -0.841062,2.9702175 -1.212288,4.7763485 -0.07996,0.389447 -0.137218,0.74419 -0.206073,1.115335 -0.155214,0.835356 -0.284335,1.637992 -0.385889,2.4043705 -0.0061,0.0364 -0.01022,0.07485 -0.01841,0.111248 -0.09877,0.762615 -0.17505,1.508585 -0.224273,2.2366 -6.95e-4,0.01022 -0.0041,0.02188 -0.0061,0.03231 -0.05153,0.769712 -0.08487,1.534312 -0.08487,2.303349 4.1e-5,2.755372 0.267811,4.248415 1.068852,5.96436 0.376175,0.805888 0.537095,1.025008 1.323392,1.798196 1.286888,1.265519 3.762915,3.073899 7.7787747,5.689639 0.06994,0.0454 0.121063,0.08139 0.192024,0.126994 C 13.747866,29.655911 14.364204,30 14.560584,30 c 0.0591,0 0.235971,-0.07791 0.458629,-0.183844 0.441512,-0.200613 1.203494,-0.622943 2.103328,-1.135478 0.0061,-0.0013 0.0061,-0.0041 0.01022,-0.0061 0.857258,-0.488465 1.769771,-1.012677 2.747806,-1.620405 4.327617,-2.688951 6.053626,-4.096146 6.808941,-5.552237 0.800714,-1.54345 1.043106,-2.76948 1.119363,-5.641109 0.02556,-0.959875 0.01023,-1.909198 -0.04458,-2.871118 -7.98e-4,-0.01636 -0.0041,-0.02822 -0.0041,-0.04254 C 27.672241,11.445709 27.460894,9.8834625 27.154065,8.2051235 26.922531,6.9387045 26.648933,5.6188105 26.2792,4.1480366 25.702739,1.855179 25.857851,2.0644832 24.383989,1.5820508 21.863648,0.75710393 19.485637,0.26465103 17.132575,0.08489683 16.460634,0.03356773 15.790758,-0.00119697 15.120187,3.0030979e-5 Z m 2.012367,2.01641647 c 2.13386,0.1752553 4.30543,0.6343339 6.651355,1.4022054 0.21683,0.070961 0.256257,0.083435 0.377852,0.1233125 -0.08487,-0.071574 -0.0014,0.094274 0.244478,1.076889 0.327116,1.301245 0.581123,2.471917 0.794047,3.586311 l -8.067732,0 0,-6.1886361 z m -4.784446,0.1010223 0,6.0876546 -7.4918847,0 c 0.04744,-0.245766 0.08282,-0.47006 0.135174,-0.725377 0.176891,-0.860448 0.432616,-1.954331 0.660673,-2.852877 0.100818,-0.3970947 0.19182,-0.7322677 0.270756,-1.0122262 0.150716,-0.054601 0.171165,-0.069529 0.4546,-0.1615538 2.106805,-0.6870332 4.0635687,-1.1137397 5.9704567,-1.3355183 z m -8.1485087,10.8721221 8.1485087,0 0,13.43604 C 9.0295473,24.22218 6.8894903,22.623104 5.9292883,21.678935 c -0.7501,-0.737708 -0.583761,-0.500408 -0.92736,-1.236539 -0.68916,-1.476316 -0.886951,-2.517847 -0.886971,-5.148107 0,-0.769732 0.0364,-1.533043 0.091,-2.303328 z m 12.9329547,0 8.69405,0 c 0.05665,0.946092 0.07566,1.875865 0.05051,2.820546 -0.07382,2.777601 -0.221636,3.488887 -0.903168,4.802624 -0.435623,0.839855 -1.847378,2.149586 -6.113912,4.800623 -0.616072,0.382801 -1.139772,0.672371 -1.727521,1.018321 l 0,-13.442114 z"
       style="display:inline;opacity:1;fill:#000000" />
  </g>
</svg>
