<?xml version="1.0" encoding="UTF-8" standalone="no"?>
<!-- Created with Inkscape (http://www.inkscape.org/) -->

<svg
   xmlns:dc="http://purl.org/dc/elements/1.1/"
   xmlns:cc="http://creativecommons.org/ns#"
   xmlns:rdf="http://www.w3.org/1999/02/22-rdf-syntax-ns#"
   xmlns:svg="http://www.w3.org/2000/svg"
   xmlns="http://www.w3.org/2000/svg"
   xmlns:sodipodi="http://sodipodi.sourceforge.net/DTD/sodipodi-0.dtd"
   xmlns:inkscape="http://www.inkscape.org/namespaces/inkscape"
   width="29.999998"
   height="30"
   viewBox="0 0 29.999998 29.999999"
   id="svg4454"
   version="1.1"
   inkscape:version="0.91 r13725"
   sodipodi:docname="Disable.svg">
  <defs
     id="defs4456" />
  <sodipodi:namedview
     id="base"
     pagecolor="#ffffff"
     bordercolor="#666666"
     borderopacity="1.0"
     inkscape:pageopacity="0.0"
     inkscape:pageshadow="2"
     inkscape:zoom="4.5075884"
     inkscape:cx="-64.771642"
     inkscape:cy="-18.606752"
     inkscape:document-units="px"
     inkscape:current-layer="layer9"
     showgrid="false"
     inkscape:window-width="1440"
     inkscape:window-height="851"
     inkscape:window-x="0"
     inkscape:window-y="1"
     inkscape:window-maximized="1"
     fit-margin-top="0"
     fit-margin-left="0"
     fit-margin-right="0"
     fit-margin-bottom="0"
     units="px" />
  <metadata
     id="metadata4459">
    <rdf:RDF>
      <cc:Work
         rdf:about="">
        <dc:format>image/svg+xml</dc:format>
        <dc:type
           rdf:resource="http://purl.org/dc/dcmitype/StillImage" />
        <dc:title />
      </cc:Work>
    </rdf:RDF>
  </metadata>
  <g
     inkscape:groupmode="layer"
     id="layer9"
     inkscape:label="Disable"
     style="display:inline">
    <path
       inkscape:connector-curvature="0"
       id="path3385"
       style="display:inline;opacity:1;fill:#000000;fill-opacity:1;fill-rule:nonzero;stroke:none;stroke-width:1;stroke-linecap:round;stroke-miterlimit:4;stroke-dasharray:none;stroke-dashoffset:0;stroke-opacity:1"
       d="M 14.886694,3.1342851e-4 C 13.833636,9.4941529e-4 12.775791,0.11554204 11.722631,0.34405629 8.9167428,0.95287164 5.5572411,2.9504001 3.7128647,5.1095822 1.6010381,7.5818679 0.3970423,10.556704 0.1288803,13.634796 c -0.02633,0.302229 -0.044695,0.604289 -0.052734,0.908184 -0.0052,0.152674 -0.00723,0.304533 -0.00781,0.457022 5.863e-4,0.15249 0.00261,0.304348 0.00781,0.457021 0.00804,0.303896 0.026404,0.60791 0.052734,0.910138 0.2681615,3.078091 1.4721578,6.050975 3.5839844,8.52326 1.8443762,2.159182 5.2038791,4.158663 8.0097663,4.767479 4.212644,0.914056 8.514914,-0.01517 12.177735,-2.628851 1.537556,-1.097151 2.828822,-2.575751 3.832031,-4.249912 0.814973,-1.295023 1.401332,-2.691774 1.759766,-4.187413 0.0068,-0.02715 0.01093,-0.05291 0.01758,-0.08008 0.100035,-0.428346 0.183264,-0.865663 0.246093,-1.31052 0.03863,-0.255852 0.07884,-0.510564 0.103516,-0.767562 0.0016,-0.01708 0.0043,-0.03368 0.0059,-0.05078 0.03891,-0.421363 0.06641,-0.84201 0.06641,-1.263645 1e-6,-0.04024 -0.0075,-0.07902 -0.0078,-0.119138 2.69e-4,-0.04012 0.0078,-0.07695 0.0078,-0.117186 0,-0.421635 -0.0275,-0.844233 -0.06641,-1.265598 -0.0015,-0.0171 -0.0043,-0.0337 -0.0059,-0.05078 -0.02468,-0.256995 -0.06489,-0.511708 -0.103516,-0.767562 -0.06283,-0.444854 -0.146054,-0.880219 -0.246093,-1.308566 -0.0067,-0.02718 -0.01079,-0.05489 -0.01758,-0.08203 C 29.133735,9.9126514 28.547369,8.5158894 27.732397,7.2208664 26.729187,5.5467051 25.437921,4.0681059 23.900366,2.9709547 21.15325,1.0106944 18.045869,-0.00159553 14.886694,3.1342851e-4 Z M 15.197241,3.4436008 c 0.488192,0.01406 0.982204,0.060009 1.480468,0.1425751 2.394493,0.3967717 4.480081,1.4823582 6.115235,2.9940788 0.01075,0.01145 0.01458,0.01578 0.02539,0.027339 0.937373,1.0023122 1.557196,1.7646743 2.039063,2.501901 0.426478,0.7039764 0.775372,1.4503839 1.042969,2.2304229 0.0778,0.242991 0.160059,0.468927 0.232421,0.742171 0.02622,0.09784 0.04668,0.196272 0.07031,0.294916 0.06908,0.288276 0.129902,0.577432 0.175781,0.865217 0.02406,0.152297 0.04078,0.307218 0.05859,0.460928 0.02854,0.242918 0.05382,0.484972 0.06641,0.726548 0.0095,0.189266 0.0061,0.379577 0.0059,0.5703 1.94e-4,0.190724 0.0036,0.381032 -0.0059,0.5703 -0.01255,0.240791 -0.03802,0.484424 -0.06641,0.726548 -0.0181,0.156377 -0.03404,0.311872 -0.05859,0.466787 -0.04524,0.283053 -0.106147,0.566056 -0.173828,0.849591 -0.02427,0.101677 -0.04524,0.203879 -0.07227,0.304682 -0.07388,0.278945 -0.158692,0.510278 -0.238281,0.757796 -0.266979,0.77489 -0.613236,1.517072 -1.037109,2.216751 -0.481866,0.737227 -1.101692,1.495683 -2.039063,2.497995 -0.01267,0.01355 -0.0168,0.01979 -0.0293,0.0332 -1.634495,1.509524 -3.719037,2.593765 -6.111328,2.990172 C 12.991398,27.024649 9.5411668,25.6875 7.0859116,23.30647 6.3227289,22.482 5.7342576,21.75304 5.2695053,21.060423 4.2057909,19.364262 3.5590793,17.402241 3.4882553,15.32812 3.4856053,15.21949 3.4682183,15.108146 3.4687243,15.000002 3.468218,14.891851 3.4856023,14.782457 3.4882553,14.673836 3.5590293,12.60119 4.2051895,10.636879 5.2675522,8.9415336 5.7318461,8.249125 6.3195477,7.5194412 7.0820053,6.6954863 9.2057428,4.6342101 12.071864,3.3535667 15.197241,3.4436008 Z m 2.702785,5.3697495 3.286726,3.2866587 -9.086831,9.086641 -3.2867272,-3.286658 z m 3.286726,9.0866427 -3.286726,3.286658 -9.0868312,-9.086642 3.2867272,-3.2866577 z" />
  </g>
</svg>
