<?xml version="1.0" encoding="UTF-8" standalone="no"?>
<!-- Created with Inkscape (http://www.inkscape.org/) -->

<svg
   xmlns:dc="http://purl.org/dc/elements/1.1/"
   xmlns:cc="http://creativecommons.org/ns#"
   xmlns:rdf="http://www.w3.org/1999/02/22-rdf-syntax-ns#"
   xmlns:svg="http://www.w3.org/2000/svg"
   xmlns="http://www.w3.org/2000/svg"
   xmlns:sodipodi="http://sodipodi.sourceforge.net/DTD/sodipodi-0.dtd"
   xmlns:inkscape="http://www.inkscape.org/namespaces/inkscape"
   width="29.999998"
   height="30"
   viewBox="0 0 29.999998 29.999999"
   id="svg4454"
   version="1.1"
   inkscape:version="0.91 r13725"
   sodipodi:docname="Disable.svg">
  <defs
     id="defs4456" />
  <sodipodi:namedview
     id="base"
     pagecolor="#ffffff"
     bordercolor="#666666"
     borderopacity="1.0"
     inkscape:pageopacity="0.0"
     inkscape:pageshadow="2"
     inkscape:zoom="9.757377"
     inkscape:cx="9.1710754"
     inkscape:cy="4.3763202"
     inkscape:document-units="px"
     inkscape:current-layer="layer9"
     showgrid="false"
     inkscape:window-width="1440"
     inkscape:window-height="852"
     inkscape:window-x="0"
     inkscape:window-y="0"
     inkscape:window-maximized="1"
     fit-margin-top="0"
     fit-margin-left="0"
     fit-margin-right="0"
     fit-margin-bottom="0"
     units="px"
     showguides="true"
     inkscape:guide-bbox="true" />
  <metadata
     id="metadata4459">
    <rdf:RDF>
      <cc:Work
         rdf:about="">
        <dc:format>image/svg+xml</dc:format>
        <dc:type
           rdf:resource="http://purl.org/dc/dcmitype/StillImage" />
        <dc:title />
      </cc:Work>
    </rdf:RDF>
  </metadata>
  <g
     inkscape:groupmode="layer"
     id="layer9"
     inkscape:label="Disable"
     style="display:inline">
    <path
       id="path3385"
       style="opacity:1;fill:#000000;fill-opacity:1;fill-rule:nonzero;stroke:none;stroke-width:1;stroke-linecap:round;stroke-miterlimit:4;stroke-dasharray:none;stroke-dashoffset:0;stroke-opacity:1"
       d="M 14.886719,0 C 13.833661,6.3628138e-4 12.775816,0.11523122 11.722656,0.34375 8.9167689,0.95257873 5.557267,2.9501479 3.7128906,5.109375 1.601064,7.5817126 0.39706825,10.55661 0.12890625,13.634766 c -0.02633,0.302235 -0.0446952,0.604301 -0.05273438,0.908203 -0.0052041,0.152677 -0.0072265,0.304539 -0.0078125,0.457031 5.8636e-4,0.152493 0.0026096,0.304355 0.0078125,0.457031 0.0080392,0.303902 0.02640394,0.607922 0.05273438,0.910157 0.26816144,3.078155 1.47215775,6.0511 3.58398435,8.523437 1.8443762,2.159227 5.2038788,4.158749 8.0097654,4.767578 4.212644,0.914075 8.514914,-0.01517 12.177735,-2.628906 1.537556,-1.097174 2.828822,-2.575804 3.832031,-4.25 0.814973,-1.29505 1.401332,-2.69183 1.759766,-4.1875 0.0068,-0.02715 0.01093,-0.05291 0.01758,-0.08008 0.100035,-0.428355 0.183264,-0.865681 0.246093,-1.310547 0.03863,-0.255857 0.07884,-0.510575 0.103516,-0.767578 0.0016,-0.01708 0.0043,-0.03368 0.0059,-0.05078 0.03891,-0.421372 0.06641,-0.842027 0.06641,-1.263671 1e-6,-0.04024 -0.0075,-0.07902 -0.0078,-0.119141 2.69e-4,-0.04012 0.0078,-0.07695 0.0078,-0.117188 0,-0.421644 -0.0275,-0.844251 -0.06641,-1.265624 -0.0015,-0.0171 -0.0043,-0.0337 -0.0059,-0.05078 -0.02468,-0.257001 -0.06489,-0.511719 -0.103516,-0.767578 -0.06283,-0.444864 -0.146054,-0.880238 -0.246093,-1.308594 -0.0067,-0.02718 -0.01079,-0.05489 -0.01758,-0.08203 C 29.13376,9.9125446 28.547394,8.5157537 27.732422,7.2207031 26.729212,5.5465078 25.437946,4.0678778 23.900391,2.9707031 21.153275,1.0104025 18.045894,-0.00190913 14.886719,0 Z m 0.310547,3.4433594 c 0.488192,0.014064 0.982204,0.060014 1.480468,0.1425781 2.394493,0.3967799 4.480081,1.4823887 6.115235,2.9941406 0.01075,0.011451 0.01458,0.015783 0.02539,0.027344 0.937373,1.002333 1.557196,1.7647114 2.039063,2.5019531 0.426478,0.7039909 0.775372,1.4504138 1.042969,2.2304688 0.0778,0.242996 0.160059,0.468937 0.232421,0.742187 0.02622,0.09784 0.04668,0.196276 0.07031,0.294922 0.06908,0.288282 0.129902,0.577444 0.175781,0.865235 0.02406,0.1523 0.04078,0.307224 0.05859,0.460937 0.02854,0.242923 0.05382,0.484982 0.06641,0.726563 0.0095,0.18927 0.0061,0.379585 0.0059,0.570312 1.94e-4,0.190728 0.0036,0.38104 -0.0059,0.570312 -0.01255,0.240796 -0.03802,0.484434 -0.06641,0.726563 -0.0181,0.15638 -0.03404,0.311879 -0.05859,0.466797 -0.04524,0.283059 -0.106147,0.566068 -0.173828,0.849609 -0.02427,0.101679 -0.04524,0.203883 -0.07227,0.304688 -0.07388,0.278951 -0.158692,0.510289 -0.238281,0.757812 -0.266979,0.774906 -0.613236,1.517103 -1.037109,2.216797 -0.481866,0.737242 -1.101692,1.495714 -2.039063,2.498047 -0.01267,0.01355 -0.0168,0.01979 -0.0293,0.0332 -1.634495,1.509556 -3.719037,2.593819 -6.111328,2.990234 C 12.991423,27.024897 9.5411929,25.68772 7.0859375,23.306641 6.3227548,22.482154 5.7342835,21.753179 5.2695312,21.060547 4.2058168,19.364351 3.5591052,17.402289 3.4882812,15.328125 3.4856312,15.219493 3.468244,15.108147 3.46875,15 3.4682437,14.891847 3.4856282,14.782451 3.4882812,14.673828 3.5590553,12.601138 4.2052154,10.636787 5.2675781,8.9414062 5.731872,8.2489829 6.3195736,7.5192839 7.0820312,6.6953125 9.2057685,4.6339937 12.071889,3.3533235 15.197266,3.4433594 Z m 2.702785,5.3698612 3.286726,3.2867264 -9.086831,9.08683 -3.2867259,-3.286726 z m 3.286726,9.0868314 -3.286726,3.286726 -9.0868305,-9.086831 3.2867265,-3.286726 z"
       inkscape:connector-curvature="0" />
  </g>
</svg>
