<?xml version="1.0" encoding="UTF-8" standalone="no"?>
<!-- Created with Inkscape (http://www.inkscape.org/) -->

<svg
   xmlns:dc="http://purl.org/dc/elements/1.1/"
   xmlns:cc="http://creativecommons.org/ns#"
   xmlns:rdf="http://www.w3.org/1999/02/22-rdf-syntax-ns#"
   xmlns:svg="http://www.w3.org/2000/svg"
   xmlns="http://www.w3.org/2000/svg"
   xmlns:sodipodi="http://sodipodi.sourceforge.net/DTD/sodipodi-0.dtd"
   xmlns:inkscape="http://www.inkscape.org/namespaces/inkscape"
   width="29.999998"
   height="30"
   viewBox="0 0 29.999998 29.999999"
   id="svg4454"
   version="1.1"
   inkscape:version="0.91 r13725"
   sodipodi:docname="Energy.svg">
  <defs
     id="defs4456" />
  <sodipodi:namedview
     id="base"
     pagecolor="#ffffff"
     bordercolor="#666666"
     borderopacity="1.0"
     inkscape:pageopacity="0.0"
     inkscape:pageshadow="2"
     inkscape:zoom="9.757377"
     inkscape:cx="9.1710754"
     inkscape:cy="4.3763202"
     inkscape:document-units="px"
     inkscape:current-layer="layer25"
     showgrid="false"
     inkscape:window-width="1440"
     inkscape:window-height="852"
     inkscape:window-x="0"
     inkscape:window-y="0"
     inkscape:window-maximized="1"
     fit-margin-top="0"
     fit-margin-left="0"
     fit-margin-right="0"
     fit-margin-bottom="0"
     units="px"
     showguides="true"
     inkscape:guide-bbox="true" />
  <metadata
     id="metadata4459">
    <rdf:RDF>
      <cc:Work
         rdf:about="">
        <dc:format>image/svg+xml</dc:format>
        <dc:type
           rdf:resource="http://purl.org/dc/dcmitype/StillImage" />
        <dc:title />
      </cc:Work>
    </rdf:RDF>
  </metadata>
  <g
     inkscape:groupmode="layer"
     id="layer25"
     inkscape:label="Energy"
     style="display:inline">
    <path
       style="opacity:1;fill:#000000;fill-opacity:1;stroke:none;stroke-width:1.03936291;stroke-miterlimit:4;stroke-dasharray:none;stroke-opacity:1"
       d="M 14.999999,-6.5867432e-7 A 15,15 0 0 0 -9.5367431e-7,14.999999 15,15 0 0 0 14.999999,29.999999 a 15,15 0 0 0 15,-15 15,15 0 0 0 -15,-14.99999965867432 z M 15.667968,3.7167963 c 1.013034,0.04491 2.725042,0.5169663 4.302734,1.3789063 1.577692,0.86194 3.02751,2.1034112 3.738282,3.5820312 0.831433,1.7296402 1.051383,3.3515312 0.783203,4.6445312 -0.26818,1.293 -0.986522,2.272314 -2.203125,2.871094 -0.336399,0.16557 -1.001175,0.301593 -1.66211,0.308593 -0.660936,0.0067 -1.333379,-0.11419 -1.683594,-0.27539 -1.482469,-0.68234 -2.202446,-1.750602 -2.404296,-3.707031 -0.166723,-1.61596 -0.636004,-2.8338282 -1.535157,-3.7675784 -1.176822,-1.263 -2.633248,-1.7568163 -4.033203,-1.5976563 -1.402863,0.1595 -2.729073,0.888035 -3.957031,1.859375 C 5.973468,9.8364908 5.047235,10.889209 4.17578,11.943359 4.967484,10.341679 6.006054,8.8370751 7.234374,7.5722651 9.611633,5.1243751 12.619681,3.5816763 15.667968,3.7167963 Z M 9.373046,13.499999 c 0.660936,-0.0067 1.33338,0.114191 1.683594,0.275391 1.482469,0.68234 2.202447,1.750601 2.404297,3.707031 0.166723,1.61596 0.636003,2.833828 1.535156,3.767578 1.176821,1.263 2.633248,1.756816 4.033203,1.597656 1.402863,-0.159499 2.729073,-0.888034 3.957031,-1.859374 1.040203,-0.822821 1.966437,-1.875538 2.837891,-2.929688 -0.791704,1.60168 -1.830274,3.106274 -3.058594,4.371094 -2.377259,2.44788 -5.385307,3.990589 -8.433594,3.855468 -1.013033,-0.04491 -2.725042,-0.516966 -4.302734,-1.378906 -1.577692,-0.86194 -3.02751,-2.103411 -3.738281,-3.582031 -0.831433,-1.72964 -1.051383,-3.351531 -0.783203,-4.644531 0.26818,-1.29301 0.986522,-2.272314 2.203125,-2.871094 0.336399,-0.16557 1.001174,-0.301594 1.662109,-0.308594 z"
       id="circle3635"
       inkscape:connector-curvature="0" />
  </g>
</svg>
