<?xml version="1.0" encoding="UTF-8" standalone="no"?>
<!-- Created with Inkscape (http://www.inkscape.org/) -->

<svg
   xmlns:dc="http://purl.org/dc/elements/1.1/"
   xmlns:cc="http://creativecommons.org/ns#"
   xmlns:rdf="http://www.w3.org/1999/02/22-rdf-syntax-ns#"
   xmlns:svg="http://www.w3.org/2000/svg"
   xmlns="http://www.w3.org/2000/svg"
   xmlns:sodipodi="http://sodipodi.sourceforge.net/DTD/sodipodi-0.dtd"
   xmlns:inkscape="http://www.inkscape.org/namespaces/inkscape"
   width="29.999998"
   height="30"
   viewBox="0 0 29.999998 29.999999"
   id="svg4454"
   version="1.1"
   inkscape:version="0.91 r13725"
   sodipodi:docname="Heal.svg">
  <defs
     id="defs4456" />
  <sodipodi:namedview
     id="base"
     pagecolor="#ffffff"
     bordercolor="#666666"
     borderopacity="1.0"
     inkscape:pageopacity="0.0"
     inkscape:pageshadow="2"
     inkscape:zoom="9.757377"
     inkscape:cx="9.1710754"
     inkscape:cy="4.3763202"
     inkscape:document-units="px"
     inkscape:current-layer="layer14"
     showgrid="false"
     inkscape:window-width="1440"
     inkscape:window-height="852"
     inkscape:window-x="0"
     inkscape:window-y="0"
     inkscape:window-maximized="1"
     fit-margin-top="0"
     fit-margin-left="0"
     fit-margin-right="0"
     fit-margin-bottom="0"
     units="px"
     showguides="true"
     inkscape:guide-bbox="true" />
  <metadata
     id="metadata4459">
    <rdf:RDF>
      <cc:Work
         rdf:about="">
        <dc:format>image/svg+xml</dc:format>
        <dc:type
           rdf:resource="http://purl.org/dc/dcmitype/StillImage" />
        <dc:title />
      </cc:Work>
    </rdf:RDF>
  </metadata>
  <g
     inkscape:groupmode="layer"
     id="layer14"
     inkscape:label="Heal"
     style="display:inline">
    <path
       inkscape:connector-curvature="0"
       id="path3733"
       d="m 8.7190061,1.2877243 c -0.655537,-4.868e-4 -1.262774,0.033231 -1.391845,0.1003273 -0.09948,0.05207 -0.220742,0.07831 -0.269975,0.05927 -0.140755,-0.05376 -1.386935,0.389098 -2.09253,0.743779 -1.250964,0.62889 -2.149807,1.382086 -2.878473,2.411334 -1.09992202,1.553682 -1.70334902,2.945802 -1.98341902,4.576614 -0.14901,0.8678344 -0.130807,2.2474674 0.02117,3.4260424 l 0.514042,0 2.07724802,0 1.821646,-3.3082524 c 1.002134,-1.819191 1.841457,-3.29096 1.864719,-3.270979 0.02328,0.02117 0.943228,2.135688 2.043743,4.7020454 1.100556,2.566357 2.0144269,4.666105 2.0313179,4.665661 0.01693,-4.87e-4 0.273763,-0.288157 0.571465,-0.638499 l 0.541812,-0.636594 0.889276,0 0.889297,0 0.121494,-0.144565 c 0.0671,-0.07958 0.244681,-0.215789 0.395363,-0.302486 0.992757,-0.571466 2.373469,-0.303841 2.925356,0.566682 0.21399,0.337516 0.21399,0.93563 0,1.273146 -0.551887,0.870522 -1.932599,1.138084 -2.925356,0.566724 -0.150703,-0.08678 -0.328394,-0.223007 -0.395363,-0.302528 -0.113663,-0.134829 -0.146259,-0.144565 -0.487225,-0.143507 l -0.364714,8.89e-4 -1.378447,1.609159 -1.3784689,1.61009 -1.845563,-4.299994 c -1.015554,-2.365257 -1.862391,-4.293115 -1.88197,-4.283696 -0.02117,0.0085 -0.51184,0.879519 -1.093191,1.933658 l -1.056784,1.916407 -2.214131,0 -1.34591502,0 c 0.152185,0.534721 0.345432,1.145619 0.474821,1.447364 0.13334702,0.310804 1.15707002,1.460614 2.04084302,2.292657 0.285405,0.268641 0.943123,0.900853 1.461736,1.40427 2.526035,2.452101 7.8719559,7.351352 9.6807109,8.871824 0.842986,0.708623 0.944245,0.727418 1.487559,0.267075 2.373258,-2.010914 5.154769,-4.561671 9.589781,-8.792388 1.036233,-0.988524 2.085546,-1.967121 2.331878,-2.174888 1.169897,-0.986809 1.954485,-2.424332 2.328025,-4.267398 0.201714,-0.995889 0.217419,-3.4033524 0.02752,-4.2731974 -0.291394,-1.336496 -0.939693,-2.863149 -1.736452,-4.092268 -0.88627,-1.367187 -2.260357,-2.373425 -4.280838,-3.133079 -0.417037,-0.156842 -0.744774,-0.243052 -0.845271,-0.22305 -0.09017,0.01905 -0.220636,-0.01058 -0.290019,-0.06053 -0.09948,-0.07281 -0.410073,-0.092073 -1.472256,-0.092073 -1.339544,0 -1.351058,3.81e-4 -2.115538,0.221166 -0.86231,0.248977 -1.628335,0.558533 -2.25913,0.911288 -0.499818,0.279521 -1.279643,0.887117 -1.582341,1.232907 -0.243728,0.278483 -0.229737,0.282441 -0.728455,-0.223007 -0.75413,-0.764351 -2.759858,-1.750906 -4.156402,-2.044693 C 10.077777,1.3227016 9.3743621,1.287987 8.7188241,1.2869287 Z"
       style="display:inline;opacity:1;fill:#000000;fill-opacity:1" />
  </g>
</svg>
