<?xml version="1.0" encoding="UTF-8" standalone="no"?>
<!-- Created with Inkscape (http://www.inkscape.org/) -->

<svg
   xmlns:dc="http://purl.org/dc/elements/1.1/"
   xmlns:cc="http://creativecommons.org/ns#"
   xmlns:rdf="http://www.w3.org/1999/02/22-rdf-syntax-ns#"
   xmlns:svg="http://www.w3.org/2000/svg"
   xmlns="http://www.w3.org/2000/svg"
   xmlns:sodipodi="http://sodipodi.sourceforge.net/DTD/sodipodi-0.dtd"
   xmlns:inkscape="http://www.inkscape.org/namespaces/inkscape"
   width="29.999998"
   height="30"
   viewBox="0 0 29.999998 29.999999"
   id="svg4454"
   version="1.1"
   inkscape:version="0.91 r13725"
   sodipodi:docname="Minion.svg">
  <defs
     id="defs4456" />
  <sodipodi:namedview
     id="base"
     pagecolor="#ffffff"
     bordercolor="#666666"
     borderopacity="1.0"
     inkscape:pageopacity="0.0"
     inkscape:pageshadow="2"
     inkscape:zoom="27.59803"
     inkscape:cx="13.625821"
     inkscape:cy="0.067714795"
     inkscape:document-units="px"
     inkscape:current-layer="layer13"
     showgrid="false"
     inkscape:window-width="1440"
     inkscape:window-height="851"
     inkscape:window-x="0"
     inkscape:window-y="1"
     inkscape:window-maximized="1"
     fit-margin-top="0"
     fit-margin-left="0"
     fit-margin-right="0"
     fit-margin-bottom="0"
     units="px" />
  <metadata
     id="metadata4459">
    <rdf:RDF>
      <cc:Work
         rdf:about="">
        <dc:format>image/svg+xml</dc:format>
        <dc:type
           rdf:resource="http://purl.org/dc/dcmitype/StillImage" />
        <dc:title />
      </cc:Work>
    </rdf:RDF>
  </metadata>
  <g
     inkscape:groupmode="layer"
     id="layer13"
     inkscape:label="Minion"
     style="display:inline">
    <path
       style="display:inline;opacity:1;fill:#000000;fill-opacity:1;stroke:none;stroke-width:1;stroke-miterlimit:4;stroke-dasharray:none;stroke-opacity:1"
       d="M 14.997799,8.6146326e-5 C 10.316273,8.6146326e-5 6.52295,3.7933875 6.52295,8.474935 c 0.0044,3.587906 2.264355,6.785596 5.647062,7.981565 l 0.0044,0 0,13.339497 a 21.771804,21.771804 0 0 0 2.823542,0.204002 21.771804,21.771804 0 0 0 2.827765,-0.208356 l 0,-13.330963 c 3.381444,-1.197318 5.646822,-4.398427 5.651329,-7.985832 0,-4.6815476 -3.797547,-8.47484895367432 -8.479094,-8.47484895367432 z m 0,5.651307053674 c 1.560516,0 2.82352,1.2630259 2.82352,2.8235418 0,1.560516 -1.263004,2.827765 -2.82352,2.827765 -1.560494,0 -2.827787,-1.267249 -2.827787,-2.827765 0,-1.5605159 1.267293,-2.8235418 2.827787,-2.8235418 z"
       id="path4374"
       inkscape:connector-curvature="0" />
  </g>
</svg>
