<?xml version="1.0" encoding="UTF-8" standalone="no"?>
<!-- Created with Inkscape (http://www.inkscape.org/) -->

<svg
   xmlns:dc="http://purl.org/dc/elements/1.1/"
   xmlns:cc="http://creativecommons.org/ns#"
   xmlns:rdf="http://www.w3.org/1999/02/22-rdf-syntax-ns#"
   xmlns:svg="http://www.w3.org/2000/svg"
   xmlns="http://www.w3.org/2000/svg"
   xmlns:sodipodi="http://sodipodi.sourceforge.net/DTD/sodipodi-0.dtd"
   xmlns:inkscape="http://www.inkscape.org/namespaces/inkscape"
   width="29.999998"
   height="30"
   viewBox="0 0 29.999998 29.999999"
   id="svg4454"
   version="1.1"
   inkscape:version="0.91 r13725"
   sodipodi:docname="Refresh.svg">
  <defs
     id="defs4456" />
  <sodipodi:namedview
     id="base"
     pagecolor="#ffffff"
     bordercolor="#666666"
     borderopacity="1.0"
     inkscape:pageopacity="0.0"
     inkscape:pageshadow="2"
     inkscape:zoom="9.757377"
     inkscape:cx="9.1710754"
     inkscape:cy="4.3763202"
     inkscape:document-units="px"
     inkscape:current-layer="layer1"
     showgrid="false"
     inkscape:window-width="1440"
     inkscape:window-height="852"
     inkscape:window-x="0"
     inkscape:window-y="0"
     inkscape:window-maximized="1"
     fit-margin-top="0"
     fit-margin-left="0"
     fit-margin-right="0"
     fit-margin-bottom="0"
     units="px"
     showguides="true"
     inkscape:guide-bbox="true" />
  <metadata
     id="metadata4459">
    <rdf:RDF>
      <cc:Work
         rdf:about="">
        <dc:format>image/svg+xml</dc:format>
        <dc:type
           rdf:resource="http://purl.org/dc/dcmitype/StillImage" />
        <dc:title />
      </cc:Work>
    </rdf:RDF>
  </metadata>
  <g
     inkscape:label="Refresh"
     inkscape:groupmode="layer"
     id="layer1"
     transform="translate(-73.938735,-297.33928)"
     style="display:inline">
    <g
       id="g10423"
       transform="matrix(1.1429006,0,0,0.7833163,-38.138373,97.057952)"
       style="opacity:1">
      <path
         sodipodi:nodetypes="csscsccccscsssscsscsccc"
         inkscape:connector-curvature="0"
         id="path10419"
         d="m 98.063739,275.99912 c 0.21823,-1.49121 0.69857,-2.77328 1.48919,-3.97478 1.405471,-2.13587 3.547471,-3.59515 6.053671,-4.12418 0.58624,-0.12375 1.39786,-0.20443 1.88265,-0.18715 0.2243,0.008 0.40782,0.004 0.40782,-0.01 0,-0.0239 -0.61565,-1.82822 -0.68242,-2 -0.0185,-0.0475 -0.0442,-0.15888 -0.0572,-0.24752 -0.0568,-0.38664 0.2897,-0.75151 0.71544,-0.75346 0.18538,-8.4e-4 0.29942,0.0492 0.57688,0.2532 0.15865,0.11664 1.54064,1.13848 3.22973,2.38805 2.23493,1.65337 2.88416,2.13891 2.88324,2.15627 -5.6e-4,0.0112 -0.18324,0.15902 -0.40588,0.32842 -0.37232,0.28328 -1.18815,0.90873 -4.09765,3.14143 -0.59072,0.4533 -1.24959,0.95848 -1.46416,1.12263 -0.22026,0.1685 -0.45339,0.3175 -0.53541,0.3422 -0.2869,0.0864 -0.61522,-0.0343 -0.7971,-0.29311 -0.17332,-0.2466 -0.1522,-0.37438 0.26981,-1.63259 0.20061,-0.59812 0.36474,-1.10961 0.36474,-1.13665 0,-0.0412 -0.0794,-0.0457 -0.49223,-0.0277 -1.79439,0.0784 -3.2648,0.78825 -4.41066,2.12929 -0.96024,1.12379 -1.47945,2.73568 -1.35445,4.20488 0.65293,3.01264 4.45132,4.57171 6.01343,4.61647 -4.27296,1.54778 -9.280875,-1.32974 -9.589441,-6.2957 z"
         style="fill:#000000" />
      <path
         style="fill:#000000"
         d="m 124.31274,273.66718 c -0.21823,1.49121 -0.69857,2.77328 -1.48919,3.97478 -1.40547,2.13587 -3.54747,3.59515 -6.05367,4.12418 -0.58624,0.12375 -1.39786,0.20443 -1.88265,0.18715 -0.2243,-0.008 -0.40782,-0.004 -0.40782,0.01 0,0.0239 0.61565,1.82822 0.68242,2 0.0185,0.0475 0.0442,0.15888 0.0572,0.24752 0.0568,0.38664 -0.2897,0.75151 -0.71544,0.75346 -0.18538,8.4e-4 -0.29942,-0.0492 -0.57688,-0.2532 -0.15865,-0.11664 -1.54064,-1.13848 -3.22973,-2.38805 -2.23493,-1.65337 -2.88416,-2.13891 -2.88324,-2.15627 5.6e-4,-0.0112 0.18324,-0.15902 0.40588,-0.32842 0.37232,-0.28328 1.18815,-0.90873 4.09765,-3.14143 0.59072,-0.4533 1.24959,-0.95848 1.46416,-1.12263 0.22026,-0.1685 0.45339,-0.3175 0.53541,-0.3422 0.2869,-0.0864 0.61522,0.0343 0.7971,0.29311 0.17332,0.2466 0.1522,0.37438 -0.26981,1.63259 -0.20061,0.59812 -0.36474,1.10961 -0.36474,1.13665 0,0.0412 0.0794,0.0457 0.49223,0.0277 1.79439,-0.0784 3.2648,-0.78825 4.41066,-2.12929 0.96024,-1.12379 1.47945,-2.73568 1.35445,-4.20488 -0.65293,-3.01264 -4.45132,-4.57171 -6.01343,-4.61647 4.27296,-1.54778 9.28087,1.32974 9.58944,6.2957 z"
         id="path10421"
         inkscape:connector-curvature="0"
         sodipodi:nodetypes="csscsccccscsssscsscsccc" />
    </g>
  </g>
</svg>
