<?xml version="1.0" encoding="UTF-8" standalone="no"?>
<!-- Created with Inkscape (http://www.inkscape.org/) -->

<svg
   xmlns:dc="http://purl.org/dc/elements/1.1/"
   xmlns:cc="http://creativecommons.org/ns#"
   xmlns:rdf="http://www.w3.org/1999/02/22-rdf-syntax-ns#"
   xmlns:svg="http://www.w3.org/2000/svg"
   xmlns="http://www.w3.org/2000/svg"
   xmlns:sodipodi="http://sodipodi.sourceforge.net/DTD/sodipodi-0.dtd"
   xmlns:inkscape="http://www.inkscape.org/namespaces/inkscape"
   width="29.999998"
   height="30"
   viewBox="0 0 29.999998 29.999999"
   id="svg4454"
   version="1.1"
   inkscape:version="0.91 r13725"
   sodipodi:docname="Sacrifice.svg">
  <defs
     id="defs4456" />
  <sodipodi:namedview
     id="base"
     pagecolor="#ffffff"
     bordercolor="#666666"
     borderopacity="1.0"
     inkscape:pageopacity="0.0"
     inkscape:pageshadow="2"
     inkscape:zoom="9.757377"
     inkscape:cx="9.1710754"
     inkscape:cy="4.3763202"
     inkscape:document-units="px"
     inkscape:current-layer="layer17"
     showgrid="false"
     inkscape:window-width="1440"
     inkscape:window-height="852"
     inkscape:window-x="0"
     inkscape:window-y="0"
     inkscape:window-maximized="1"
     fit-margin-top="0"
     fit-margin-left="0"
     fit-margin-right="0"
     fit-margin-bottom="0"
     units="px"
     showguides="true"
     inkscape:guide-bbox="true" />
  <metadata
     id="metadata4459">
    <rdf:RDF>
      <cc:Work
         rdf:about="">
        <dc:format>image/svg+xml</dc:format>
        <dc:type
           rdf:resource="http://purl.org/dc/dcmitype/StillImage" />
        <dc:title />
      </cc:Work>
    </rdf:RDF>
  </metadata>
  <g
     inkscape:groupmode="layer"
     id="layer17"
     inkscape:label="Sacrifice"
     style="display:inline">
    <path
       id="rect3703"
       style="opacity:1;fill:#000000;fill-opacity:1;fill-rule:nonzero;stroke:none;stroke-width:1;stroke-linecap:round;stroke-miterlimit:4;stroke-dasharray:none;stroke-dashoffset:0;stroke-opacity:1"
       d="m 9.400592,15.406547 3.730078,2.4765 -4.116782,6.200654 C 7.195544,26.991483 4.18776,28.815916 -9.0367432e-7,29.565622 Z m 8.584899,-11.2934675 -0.04601,0.141547 c -0.02465,0.07768 -0.465849,1.45576 -0.979444,3.061866 -0.581477,1.818403 -0.920645,2.9288005 -0.898873,2.9439345 0.03155,0.02194 2.036823,0.648534 2.059564,0.643609 0.0051,-10e-4 0.341664,-0.760931 0.747306,-1.6875035 0.405629,-0.926565 0.745058,-1.692945 0.752954,-1.704501 0.01558,-0.0228 1.475638,0.03823 1.478758,0.06189 8.19e-4,0.0082 -1.602273,2.300585 -3.563246,5.0932225 -1.96092,2.792654 -3.563802,5.082303 -3.562501,5.087774 8.87e-4,0.0068 1.729186,0.0559 3.840848,0.109911 l 3.84031,0.0976 3.334907,2.79739 a 12.608393,12.608393 0 0 0 3.329789,-3.302227 12.608393,12.608393 0 0 0 1.680146,-3.594188 c -1.907694,-0.987949 -3.802179,-1.969165 -3.832511,-1.986116 -0.0474,-0.02627 -0.440936,-1.183665 -1.3313,-3.9009525 l -1.265496,-3.861947 -2.794313,-3.39e-4 -2.790892,-9.55e-4 z m -0.545742,0.27704 -1.561044,-1.145926 1.691468,-2.80981695 4.587807,3.36681095 -4.531297,-0.132449 z m -5.378303,0.966654 c -0.02084,-0.02646 0.288755,-0.527224 0.870767,-1.408473 0.496837,-0.7522 0.917693,-1.378276 0.935258,-1.391273 0.0244,-0.01784 3.339456,2.302313 3.460342,2.425371 l -0.97357,3.091289 z m 3.11805,8.0778245 -3.271912,-2.353895 -2.360574,-1.6990415 0.05295,-0.09851 0.903038,-1.700178 0.862912,-1.597113 4.633434,2.787668 -0.555359,1.6967855 2.404864,0.913481 -1.68054,2.571189 -0.07738,0.134494 z m -1.504524,3.971353 c -0.181645,-0.12716 -4.778736,-3.792455 -4.776827,-3.809338 0.0053,-0.04678 1.759671,-2.516149 1.779555,-2.504841 0.04954,0.02773 4.782222,3.632181 4.7798,3.639855 -0.009,0.02854 -1.684112,2.685872 -1.701526,2.699247 -0.01203,0.0089 -0.04831,-0.0022 -0.08101,-0.02496 z"
       inkscape:connector-curvature="0" />
  </g>
</svg>
