<svg xmlns="http://www.w3.org/2000/svg" xmlns:dc="http://purl.org/dc/elements/1.1/" xmlns:ns2="http://creativecommons.org/ns#" xmlns:rdf="http://www.w3.org/1999/02/22-rdf-syntax-ns#" height="180" id="svg4759" version="1.1" viewBox="0 0 180 180" width="180">
  <defs id="defs4761" />
  <metadata id="metadata4764">
    <rdf:RDF>
      <ns2:Work rdf:about="">
        <dc:format>image/svg+xml</dc:format>
        <dc:type rdf:resource="http://purl.org/dc/dcmitype/StillImage" />
        <dc:title />
      </ns2:Work>
    </rdf:RDF>
  </metadata>
  <path d="M 126.76367,7.5 C 122.74881,10.021654 119.02138,11.824887 115.58008,12.910156 112.17701,13.995425 108.62107,14.539062 104.91211,14.539062 100.70607,14.539063 95.811066,13.596151 90.228516,11.712891 89.807906,11.585211 89.50369,11.489621 89.3125,11.425781 89.04485,11.330021 88.624331,11.202565 88.050781,11.042969 82.124091,9.0639479 77.361828,8.0742188 73.767578,8.0742188 70.402748,8.0742188 67.077421,8.6965371 63.789062,9.9414062 60.500712,11.154352 56.983523,13.085043 53.236328,15.734375 L 53.236328,32.5 C 56.983523,29.850666 60.500712,27.919978 63.789062,26.707031 67.077421,25.462163 70.402748,24.839844 73.767578,24.839844 77.361828,24.839844 82.124091,25.82762 88.050781,27.806641 88.624331,27.966239 89.04485,28.095647 89.3125,28.191406 89.50369,28.255246 89.807906,28.350837 90.228516,28.478516 95.811066,30.361779 100.70607,31.302734 104.91211,31.302734 108.62107,31.302734 112.17701,30.759096 115.58008,29.673828 119.02138,28.588556 122.74881,26.785325 126.76367,24.263672 L 126.76367,7.5 Z M 40,37.5 40,57.5 80,57.5 80,87.5 40,87.5 40,107.5 105,107.5 A 35,35 0 0 0 140,72.5 35,35 0 0 0 105,37.5 L 40,37.5 Z M 100,57.5 105,57.5 A 15,15 0 0 1 120,72.5 15,15 0 0 1 105,87.5 L 100,87.5 100,57.5 Z M 82.5,122.5 82.5,172.5 62.5,172.5 62.5,142.5 7.5,142.5 7.5,122.5 Z M 97.500001,172.5 97.500001,122.5 117.5,122.5 117.5,152.5 172.5,152.5 172.5,172.5 Z" id="dhau" style="font-style:normal;font-weight:normal;font-size:medium;line-height:125%;font-family:Sans;letter-spacing:0px;word-spacing:0px;display:inline;opacity:1;fill:#000000;fill-opacity:1;stroke:none;stroke-width:1px;stroke-linecap:butt;stroke-linejoin:miter;stroke-opacity:1" />
    </svg>