<svg xmlns="http://www.w3.org/2000/svg" xmlns:dc="http://purl.org/dc/elements/1.1/" xmlns:ns2="http://creativecommons.org/ns#" xmlns:rdf="http://www.w3.org/1999/02/22-rdf-syntax-ns#" height="180" id="svg4759" version="1.1" viewBox="0 0 180 180" width="180">
  <defs id="defs4761" />
  <metadata id="metadata4764">
    <rdf:RDF>
      <ns2:Work rdf:about="">
        <dc:format>image/svg+xml</dc:format>
        <dc:type rdf:resource="http://purl.org/dc/dcmitype/StillImage" />
        <dc:title />
      </ns2:Work>
    </rdf:RDF>
  </metadata>
  <path d="M 7.5,7.5 7.5,27.5 52.5,27.5 52.5,107.5 72.5,107.5 72.5,67.5 172.5,67.5 172.5,47.5 72.5,47.5 72.5,7.5 Z M 7.5,122.5 7.5,172.5 82.5,172.5 82.5,122.5 Z M 27.5,142.5 62.5,142.5 62.5,152.5 27.5,152.5 Z M 135,122.5 A 25,25 0 0 0 112.12109,137.5 L 97.5,137.5 97.5,157.5 112.09961,157.5 A 25,25 0 0 0 135,172.5 25,25 0 0 0 157.87891,157.5 L 172.5,157.5 172.5,137.5 157.90039,137.5 A 25,25 0 0 0 135,122.5 Z M 135,142.5 A 5,5 0 0 1 140,147.5 5,5 0 0 1 135,152.5 5,5 0 0 1 130,147.5 5,5 0 0 1 135,142.5 Z" id="feng" style="display:inline;opacity:1;fill:#000000;fill-opacity:1;fill-rule:nonzero;stroke:none;stroke-width:1;stroke-linecap:round;stroke-miterlimit:4;stroke-dasharray:none;stroke-dashoffset:0;stroke-opacity:1" />
    </svg>