<svg xmlns="http://www.w3.org/2000/svg" xmlns:dc="http://purl.org/dc/elements/1.1/" xmlns:ns2="http://creativecommons.org/ns#" xmlns:rdf="http://www.w3.org/1999/02/22-rdf-syntax-ns#" height="180" id="svg4759" version="1.1" viewBox="0 0 180 180" width="180">
  <defs id="defs4761" />
  <metadata id="metadata4764">
    <rdf:RDF>
      <ns2:Work rdf:about="">
        <dc:format>image/svg+xml</dc:format>
        <dc:type rdf:resource="http://purl.org/dc/dcmitype/StillImage" />
        <dc:title />
      </ns2:Work>
    </rdf:RDF>
  </metadata>
  <path d="M 126.76462,24.264363 C 122.74976,26.786016 119.02168,28.589478 115.58038,29.67475 112.17731,30.760018 108.62128,31.302651 104.91232,31.302651 100.70628,31.302651 95.811979,30.361023 90.229429,28.47776 89.808819,28.350081 89.502929,28.254321 89.311739,28.190481 89.044089,28.094722 88.623479,27.967046 88.049929,27.807448 82.123235,25.828427 77.362756,24.838917 73.768506,24.838917 70.403676,24.838917 67.077075,25.461351 63.788716,26.706219 60.500366,27.919166 56.982576,29.850303 53.235381,32.499637 L 53.235381,15.735274 C 56.982576,13.085942 60.500366,11.154803 63.788716,9.941857 67.077075,8.696988 70.403676,8.074554 73.768506,8.074554 77.362756,8.074554 82.123235,9.064065 88.049929,11.043086 88.623479,11.202682 89.044089,11.330359 89.311739,11.426119 89.502929,11.489959 89.808819,11.585718 90.229429,11.713398 95.811979,13.596658 100.70628,14.538286 104.91232,14.538286 108.62128,14.538286 112.17731,13.995654 115.58038,12.910385 119.02168,11.825116 122.74976,10.021654 126.76462,7.5 Z M 90,37.5 A 50,50 0 0 0 40,87.5 L 40,107.5 60,107.5 60,87.5 A 30,30 0 0 1 90,57.5 30,30 0 0 1 120,87.5 L 120,107.5 140,107.5 140,87.5 A 50,50 0 0 0 90,37.5 Z M 7.5,122.5 7.5,172.5 82.5,172.5 82.5,152.5 27.5,152.5 27.5,142.5 82.5,142.5 82.5,122.5 Z M 97.500001,172.5 97.500001,122.5 117.5,122.5 117.5,152.5 172.5,152.5 172.5,172.5 Z" id="shou" style="font-style:normal;font-weight:normal;font-size:medium;line-height:125%;font-family:Sans;letter-spacing:0px;word-spacing:0px;display:inline;opacity:1;fill:#000000;fill-opacity:1;stroke:none;stroke-width:1px;stroke-linecap:butt;stroke-linejoin:miter;stroke-opacity:1" />
    </svg>