<svg xmlns="http://www.w3.org/2000/svg" xmlns:dc="http://purl.org/dc/elements/1.1/" xmlns:ns2="http://creativecommons.org/ns#" xmlns:rdf="http://www.w3.org/1999/02/22-rdf-syntax-ns#" height="180" id="svg4759" version="1.1" viewBox="0 0 180 180" width="180">
  <defs id="defs4761" />
  <metadata id="metadata4764">
    <rdf:RDF>
      <ns2:Work rdf:about="">
        <dc:format>image/svg+xml</dc:format>
        <dc:type rdf:resource="http://purl.org/dc/dcmitype/StillImage" />
        <dc:title />
      </ns2:Work>
    </rdf:RDF>
  </metadata>
  <path d="M 126.76462,24.264363 C 122.74976,26.786016 119.02168,28.589478 115.58038,29.67475 112.17731,30.760018 108.62128,31.302651 104.91232,31.302651 100.70628,31.302651 95.811973,30.361023 90.229423,28.47776 89.808814,28.350081 89.502924,28.254321 89.311734,28.190481 89.044084,28.094722 88.623474,27.967046 88.049924,27.807448 82.123233,25.828427 77.362754,24.838917 73.768504,24.838917 70.403674,24.838917 67.077073,25.461351 63.788714,26.706219 60.500364,27.919166 56.982574,29.850303 53.235379,32.499637 L 53.235379,15.735274 C 56.982574,13.085942 60.500364,11.154803 63.788714,9.941857 67.077073,8.696988 70.403674,8.074554 73.768504,8.074554 77.362754,8.074554 82.123233,9.064065 88.049924,11.043086 88.623474,11.202682 89.044084,11.330359 89.311734,11.426119 89.502924,11.489959 89.808814,11.585718 90.229423,11.713398 95.811973,13.596658 100.70628,14.538286 104.91232,14.538286 108.62128,14.538286 112.17731,13.995654 115.58038,12.910385 119.02168,11.825116 122.74976,10.021654 126.76462,7.5 Z M 40,37.5 40,57.5 105,57.5 A 15,15 0 0 1 120,72.5 15,15 0 0 1 105,87.5 L 40,87.5 40,107.5 105,107.5 A 35,35 0 0 0 140,72.5 35,35 0 0 0 105,37.5 L 40,37.5 Z M 7.5,122.5 7.5,172.5 27.5,172.5 27.5,142.5 82.5,142.5 82.5,122.5 Z M 97.499999,122.5 97.499999,172.5 172.5,172.5 172.5,122.5 Z M 117.5,142.5 152.5,142.5 152.5,152.5 117.5,152.5 Z" id="th@e" style="font-style:normal;font-weight:normal;font-size:medium;line-height:125%;font-family:Sans;letter-spacing:0px;word-spacing:0px;display:inline;opacity:1;fill:#000000;fill-opacity:1;stroke:none;stroke-width:1px;stroke-linecap:butt;stroke-linejoin:miter;stroke-opacity:1" />
    </svg>