<svg xmlns="http://www.w3.org/2000/svg" xmlns:dc="http://purl.org/dc/elements/1.1/" xmlns:ns2="http://creativecommons.org/ns#" xmlns:rdf="http://www.w3.org/1999/02/22-rdf-syntax-ns#" height="180" id="svg4759" version="1.1" viewBox="0 0 180 180" width="180">
  <defs id="defs4761" />
  <metadata id="metadata4764">
    <rdf:RDF>
      <ns2:Work rdf:about="">
        <dc:format>image/svg+xml</dc:format>
        <dc:type rdf:resource="http://purl.org/dc/dcmitype/StillImage" />
        <dc:title />
      </ns2:Work>
    </rdf:RDF>
  </metadata>
  <path d="M 40,107.49999 90,107.49999 A 50,50 0 0 0 140,57.499998 50,50 0 0 0 90,7.5 L 40,7.5 40,27.5 90,27.5 A 30,30 0 0 1 120,57.499998 30,30 0 0 1 90,87.499994 L 40,87.499994 40,107.49999 Z M 90,122.5 A 50,50 0 0 0 44.240234,152.5 L 7.2109375,152.5 7.2109375,172.5 40,172.5 57.210938,172.5 60,172.5 A 30,30 0 0 1 90,142.5 30,30 0 0 1 120,172.5 L 122.5,172.5 140,172.5 172.5,172.5 172.5,152.5 135.79688,152.5 A 50,50 0 0 0 90,122.5 Z" id="ts" style="display:inline;opacity:1;fill:#000000;fill-opacity:1;fill-rule:nonzero;stroke:none;stroke-width:20;stroke-linecap:round;stroke-miterlimit:4;stroke-dasharray:none;stroke-dashoffset:0;stroke-opacity:1" />
    </svg>