<svg xmlns="http://www.w3.org/2000/svg" xmlns:dc="http://purl.org/dc/elements/1.1/" xmlns:ns2="http://creativecommons.org/ns#" xmlns:rdf="http://www.w3.org/1999/02/22-rdf-syntax-ns#" height="180" id="svg4759" version="1.1" viewBox="0 0 180 180" width="180">
  <defs id="defs4761" />
  <metadata id="metadata4764">
    <rdf:RDF>
      <ns2:Work rdf:about="">
        <dc:format>image/svg+xml</dc:format>
        <dc:type rdf:resource="http://purl.org/dc/dcmitype/StillImage" />
        <dc:title />
      </ns2:Work>
    </rdf:RDF>
  </metadata>
  <path d="M 7.5,7.5 7.5,27.5 52.5,27.5 52.5,107.5 72.5,107.5 72.5,87.5 172.5,87.5 172.5,67.5 72.5,67.5 72.5,47.5 172.5,47.5 172.5,27.5 72.5,27.5 72.5,7.5 Z M 7.5,122.5 7.5,172.5 82.5,172.5 82.5,122.5 Z M 27.5,142.5 62.5,142.5 62.5,152.5 27.5,152.5 Z M 172.5,122.5 172.5,172.5 97.5,172.5 97.5,152.5 152.5,152.5 152.5,142.5 97.5,142.5 97.5,122.5 Z" id="ve$" style="opacity:1;fill:#000000;fill-opacity:1;fill-rule:nonzero;stroke:none;stroke-width:1;stroke-linecap:round;stroke-miterlimit:4;stroke-dasharray:none;stroke-dashoffset:0;stroke-opacity:1" />
    </svg>