<svg xmlns="http://www.w3.org/2000/svg" xmlns:dc="http://purl.org/dc/elements/1.1/" xmlns:ns2="http://creativecommons.org/ns#" xmlns:rdf="http://www.w3.org/1999/02/22-rdf-syntax-ns#" height="180" id="svg4759" version="1.1" viewBox="0 0 180 180" width="180">
  <defs id="defs4761" />
  <metadata id="metadata4764">
    <rdf:RDF>
      <ns2:Work rdf:about="">
        <dc:format>image/svg+xml</dc:format>
        <dc:type rdf:resource="http://purl.org/dc/dcmitype/StillImage" />
        <dc:title />
      </ns2:Work>
    </rdf:RDF>
  </metadata>
  <path d="M 7.500001,107.5 A 72.5,100 0 0 0 80.000001,7.5 L 99.999999,7.5 A 72.5,100 0 0 0 172.5,107.5 L 121.49414,107.5 A 92.5,120 0 0 1 89.951173,61.607422 92.5,120 0 0 1 58.392579,107.5 L 7.500001,107.5 Z M 82.5,172.5 82.5,122.5 62.5,122.5 62.5,152.5 7.5,152.5 7.5,172.5 Z M 97.499999,122.5 97.499999,172.5 172.5,172.5 172.5,122.5 Z M 117.5,142.5 152.5,142.5 152.5,152.5 117.5,152.5 Z" id="wie" style="display:inline;opacity:1;fill:#000000;fill-opacity:1;fill-rule:nonzero;stroke:none;stroke-width:20;stroke-linecap:round;stroke-miterlimit:4;stroke-dasharray:none;stroke-dashoffset:0;stroke-opacity:1" />
    </svg>