<svg xmlns="http://www.w3.org/2000/svg" xmlns:dc="http://purl.org/dc/elements/1.1/" xmlns:ns2="http://creativecommons.org/ns#" xmlns:rdf="http://www.w3.org/1999/02/22-rdf-syntax-ns#" height="180" id="svg4759" version="1.1" viewBox="0 0 180 180" width="180">
  <defs id="defs4761" />
  <metadata id="metadata4764">
    <rdf:RDF>
      <ns2:Work rdf:about="">
        <dc:format>image/svg+xml</dc:format>
        <dc:type rdf:resource="http://purl.org/dc/dcmitype/StillImage" />
        <dc:title />
      </ns2:Work>
    </rdf:RDF>
  </metadata>
  <path d="M 7.5,7.5 A 72.5,100 0 0 1 80,107.5 L 100,107.5 A 72.5,100 0 0 1 172.5,7.5 L 121.49414,7.5 A 92.5,120 0 0 0 89.951172,53.392578 92.5,120 0 0 0 58.392578,7.5 L 7.5,7.5 Z M 7.5,122.5 7.5,172.5 82.5,172.5 82.5,152.5 27.5,152.5 27.5,142.5 82.5,142.5 82.5,122.5 Z M 172.5,122.5 172.5,172.5 152.5,172.5 152.5,142.5 97.500005,142.5 97.500005,122.5 Z" id="yoa" style="opacity:1;fill:#000000;fill-opacity:1;fill-rule:nonzero;stroke:none;stroke-width:20;stroke-linecap:round;stroke-miterlimit:4;stroke-dasharray:none;stroke-dashoffset:0;stroke-opacity:1" />
    </svg>