<svg xmlns="http://www.w3.org/2000/svg" xmlns:dc="http://purl.org/dc/elements/1.1/" xmlns:ns2="http://creativecommons.org/ns#" xmlns:rdf="http://www.w3.org/1999/02/22-rdf-syntax-ns#" height="180" id="svg4759" version="1.1" viewBox="0 0 180 180" width="180">
  <defs id="defs4761" />
  <metadata id="metadata4764">
    <rdf:RDF>
      <ns2:Work rdf:about="">
        <dc:format>image/svg+xml</dc:format>
        <dc:type rdf:resource="http://purl.org/dc/dcmitype/StillImage" />
        <dc:title />
      </ns2:Work>
    </rdf:RDF>
  </metadata>
  <path d="M 40,107.5 40,57.499999 A 50,50 0 0 1 90,7.500001 50,50 0 0 1 140,57.499999 L 140,107.5 120,107.5 120,57.499999 A 30,30 0 0 0 100,29.250001 L 100,107.5 80,107.5 80,29.253901 A 30,30 0 0 0 60,57.499999 L 60,107.5 40,107.5 Z M 7.5,122.5 7.5,172.5 27.5,172.5 27.5,142.5 62.5,142.5 62.5,172.5 82.5,172.5 82.5,122.5 Z M 135,122.5 A 37.5,37.5 0 0 0 97.5,160 L 97.5,172.5 117.5,172.5 117.5,160 A 17.5,17.5 0 0 1 135,142.5 17.5,17.5 0 0 1 152.5,160 L 152.5,172.5 172.5,172.5 172.5,160 172.34961,160 172.34961,156.99609 A 37.5,37.5 0 0 0 135,122.5 Z" id="z^s" style="display:inline;opacity:1;fill:#000000;fill-opacity:1;fill-rule:nonzero;stroke:none;stroke-width:20;stroke-linecap:round;stroke-miterlimit:4;stroke-dasharray:none;stroke-dashoffset:0;stroke-opacity:1" />
    </svg>