<?xml version="1.0" encoding="UTF-8" standalone="no"?>
<!-- Created with Inkscape (http://www.inkscape.org/) -->

<svg
   xmlns:dc="http://purl.org/dc/elements/1.1/"
   xmlns:cc="http://creativecommons.org/ns#"
   xmlns:rdf="http://www.w3.org/1999/02/22-rdf-syntax-ns#"
   xmlns:svg="http://www.w3.org/2000/svg"
   xmlns="http://www.w3.org/2000/svg"
   xmlns:sodipodi="http://sodipodi.sourceforge.net/DTD/sodipodi-0.dtd"
   xmlns:inkscape="http://www.inkscape.org/namespaces/inkscape"
   width="600"
   height="1000"
   viewBox="0 0 600 1000"
   id="svg2"
   version="1.1"
   inkscape:version="0.91 r13725"
   sodipodi:docname="KHS.svg"
   enable-background="new">
  <sodipodi:namedview
     id="base"
     pagecolor="#ffffff"
     bordercolor="#666666"
     borderopacity="1.0"
     inkscape:pageopacity="0.0"
     inkscape:pageshadow="2"
     inkscape:zoom="0.3245"
     inkscape:cx="128.89023"
     inkscape:cy="245.30772"
     inkscape:document-units="px"
     inkscape:current-layer="layer44"
     showgrid="false"
     inkscape:window-width="1440"
     inkscape:window-height="851"
     inkscape:window-x="0"
     inkscape:window-y="1"
     inkscape:window-maximized="1"
     showguides="true">
    <sodipodi:guide
       id="guide3573"
       inkscape:label="baseline"
       position="0,250"
       orientation="0,1" />
    <sodipodi:guide
       id="guide3575"
       inkscape:label="ascender"
       position="0,1000"
       orientation="0,1" />
    <sodipodi:guide
       id="guide3577"
       inkscape:label="caps"
       position="0,1000"
       orientation="0,1" />
    <sodipodi:guide
       id="guide3579"
       inkscape:label="xheight"
       position="0,750"
       orientation="0,1" />
    <sodipodi:guide
       id="guide3581"
       inkscape:label="descender"
       position="0,0"
       orientation="0,1" />
  </sodipodi:namedview>
  <defs
     id="defs4" />
  <metadata
     id="metadata7">
    <rdf:RDF>
      <cc:Work
         rdf:about="">
        <dc:format>image/svg+xml</dc:format>
        <dc:type
           rdf:resource="http://purl.org/dc/dcmitype/StillImage" />
        <dc:title />
      </cc:Work>
    </rdf:RDF>
  </metadata>
  <g
     inkscape:groupmode="layer"
     id="layer44"
     inkscape:label="KHS"
     style="display:inline">
    <path
       style="display:inline;opacity:1;fill:#000000;fill-rule:evenodd;stroke:none;stroke-width:0.99740547px;stroke-linecap:butt;stroke-linejoin:miter;stroke-opacity:1"
       d="M 50,62.044922 50,185.9375 a 375,250 0 0 0 200,61.72656 L 250,250 250,280.69922 250,650 l -200,0 0,100 200,0 50,0 50,0 200,0 0,-100 -200,0 0,-369.30078 0,-30.69922 0,-2.56836 A 375,250 0 0 0 550,185.98242 L 550,62.128906 A 275,150 0 0 1 300,150 275,150 0 0 1 50,62.044922 Z M 300,750 175,899.74414 175,1000 300,850.25586 425,1000 425,899.74414 300,750 Z"
       id="path3540"
       inkscape:connector-curvature="0" />
  </g>
</svg>
