<?xml version="1.0" encoding="UTF-8" standalone="no"?>
<!-- Created with Inkscape (http://www.inkscape.org/) -->

<svg
   xmlns:osb="http://www.openswatchbook.org/uri/2009/osb"
   xmlns:dc="http://purl.org/dc/elements/1.1/"
   xmlns:cc="http://creativecommons.org/ns#"
   xmlns:rdf="http://www.w3.org/1999/02/22-rdf-syntax-ns#"
   xmlns:svg="http://www.w3.org/2000/svg"
   xmlns="http://www.w3.org/2000/svg"
   xmlns:sodipodi="http://sodipodi.sourceforge.net/DTD/sodipodi-0.dtd"
   xmlns:inkscape="http://www.inkscape.org/namespaces/inkscape"
   inkscape:export-ydpi="375"
   inkscape:export-xdpi="375"
   inkscape:export-filename="/Users/gsoed/proj/protocard/example/assets/images/bot.png"
   width="45.646622mm"
   height="29.347725mm"
   viewBox="0 0 161.74 103.988"
   id="svg2"
   version="1.1"
   inkscape:version="0.91 r13725"
   sodipodi:docname="ether.svg">
  <sodipodi:namedview
     id="base"
     pagecolor="#ffffff"
     bordercolor="#666666"
     borderopacity="1.0"
     inkscape:pageopacity="0"
     inkscape:pageshadow="2"
     inkscape:zoom="4.0926943"
     inkscape:cx="5.6933074"
     inkscape:cy="52.835"
     inkscape:document-units="px"
     inkscape:current-layer="layer11"
     showgrid="false"
     inkscape:window-width="1440"
     inkscape:window-height="851"
     inkscape:window-x="0"
     inkscape:window-y="1"
     inkscape:window-maximized="1"
     fit-margin-top="0"
     fit-margin-left="0"
     fit-margin-right="0"
     fit-margin-bottom="0" />
  <defs
     id="defs4">
    <inkscape:path-effect
       effect="envelope"
       id="path-effect6426"
       is_visible="true"
       yy="true"
       xx="true"
       bendpath1="m 54.842329,69.803077 c 8.015039,4.342378 15.669314,5.704547 26.446662,5.822497 10.697514,-0.02787 20.407919,-1.300352 27.293169,-6.134997"
       bendpath2="m 108.83216,69.490577 0.9375,5.706789"
       bendpath3="m 53.967329,75.322366 c 18.616361,8.986824 46.976261,7.350771 55.552331,-0.125"
       bendpath4="m 54.654829,69.803077 -0.8125,5.269289"
       bendpath1-nodetypes="ccc"
       bendpath3-nodetypes="cc"
       bendpath2-nodetypes="cc"
       bendpath4-nodetypes="cc" />
    <inkscape:path-effect
       effect="skeletal"
       id="path-effect6394"
       is_visible="true"
       pattern="m 30.120767,-135.25627 a 10,10 0 0 1 -10,10 10,10 0 0 1 -10,-10 10,10 0 0 1 10,-10 10,10 0 0 1 10,10 z m 21.49324,-4.62466 4.01952,-0.59025 2.35764,0.22918 6.64917,3.01 0,3.95146 -6.64917,3.01 -2.35764,0.22918 -4.01952,-0.59025 -1.90696,7.11689 3.77613,1.49858 1.92719,1.3773 4.25334,5.93132 -1.97573,3.42207 -7.26334,-0.71785 -2.15637,-0.98034 -3.18588,-2.52093 -5.20992,5.20992 2.52093,3.18588 0.98034,2.15637 0.71785,7.26334 -3.42207,1.97573 -5.93132,-4.25334 -1.3773,-1.92719 -1.49858,-3.77613 -7.11689,1.90696 0.59025,4.01952 -0.22918,2.35764 -3.01,6.64917 -3.95146,0 -3.01,-6.64917 -0.22918,-2.35764 0.59025,-4.01952 -7.1168895,-1.90696 -1.49858,3.77613 -1.3773,1.92719 -5.93132001,4.25334 -3.42206999,-1.97573 0.71785,-7.26334 0.98034,-2.15637 2.52092999,-3.18588 -5.20991999,-5.20992 -3.18588,2.52093 -2.1563705,0.98034 -7.26334,0.71785 -1.97573,-3.42207 4.25334,-5.93132 1.92719,-1.3773 3.7761305,-1.49858 -1.9069605,-7.11689 -4.01952,0.59025 -2.35764,-0.22918 -6.64917,-3.01 0,-3.95146 6.64917,-3.01 2.35764,-0.22918 4.01952,0.59025 1.9069605,-7.11689 -3.7761305,-1.49858 -1.92719,-1.3773 -4.25334,-5.93132 1.97573,-3.42207 7.26334,0.71785 2.1563705,0.98034 3.18588,2.52093 5.20991999,-5.20992 -2.52092999,-3.18588 -0.98034,-2.15637 -0.71785,-7.26334 3.42206999,-1.97573 5.93132001,4.25334 1.3773,1.92719 1.49858,3.77613 7.1168895,-1.90696 -0.59025,-4.01952 0.22918,-2.35764 3.01,-6.64917 3.95146,0 3.01,6.64917 0.22918,2.35764 -0.59025,4.01952 7.11689,1.90696 1.49858,-3.77613 1.3773,-1.92719 5.93132,-4.25334 3.42207,1.97573 -0.71785,7.26334 -0.98034,2.15637 -2.52093,3.18588 5.20992,5.20992 3.18588,-2.52093 2.15637,-0.98034 7.26334,-0.71785 1.97573,3.42207 -4.25334,5.93132 -1.92719,1.3773 -3.77613,1.49858 z m 43.670023,2.03647 a 9.9999997,9.9999997 0 0 0 7.07107,12.24745 9.9999997,9.9999997 0 0 0 12.24745,-7.07107 9.9999997,9.9999997 0 0 0 -7.07107,-12.24745 9.9999997,9.9999997 0 0 0 -12.24745,7.07107 z m -19.563925,-10.02994 -3.72979,-1.61047 -2.336622,-0.38883 -7.20165,1.18651 -1.022713,3.81681 5.643559,4.62837 2.21799,0.83158 4.035326,0.47019 -5e-6,7.36794 -4.035323,0.47018 -2.217994,0.83158 -5.643549,4.62837 1.022711,3.81682 7.201641,1.1865 2.336624,-0.38882 3.729788,-1.61047 3.68397,6.38083 -3.259598,2.42485 -1.505045,1.82917 -2.573281,6.83005 2.794109,2.79411 6.830061,-2.57328 1.829163,-1.50505 2.424851,-3.2596 6.38083,3.68397 -1.610466,3.72979 -0.388831,2.336624 1.186504,7.20165 3.816818,1.022714 4.628368,-5.64356 0.831569,-2.217989 0.4702,-4.035329 7.36794,1e-5 0.47018,4.03532 0.83158,2.217994 4.62837,5.64355 3.81682,-1.022712 1.1865,-7.20164 -0.38882,-2.336622 -1.61047,-3.72979 6.38083,-3.68397 2.42486,3.2596 1.82916,1.50504 6.83005,2.57328 2.79411,-2.79411 -2.57327,-6.83006 -1.50506,-1.82916 -3.2596,-2.42485 3.68397,-6.38083 3.72979,1.61046 2.33662,0.38884 7.20165,-1.18651 1.02272,-3.81682 -5.64356,-4.62836 -2.21799,-0.83158 -4.03533,-0.47019 1e-5,-7.36794 4.03532,-0.47019 2.21799,-0.83157 5.64355,-4.62837 -1.02271,-3.81682 -7.20164,-1.1865 -2.33662,0.38882 -3.72979,1.61047 -3.68397,-6.38083 3.2596,-2.42486 1.50504,-1.82916 2.57328,-6.83005 -2.79411,-2.79411 -6.83006,2.57327 -1.82916,1.50506 -2.42485,3.2596 -6.38083,-3.68397 1.61046,-3.72979 0.38883,-2.33662 -1.1865,-7.20165 -3.81682,-1.02272 -4.62837,5.64356 -0.83157,2.21799 -0.47019,4.03533 -7.36794,-1e-5 -0.47019,-4.03532 -0.831574,-2.21799 -4.628369,-5.64355 -3.816823,1.02271 -1.186501,7.20164 0.388826,2.33662 1.610465,3.72979 -6.380823,3.68397 -2.424858,-3.2596 -1.829163,-1.50504 -6.830054,-2.57328 -2.794106,2.79411 2.573272,6.83006 1.505051,1.82916 3.259601,2.42485 z m 104.045705,12.61813 a 10,10 0 0 0 10,10 10,10 0 0 0 10,-10 10,10 0 0 0 -10,-10 10,10 0 0 0 -10,10 z m -21.49324,-4.62466 -4.01952,-0.59025 -2.35764,0.22918 -6.64917,3.01 0,3.95146 6.64917,3.01 2.35764,0.22918 4.01952,-0.59025 1.90696,7.11689 -3.77613,1.49858 -1.92719,1.3773 -4.25334,5.93132 1.97573,3.42207 7.26334,-0.71785 2.15637,-0.98034 3.18588,-2.52093 5.20992,5.20992 -2.52093,3.18588 -0.98034,2.15637 -0.71785,7.26334 3.42207,1.97573 5.93132,-4.25334 1.3773,-1.92719 1.49858,-3.77613 7.11689,1.90696 -0.59025,4.01952 0.22918,2.35764 3.01,6.64917 3.95146,0 3.01,-6.64917 0.22918,-2.35764 -0.59025,-4.01952 7.11689,-1.90696 1.49858,3.77613 1.3773,1.92719 5.93132,4.25334 3.42207,-1.97573 -0.71785,-7.26334 -0.98034,-2.15637 -2.52093,-3.18588 5.20992,-5.20992 3.18588,2.52093 2.15637,0.98034 7.26334,0.71785 1.97573,-3.42207 -4.25334,-5.93132 -1.92719,-1.3773 -3.77613,-1.49858 1.90696,-7.11689 4.01952,0.59025 2.35764,-0.22918 6.64917,-3.01 0,-3.95146 -6.64917,-3.01 -2.35764,-0.22918 -4.01952,0.59025 -1.90696,-7.11689 3.77613,-1.49858 1.92719,-1.3773 4.25334,-5.93132 -1.97573,-3.42207 -7.26334,0.71785 -2.15637,0.98034 -3.18588,2.52093 -5.20992,-5.20992 2.52093,-3.18588 0.98034,-2.15637 0.71785,-7.26334 -3.42207,-1.97573 -5.93132,4.25334 -1.3773,1.92719 -1.49858,3.77613 -7.11689,-1.90696 0.59025,-4.01952 -0.22918,-2.35764 -3.01,-6.64917 -3.95146,0 -3.01,6.64917 -0.22918,2.35764 0.59025,4.01952 -7.11689,1.90696 -1.49858,-3.77613 -1.3773,-1.92719 -5.93132,-4.25334 -3.42207,1.97573 0.71785,7.26334 0.98034,2.15637 2.52093,3.18588 -5.20992,5.20992 -3.18588,-2.52093 -2.15637,-0.98034 -7.26334,-0.71785 -1.97573,3.42207 4.25334,5.93132 1.92719,1.3773 3.77613,1.49858 z"
       copytype="single_stretched"
       prop_scale="1"
       scale_y_rel="false"
       spacing="0"
       normal_offset="0"
       tang_offset="0"
       prop_units="false"
       vertical_pattern="false"
       fuse_tolerance="0" />
    <inkscape:path-effect
       effect="gears"
       id="path-effect6357"
       is_visible="true"
       teeth="10"
       phi="5" />
    <inkscape:path-effect
       effect="envelope"
       id="path-effect6000"
       is_visible="true"
       yy="true"
       xx="true"
       bendpath1="M 0,0 93.64,0"
       bendpath2="m 93.64,0 0,10"
       bendpath3="m 0,10 93.64,0"
       bendpath4="M 0,0 0,10" />
    <inkscape:path-effect
       effect="spiro"
       id="path-effect5350"
       is_visible="true" />
    <inkscape:path-effect
       effect="skeletal"
       id="path-effect5215"
       is_visible="true"
       pattern="m 81.777126,33.487546 a 2.2904358,2.2904358 0 0 0 -2.29101,2.29101 2.2904358,2.2904358 0 0 0 2.29101,2.29102 2.2904358,2.2904358 0 0 0 2.29102,-2.29102 2.2904358,2.2904358 0 0 0 -2.29102,-2.29101 z m -10.57226,-1.23242 a 2.2904358,2.2904358 0 0 0 -2.28907,2.29101 2.2904358,2.2904358 0 0 0 2.28907,2.28906 2.2904358,2.2904358 0 0 0 2.29101,-2.28906 2.2904358,2.2904358 0 0 0 -2.29101,-2.29101 z m -24.48828,-1.05664 a 2.2904358,2.2904358 0 0 0 -2.29102,2.28906 2.2904358,2.2904358 0 0 0 2.29102,2.29101 2.2904358,2.2904358 0 0 0 2.28906,-2.29101 2.2904358,2.2904358 0 0 0 -2.28906,-2.28906 z m -18.34961,-1.24805 a 2.2904358,2.2904358 0 0 0 -2.29102,2.29101 2.2904358,2.2904358 0 0 0 2.29102,2.29102 2.2904358,2.2904358 0 0 0 2.28906,-2.29102 2.2904358,2.2904358 0 0 0 -2.28906,-2.29101 z m 58.87109,-1.04297 a 2.2904358,2.2904358 0 0 0 -2.28906,2.29102 2.2904358,2.2904358 0 0 0 2.28906,2.28906 2.2904358,2.2904358 0 0 0 2.29102,-2.28906 2.2904358,2.2904358 0 0 0 -2.29102,-2.29102 z m -74.023439,-0.18945 a 2.2904358,2.2904358 0 0 0 -2.291011,2.28906 2.2904358,2.2904358 0 0 0 2.291011,2.29102 2.2904358,2.2904358 0 0 0 2.28907,-2.29102 2.2904358,2.2904358 0 0 0 -2.28907,-2.28906 z m 61.162109,-0.16211 a 2.2904358,2.2904358 0 0 0 -2.29101,2.28906 2.2904358,2.2904358 0 0 0 2.29101,2.29102 2.2904358,2.2904358 0 0 0 2.29102,-2.29102 2.2904358,2.2904358 0 0 0 -2.29102,-2.28906 z m 19.91016,-1.0586 a 2.2904358,2.2904358 0 0 0 -2.29102,2.29102 2.2904358,2.2904358 0 0 0 2.29102,2.29102 2.2904358,2.2904358 0 0 0 2.28906,-2.29102 2.2904358,2.2904358 0 0 0 -2.28906,-2.29102 z m -42.10938,-0.88086 a 2.2904358,2.2904358 0 0 0 -2.29101,2.29102 2.2904358,2.2904358 0 0 0 2.08398,2.28125 2.2904358,2.2904358 0 0 0 -1.40429,2.10938 2.2904358,2.2904358 0 0 0 2.28906,2.29101 2.2904358,2.2904358 0 0 0 2.29101,-2.29101 2.2904358,2.2904358 0 0 0 -2.08398,-2.28125 2.2904358,2.2904358 0 0 0 1.40625,-2.10938 2.2904358,2.2904358 0 0 0 -2.29102,-2.29102 z m 17.61914,-0.17578 a 2.2904358,2.2904358 0 0 0 -2.29101,2.29102 2.2904358,2.2904358 0 0 0 2.29101,2.29101 2.2904358,2.2904358 0 0 0 2.28907,-2.29101 2.2904358,2.2904358 0 0 0 -2.28907,-2.29102 z m -30.48046,-0.17578 a 2.2904358,2.2904358 0 0 0 -2.29102,2.29102 2.2904358,2.2904358 0 0 0 2.29102,2.28906 2.2904358,2.2904358 0 0 0 2.29101,-2.28906 2.2904358,2.2904358 0 0 0 -2.29101,-2.29102 z m -5.48829,-0.89453 a 2.2904358,2.2904358 0 0 0 -2.29101,2.29102 2.2904358,2.2904358 0 0 0 2.29101,2.28906 2.2904358,2.2904358 0 0 0 2.29102,-2.28906 2.2904358,2.2904358 0 0 0 -2.29102,-2.29102 z m -12.86132,-0.35351 a 2.2904358,2.2904358 0 0 0 -2.291019,2.29101 2.2904358,2.2904358 0 0 0 2.291019,2.29102 2.2904358,2.2904358 0 0 0 2.28906,-2.29102 2.2904358,2.2904358 0 0 0 -2.28906,-2.29101 z m 54.29101,-3.15625 a 2.2904358,2.2904358 0 0 0 -2.28906,2.28906 2.2904358,2.2904358 0 0 0 2.28906,2.29101 2.2904358,2.2904358 0 0 0 2.29102,-2.29101 2.2904358,2.2904358 0 0 0 -2.29102,-2.28906 z m -12.86133,-0.35352 a 2.2904358,2.2904358 0 0 0 -2.29101,2.29102 2.2904358,2.2904358 0 0 0 2.29101,2.29101 2.2904358,2.2904358 0 0 0 2.29102,-2.29101 2.2904358,2.2904358 0 0 0 -2.29102,-2.29102 z m 50.626964,-3.18359 a 13.478333,14.094989 0 0 0 -13.476574,14.09375 13.478333,14.094989 0 0 0 13.476574,14.0957 13.478333,14.094989 0 0 0 13.47851,-14.0957 13.478333,14.094989 0 0 0 -13.47851,-14.09375 z"
       copytype="single"
       prop_scale="1"
       scale_y_rel="false"
       spacing="0"
       normal_offset="0"
       tang_offset="0"
       prop_units="false"
       vertical_pattern="false"
       fuse_tolerance="0" />
    <inkscape:path-effect
       effect="skeletal"
       id="path-effect5082"
       is_visible="true"
       pattern="m 116.98841,12.15693 c 0,6.366398 -5.79053,12.15693 -12.15693,12.15693 -0.73057,0 -1.45996,-0.05625 -2.18891,-0.104919 -1.2973,-0.08661 -2.59339,-0.190435 -3.889151,-0.297607 -3.975869,-0.328843 -7.948399,-0.696825 -11.920317,-1.070376 -2e-6,-1e-6 -4e-6,-1e-6 -7e-6,-1e-6 -11.23742,-1.056859 -22.468331,-2.181833 -33.697696,-3.321093 -11.354801,-1.151986 -22.707523,-2.324529 -34.057526,-3.52286 -2e-6,-1e-6 -4e-6,-1e-6 -7e-6,-1e-6 C 14.953917,15.561597 10.830269,15.12328 6.707762,14.674418 4.470907,14.430868 2.2327967,14.197109 0,13.9188 c 0.8441546,-0.07076 1.6852232,-0.174176 2.5262477,-0.275578 1.3949045,-0.168184 2.7883869,-0.347959 4.1815143,-0.530279 4.1e-6,-10e-7 8.2e-6,-10e-7 1.23e-5,-2e-6 4.1257847,-0.539946 8.2481317,-1.105822 12.3700857,-1.674267 4e-6,-1e-6 9e-6,-1e-6 1.3e-5,-2e-6 11.354951,-1.5659239 22.705079,-3.1665966 34.057513,-4.7506615 5e-6,-6e-7 9e-6,-1.2e-6 1.3e-5,-1.8e-6 C 64.364053,5.1212155 75.592932,3.5550143 86.833095,2.0730408 90.803737,1.5495266 94.77537,1.0322657 98.753419,0.56839002 c 5e-6,-4.5e-7 9e-6,-8.9e-7 1.3e-5,-1.34e-6 C 100.0486,0.41736067 101.34439,0.27083 102.64257,0.14836373 103.37084,0.0796608 104.09997,0 104.83148,0 c 6.3664,0 12.15693,5.7905318 12.15693,12.15693 z"
       copytype="single_stretched"
       prop_scale="1"
       scale_y_rel="false"
       spacing="0"
       normal_offset="0"
       tang_offset="0"
       prop_units="false"
       vertical_pattern="false"
       fuse_tolerance="0" />
    <inkscape:path-effect
       effect="skeletal"
       id="path-effect5070"
       is_visible="true"
       pattern="M 0,0 1,0"
       copytype="single_stretched"
       prop_scale="1"
       scale_y_rel="false"
       spacing="0"
       normal_offset="0"
       tang_offset="0"
       prop_units="false"
       vertical_pattern="false"
       fuse_tolerance="0" />
    <filter
       style="color-interpolation-filters:sRGB"
       inkscape:label="Drop Shadow"
       id="filter4882">
      <feFlood
         flood-opacity="0.498039"
         flood-color="rgb(0,0,0)"
         result="flood"
         id="feFlood4884" />
      <feComposite
         in="flood"
         in2="SourceGraphic"
         operator="in"
         result="composite1"
         id="feComposite4886" />
      <feGaussianBlur
         in="composite1"
         stdDeviation="0.5"
         result="blur"
         id="feGaussianBlur4888" />
      <feOffset
         dx="1"
         dy="1"
         result="offset"
         id="feOffset4890" />
      <feComposite
         in="SourceGraphic"
         in2="offset"
         operator="over"
         result="composite2"
         id="feComposite4892" />
    </filter>
    <linearGradient
       id="linearGradient6920"
       osb:paint="solid">
      <stop
         style="stop-color:#5a2ca0;stop-opacity:1;"
         offset="0"
         id="stop6922" />
    </linearGradient>
    <filter
       inkscape:collect="always"
       style="color-interpolation-filters:sRGB"
       id="filter6625"
       x="-0.059551873"
       width="1.1191037"
       y="-0.060454923"
       height="1.1209098">
      <feGaussianBlur
         inkscape:collect="always"
         stdDeviation="1.1573284"
         id="feGaussianBlur6627" />
    </filter>
    <filter
       inkscape:collect="always"
       style="color-interpolation-filters:sRGB"
       id="filter9124"
       x="-0.24734475"
       width="1.4946895"
       y="-0.44635776"
       height="1.8927155">
      <feGaussianBlur
         inkscape:collect="always"
         stdDeviation="1.0112793"
         id="feGaussianBlur9126" />
    </filter>
    <filter
       inkscape:collect="always"
       style="color-interpolation-filters:sRGB"
       id="filter9128"
       x="-0.1516919"
       width="1.3033838"
       y="-0.29643607"
       height="1.5928721">
      <feGaussianBlur
         inkscape:collect="always"
         stdDeviation="1.0112793"
         id="feGaussianBlur9130" />
    </filter>
    <filter
       inkscape:collect="always"
       style="color-interpolation-filters:sRGB"
       id="filter9132"
       x="-0.11354715"
       width="1.2270943"
       y="-0.21885523"
       height="1.4377105">
      <feGaussianBlur
         inkscape:collect="always"
         stdDeviation="1.0112793"
         id="feGaussianBlur9134" />
    </filter>
    <linearGradient
       id="linearGradient5358"
       osb:paint="solid"
       gradientTransform="matrix(-1.5095636e-8,-1.9908459e-6,1.9784986e-6,1.603201e-6,-136.61482,-165.20943)">
      <stop
         style="stop-color:#cccccc;stop-opacity:1;"
         offset="0"
         id="stop5360" />
    </linearGradient>
    <clipPath
       clipPathUnits="userSpaceOnUse"
       id="clipPath9159">
      <path
         sodipodi:nodetypes="szsccs"
         inkscape:connector-curvature="0"
         id="path9161"
         d="M 94.442879,66.14901 C 93.716544,69.445594 83.271025,72.160814 79.748765,72.261147 76.226506,72.36148 67.075704,69.411067 66.207233,66.14901 L 59.070868,39.344186 c 8.99829,6.397017 32.72924,6.668443 41.260302,0.07995 z"
         style="opacity:1;fill:#5a2ca0;fill-opacity:1;stroke:none;stroke-width:1;stroke-miterlimit:4;stroke-dasharray:none;stroke-opacity:1" />
    </clipPath>
    <clipPath
       clipPathUnits="userSpaceOnUse"
       id="clipPath9170">
      <path
         sodipodi:type="inkscape:offset"
         inkscape:radius="-1.06066"
         inkscape:original="M 66.189453 21.001953 L 66.189453 32.332031 L 82.498047 39.583984 L 82.498047 24.605469 L 66.189453 21.001953 z "
         style="opacity:1;fill:#aa87de;fill-opacity:1;stroke:none;stroke-width:1;stroke-miterlimit:4;stroke-dasharray:none;stroke-opacity:1"
         id="path9172"
         d="m 67.25,22.322266 0,9.320312 14.1875,6.308594 0,-12.494141 L 67.25,22.322266 Z" />
    </clipPath>
    <filter
       inkscape:collect="always"
       style="color-interpolation-filters:sRGB"
       id="filter9906"
       x="-0.16075147"
       width="1.3215029"
       y="-0.09573149"
       height="1.191463">
      <feGaussianBlur
         inkscape:collect="always"
         stdDeviation="0.33124392"
         id="feGaussianBlur9908" />
    </filter>
    <clipPath
       clipPathUnits="userSpaceOnUse"
       id="clipPath10515">
      <path
         sodipodi:nodetypes="cccccccccscccccc"
         inkscape:connector-curvature="0"
         d="m 253.99973,183.47384 c -0.11408,-1.94929 -0.48124,-3.01987 -0.58766,-3.17773 -0.33881,-0.35015 -0.62707,-0.57334 -1.12156,-0.82197 -1.02685,-0.51628 -1.99596,-1.52653 -2.3276,-2.59007 -0.20293,-0.65073 -0.26858,-1.33554 -0.31118,-1.87825 -1.30578,0.16845 -2.9934,-0.0814 -4.45564,0.005 -0.10105,1.65445 -0.24132,3.16479 -1.3568,4.18299 -0.33288,0.30375 -0.44875,0.33997 -0.65439,0.46204 -0.20565,0.12207 -0.42963,0.24402 -0.6632,0.35849 -1.00312,0.4916 -1.13479,0.66292 -1.36097,1.67977 -0.11117,0.49977 -0.2816,2.13455 -0.28167,2.99721 l 0.0402,0.69272 c 1.44989,0.0821 3.05488,0.12114 5.35105,0.15122 3.78724,0.0199 4.16691,-0.15947 7.27218,-0.15364 0.002,-9e-5 0.003,1e-4 0.005,0 0.83141,-0.15313 0.47341,-1.04712 0.45223,-1.90741 z"
         style="fill:#442178;stroke:none;stroke-width:0.6555202"
         id="path10517" />
    </clipPath>
    <filter
       style="color-interpolation-filters:sRGB"
       inkscape:label="Drop Shadow"
       id="filter4882-9">
      <feFlood
         flood-opacity="0.498039"
         flood-color="rgb(0,0,0)"
         result="flood"
         id="feFlood4884-5" />
      <feComposite
         in="flood"
         in2="SourceGraphic"
         operator="in"
         result="composite1"
         id="feComposite4886-2" />
      <feGaussianBlur
         in="composite1"
         stdDeviation="0.5"
         result="blur"
         id="feGaussianBlur4888-6" />
      <feOffset
         dx="1"
         dy="1"
         result="offset"
         id="feOffset4890-3" />
      <feComposite
         in="SourceGraphic"
         in2="offset"
         operator="over"
         result="composite2"
         id="feComposite4892-8" />
    </filter>
  </defs>
  <metadata
     id="metadata7">
    <rdf:RDF>
      <cc:Work
         rdf:about="">
        <dc:format>image/svg+xml</dc:format>
        <dc:type
           rdf:resource="http://purl.org/dc/dcmitype/StillImage" />
        <dc:title />
      </cc:Work>
    </rdf:RDF>
  </metadata>
  <g
     inkscape:label="Background"
     inkscape:groupmode="layer"
     id="layer1"
     style="display:none"
     transform="translate(-166.52356,-106.01711)"
     sodipodi:insensitive="true">
    <path
       sodipodi:nodetypes="sssssssss"
       style="display:inline;fill:#c6afe9;stroke:none;stroke-dasharray:1.44"
       inkscape:connector-curvature="0"
       d="m 166.57124,109.91711 c 0,-2.156 1.714,-3.9 3.828,-3.9 l 154.084,0 c 2.114,0 3.828,1.744 3.828,3.9 l 0,96.188 c 0,2.154 -1.714,3.9 -3.828,3.9 l -154.084,0 c -2.114,0 -3.828,-1.746 -3.828,-3.9 z"
       id="path11134" />
  </g>
  <g
     inkscape:groupmode="layer"
     id="layer2"
     inkscape:label="Energy Orb"
     transform="translate(-166.52356,-106.01711)"
     style="display:inline"
     sodipodi:insensitive="true">
    <path
       inkscape:connector-curvature="0"
       id="path10069"
       d="m 269.13296,168.80489 -8e-5,3e-5"
       style="fill:#8d5fd3;stroke:#cc00ff;stroke-width:0.6555202" />
    <g
       inkscape:groupmode="layer"
       id="layer4"
       inkscape:label="Orb"
       style="display:inline">
      <circle
         style="display:inline;opacity:1;fill:#000000;fill-opacity:1;stroke:none;stroke-width:1;stroke-miterlimit:4;stroke-dasharray:none;stroke-opacity:1"
         id="path6356"
         cx="247.39357"
         cy="147.45131"
         r="27.5" />
      <g
         style="display:inline"
         id="g5505"
         transform="translate(1.47616,-6.41555)">
        <circle
           r="25"
           cy="153.86687"
           cx="245.9174"
           id="path6279"
           style="opacity:1;fill:#ffcc00;fill-opacity:1;stroke:none;stroke-width:1;stroke-miterlimit:4;stroke-dasharray:none;stroke-opacity:1" />
        <path
           id="circle6332"
           d="m 245.91749,128.86705 a 25,25 0 0 0 -12.46782,3.36645 25,25 0 0 0 -5.01698,14.97236 25,25 0 0 0 24.99972,24.99971 25,25 0 0 0 12.46782,-3.36645 25,25 0 0 0 5.01699,-14.97235 25,25 0 0 0 -24.99973,-24.99972 z"
           style="opacity:1;fill:#ffe680;fill-opacity:1;stroke:none;stroke-width:1;stroke-miterlimit:4;stroke-dasharray:none;stroke-opacity:1"
           inkscape:connector-curvature="0" />
        <path
           sodipodi:nodetypes="csccc"
           inkscape:connector-curvature="0"
           d="m 248.76874,133.08275 c 0,0 0.62441,-2.32263 2.69528,-1.35642 5.62021,2.62224 13.30482,6.85097 16.64635,20.03499 l -1.80931,-0.30942 c -5.86242,-15.81878 -15.40963,-17.28263 -17.53232,-18.36915 z"
           id="path6340"
           style="opacity:1;fill:#ffffff;fill-opacity:1;stroke:none;stroke-width:1;stroke-miterlimit:4;stroke-dasharray:none;stroke-opacity:1" />
      </g>
    </g>
    <g
       inkscape:groupmode="layer"
       id="layer6"
       inkscape:label="Pedestal"
       style="display:inline">
      <path
         sodipodi:type="inkscape:offset"
         inkscape:radius="1.9658731"
         inkscape:original="M 224.10156 174.70117 L 223.66797 174.92773 C 223.43 175.05259 223.11904 175.27026 222.97656 175.41016 C 222.73888 175.64354 222.71069 175.74075 222.63477 176.59375 C 222.5034 178.06957 222.21032 178.99283 221.73828 179.42383 C 221.62229 179.52977 221.22943 179.76097 220.86523 179.93945 C 219.50414 180.60649 218.80507 181.48112 218.48633 182.91406 C 218.30972 183.70802 218.15829 185.27864 218.1582 186.32422 C 218.1581 187.28266 218.2849 187.51848 219.17383 188.23633 C 221.88772 190.4279 226.97817 192.0269 234.09961 192.92773 C 238.13568 193.43828 240.0079 193.55905 245.04297 193.625 C 248.96664 193.6464 249.2747 193.45755 252.43555 193.46875 C 262.34384 192.95963 270.67739 190.76608 273.58594 187.90234 C 274.22704 187.27112 274.27786 187.06546 274.18555 185.48828 C 274.06394 183.41028 273.77585 182.09884 273.27734 181.35938 C 272.96287 180.89292 272.1922 180.28376 271.43359 179.90234 C 270.63288 179.49975 270.27735 179.11984 270.06641 178.44336 C 269.88116 177.84931 269.73329 176.93255 269.73242 176.37305 C 269.73176 175.81018 269.55318 175.48213 269.0625 175.14453 C 268.40742 174.69382 268.27242 174.70215 267.16406 175.25781 C 262.7054 177.49332 256.73263 178.91559 249.875 179.37305 C 247.8501 179.50812 242.51719 179.42895 240.62109 179.23633 C 236.05489 178.77255 232.69265 178.08304 229.12109 176.87695 C 228.23582 176.57801 226.40378 175.85711 226.07812 175.67969 C 225.99752 175.63569 225.5189 175.39753 225.01562 175.15039 L 224.10156 174.70117 z "
         style="display:inline;fill:#000000;stroke:none"
         id="path5561"
         d="m 224.01562,172.73633 a 1.9660697,1.9660697 0 0 0 -0.82421,0.22265 l -0.4336,0.22657 a 1.9660697,1.9660697 0 0 0 -0.004,0.002 c -0.44643,0.23424 -0.71889,0.39279 -1.1543,0.82031 -0.18848,0.18507 -0.60858,0.74752 -0.74414,1.2168 -0.13556,0.46928 -0.14041,0.75398 -0.17969,1.19531 -0.11489,1.29074 -0.52476,1.79113 -0.26367,1.55274 0.23224,-0.21213 0.0937,-0.0762 -0.0156,-0.0117 -0.10936,0.0645 -0.26477,0.14834 -0.39648,0.21289 -1.73202,0.84882 -3.01938,2.45036 -3.43359,4.3125 -0.24422,1.09787 -0.3749,2.60267 -0.375,3.83789 -6e-5,0.56593 0.0363,1.27321 0.40625,1.96875 0.36994,0.69554 0.85101,1.07633 1.34179,1.47265 3.28509,2.65284 8.62099,4.19075 15.91407,5.11329 4.07287,0.5152 6.10394,0.64466 11.16406,0.71093 a 1.9660697,1.9660697 0 0 0 0.0156,0.002 c 3.98731,0.0217 4.31244,-0.16717 7.39453,-0.15625 a 1.9660697,1.9660697 0 0 0 0.10938,-0.004 c 5.07044,-0.26053 9.74539,-0.94849 13.59961,-1.96289 3.85421,-1.0144 6.8838,-2.25165 8.82812,-4.16602 0.37811,-0.37227 0.91227,-1.00899 1.10352,-1.77929 0.19125,-0.7703 0.12775,-1.33582 0.0801,-2.15039 -0.12937,-2.21061 -0.33574,-3.77161 -1.24024,-5.11328 -0.70319,-1.04307 -1.56007,-1.59455 -2.59179,-2.11329 -0.56592,-0.28453 -0.28672,-0.0122 -0.37305,-0.28906 -0.10251,-0.32871 -0.24344,-1.26828 -0.24414,-1.48633 l 0,-0.002 c -0.002,-0.97761 -0.72483,-2.29563 -1.52149,-2.84375 -0.38415,-0.2643 -1.12976,-0.71681 -2.01171,-0.66406 -0.88196,0.0527 -1.30357,0.34827 -1.88282,0.63867 -4.12849,2.06997 -9.8758,3.46762 -16.53906,3.91211 -1.74529,0.11642 -7.34258,0.0298 -8.92383,-0.13086 -4.46784,-0.45379 -7.6379,-1.10848 -11.07031,-2.26758 -0.37826,-0.12773 -1.05262,-0.37801 -1.64062,-0.60937 -0.58801,-0.23136 -1.30472,-0.56824 -1.08985,-0.45118 l 0,0.002 c -0.33483,-0.18279 -0.62754,-0.31833 -1.13672,-0.56836 l -0.91406,-0.44922 a 1.9660697,1.9660697 0 0 0 -0.95313,-0.20117 z"
         transform="translate(2.01219,-8.18798)" />
      <path
         style="display:inline;fill:#8d5fd3;stroke:none"
         d="m 253.6392,185.28059 c 9.90829,-0.50912 18.24153,-2.7021 21.15008,-5.56584 0.6411,-0.63122 0.69239,-0.83761 0.60009,-2.41479 -0.12161,-2.078 -0.41039,-3.38997 -0.90891,-4.12943 -0.31447,-0.46645 -1.08504,-1.07531 -1.84364,-1.45673 -0.80071,-0.40259 -1.15625,-0.78183 -1.3672,-1.45831 -0.18524,-0.59405 -0.33312,-1.51056 -0.334,-2.07006 -6.6e-4,-0.56287 -0.17974,-0.89051 -0.67041,-1.22811 -0.65509,-0.45071 -0.7901,-0.44267 -1.89846,0.11299 -4.45865,2.23551 -10.43059,3.65667 -17.28822,4.11413 -2.0249,0.13507 -7.35823,0.0569 -9.25434,-0.13572 -4.5662,-0.46378 -7.92898,-1.15382 -11.50054,-2.35991 -0.88528,-0.29894 -2.71739,-1.01969 -3.04305,-1.19711 -0.0806,-0.044 -0.55834,-0.28206 -1.06161,-0.5292 l -0.91506,-0.44935 -0.43267,0.22705 c -0.23796,0.12486 -0.54924,0.34151 -0.69171,0.48141 -0.23769,0.23338 -0.26588,0.33107 -0.3418,1.18407 -0.13138,1.47582 -0.42333,2.39839 -0.89537,2.82939 -0.11599,0.10594 -0.50888,0.33861 -0.87309,0.51709 -1.36109,0.66704 -2.06086,1.54183 -2.37959,2.97477 -0.17661,0.79396 -0.32735,2.36316 -0.32744,3.40874 -9e-5,0.95844 0.12486,1.19407 1.01379,1.91192 2.7139,2.19157 7.8044,3.7921 14.92583,4.69293 4.03607,0.51055 5.90937,0.62959 10.94443,0.69554 3.92367,0.0214 4.23204,-0.16673 7.39289,-0.15553 z"
         id="path5486"
         inkscape:connector-curvature="0"
         sodipodi:nodetypes="cssssscssssssscssssssssscc" />
      <path
         style="display:inline;fill:#c6afe9;stroke:none"
         d="m 254.35056,177.90811 c 6.6127,-0.55264 10.41884,-1.35199 14.58893,-3.06515 0.60738,-0.24952 1.11802,-0.43848 1.13476,-0.4199 0.0458,0.0507 0.5013,0.96573 0.5013,1.00687 0,0.0454 -1.78346,0.77245 -2.78529,1.13546 -3.3069,1.19826 -7.86795,2.13052 -12.64518,2.61026 z"
         id="path10569"
         inkscape:connector-curvature="0"
         sodipodi:nodetypes="cscsscc" />
      <path
         style="display:inline;fill:#c6afe9;stroke:none"
         d="m 240.02115,179.22458 c -2.5531,-0.25155 -5.27384,-0.68347 -6.91222,-1.03619 -2.2393,-0.48209 -4.24445,-1.0244 -5.84559,-1.581 -0.97831,-0.34009 -2.86966,-1.1108 -2.86966,-1.16936 0,-0.0187 0.11064,-0.2593 0.24576,-0.5349 0.17104,-0.34875 0.28714,-0.48789 0.38185,-0.4576 0.0749,0.0239 0.68192,0.26568 1.34904,0.53724 3.81941,1.55472 8.65686,2.54765 14.5447,3.00221 z"
         id="path10565"
         inkscape:connector-curvature="0"
         sodipodi:nodetypes="csssccscc" />
      <path
         style="display:inline;fill:#c6afe9;stroke:none"
         d="m 243.40036,176.05722 c -6.71011,-0.34669 -12.49458,-1.40031 -16.80541,-3.033 -0.56345,-0.2134 -2.1186,-0.85843 -2.18104,-0.90463 -0.0136,-0.0104 0.0915,-0.26387 0.23345,-0.56406 l 0.25814,-0.54582 0.48533,0.22669 c 2.95718,1.38125 7.84549,2.60924 12.78217,3.211 1.90905,0.18823 0.49647,0.0784 2.88367,0.27987 0.90449,0.0764 1.70424,0.0229 2.7712,0.0662 z"
         id="path10532"
         inkscape:connector-curvature="0"
         sodipodi:nodetypes="cscccscccc" />
      <path
         style="display:inline;fill:#c6afe9;stroke:none"
         d="m 251.76944,174.9356 c 3.22265,-0.0469 2.82795,-0.20001 6.31806,-0.66357 4.35879,-0.63299 8.14285,-1.61323 11.0954,-2.87421 0.58761,-0.25095 0.91061,-0.34771 0.93353,-0.27963 0.0193,0.0573 0.13066,0.29521 0.24754,0.5288 l 0.21252,0.42472 -0.3374,0.16987 c -0.18557,0.0934 -0.7215,0.32185 -1.19096,0.50758 -3.5222,1.39355 -8.15452,2.46124 -12.84826,2.96139 -0.71654,0.0763 -1.48323,0.15945 -1.70377,0.18469 -0.83375,0.0741 -0.47096,-0.0542 -2.07005,0.0722 z"
         id="path10526"
         inkscape:connector-curvature="0"
         sodipodi:nodetypes="ccscsccccccc" />
    </g>
    <g
       inkscape:groupmode="layer"
       id="layer7"
       inkscape:label="Gears">
      <path
         id="path10064"
         style="display:inline;fill:#442178;stroke:none;stroke-width:0.6555202"
         d="m 253.99973,181.47384 c -0.11408,-1.94929 -0.48124,-3.01987 -0.58766,-3.17773 -0.33881,-0.35015 -0.62707,-0.57334 -1.12156,-0.82197 -1.02685,-0.51628 -1.99596,-1.52653 -2.3276,-2.59007 -0.20293,-0.65073 -0.26858,-1.33554 -0.31118,-1.87825 -1.30578,0.16845 -2.9934,-0.0814 -4.45564,0.005 -0.10105,1.65445 -0.24132,3.16479 -1.3568,4.18299 -0.33288,0.30375 -0.44875,0.33997 -0.65439,0.46204 -0.20565,0.12207 -0.42963,0.24402 -0.6632,0.35849 -1.00312,0.4916 -1.13479,0.66292 -1.36097,1.67977 -0.11117,0.49977 -0.2816,2.13455 -0.28167,2.99721 l 0.0402,0.69272 c 1.44989,0.0821 3.05488,0.12114 5.35105,0.15122 3.78724,0.0199 4.16691,-0.15947 7.27218,-0.15364 0.002,-9e-5 0.003,1e-4 0.005,0 0.83141,-0.15313 0.47341,-1.04712 0.45223,-1.90741 z"
         inkscape:connector-curvature="0"
         sodipodi:nodetypes="cccccccccscccccc" />
      <g
         style="display:inline"
         id="g10511"
         clip-path="url(#clipPath10515)"
         transform="translate(0,-2)">
        <path
           inkscape:connector-curvature="0"
           id="path10175"
           d="m 253.32242,177.68638 -0.52126,1.15178 -0.0397,0.4083 0.10214,0.69613 -1.23262,0.33015 -0.25956,-0.65385 -0.23854,-0.33388 -1.02729,-0.73672 -0.59264,0.3423 0.12417,1.25799 0.16973,0.37346 0.4367,0.55173 -0.9025,0.90211 -0.55171,-0.43634 -0.37343,-0.16972 -1.25801,-0.12443 -0.34198,0.59263 0.7364,1.02729 0.33384,0.23854 0.6542,0.25985 -0.33045,1.2323 -0.69617,-0.10214 -0.40826,0.0397 -1.15147,0.52159 0,0.68431 1.15147,0.52129 0.40826,0.0397 0.69617,-0.10214 0.33045,1.23263 -0.6542,0.25953 -0.33384,0.23856 -0.7364,1.02732 0.34198,0.59262 1.25801,-0.12417 0.37343,-0.16972 0.55171,-0.43671 0.9025,0.90252 -0.4367,0.55168 -0.16973,0.37345 -0.12417,1.25799 0.59264,0.34199 1.02729,-0.73673 0.23854,-0.33352 0.25956,-0.65422 1.23262,0.33049 -0.10214,0.69616 0.0397,0.40827 0.52126,1.15146 0.68432,0 0.52125,-1.15146 0.0401,-0.40827 -0.10214,-0.69616 1.2323,-0.33049 0.25985,0.65422 0.23853,0.33352 1.02729,0.73673 0.59264,-0.34199 -0.12442,-1.25799 -0.16973,-0.37345 -0.43638,-0.55168 0.90216,-0.90252 0.55171,0.43671 0.37342,0.16972 1.25803,0.12417 0.3423,-0.59262 -0.73671,-1.02732 -0.33389,-0.23856 -0.65387,-0.25953 0.33018,-1.23263 0.69612,0.10214 0.40829,-0.0397 1.15179,-0.52129 0,-0.68431 -1.15179,-0.52159 -0.40829,-0.0397 -0.69612,0.10214 -0.33018,-1.2323 0.65387,-0.25985 0.33389,-0.23854 0.73671,-1.02729 -0.3423,-0.59263 -1.25803,0.12443 -0.37342,0.16972 -0.55171,0.43634 -0.90216,-0.90211 0.43638,-0.55173 0.16973,-0.37346 0.12442,-1.25799 -0.59264,-0.3423 -1.02729,0.73672 -0.23853,0.33388 -0.25985,0.65385 -1.2323,-0.33015 0.10214,-0.69613 -0.0401,-0.4083 -0.52125,-1.15178 -0.68432,0 z m 0.3423,5.97847 a 1.7319093,1.7319093 0 0 1 1.73194,1.73189 1.7319093,1.7319093 0 0 1 -1.73194,1.73192 1.7319093,1.7319093 0 0 1 -1.73191,-1.73192 1.7319093,1.7319093 0 0 1 1.73191,-1.73189 z"
           style="fill:#7137c8;stroke:none;stroke-width:1" />
        <path
           inkscape:connector-curvature="0"
           id="path10371"
           d="m 244.8168,171.40077 -0.56222,1.17918 -0.009,0.27324 0.17554,0.81791 -1.10308,0.457 -0.4543,-0.70258 -0.19916,-0.18692 -1.23164,-0.43638 -0.42179,0.42182 0.43635,1.23129 0.1875,0.19918 0.70225,0.45459 -0.45666,1.10275 -0.81792,-0.17556 -0.27324,0.009 -1.17955,0.56218 0,0.59637 1.17955,0.56218 0.27324,0.009 0.81792,-0.17527 0.45666,1.10276 -0.70225,0.45461 -0.1875,0.19919 -0.43635,1.23127 0.42179,0.42184 1.23164,-0.43638 0.19916,-0.18694 0.4543,-0.70257 1.10308,0.45699 -0.17554,0.81793 0.009,0.27324 0.56222,1.17919 0.59668,0 0.56219,-1.17919 0.009,-0.27324 -0.17555,-0.81793 1.10309,-0.45699 0.45428,0.70257 0.19946,0.18694 1.23129,0.43638 0.42183,-0.42184 -0.43637,-1.23127 -0.18753,-0.19919 -0.70221,-0.45461 0.45665,-1.10276 0.8179,0.17527 0.27325,-0.009 1.17953,-0.56218 0,-0.59637 -1.17953,-0.56218 -0.27325,-0.009 -0.8179,0.17556 -0.45665,-1.10275 0.70221,-0.45459 0.18753,-0.19918 0.43637,-1.23129 -0.42183,-0.42182 -1.23129,0.43638 -0.19946,0.18692 -0.45428,0.70258 -1.10309,-0.457 0.17555,-0.81791 -0.009,-0.27324 -0.56219,-1.17918 -0.59668,0 z m 0.29833,3.77265 a 1.7319093,1.7319093 0 0 1 1.73191,1.73191 1.7319093,1.7319093 0 0 1 -1.73191,1.7319 1.7319093,1.7319093 0 0 1 -1.73191,-1.7319 1.7319093,1.7319093 0 0 1 1.73191,-1.73191 z"
           style="fill:#7137c8;stroke:none;stroke-width:1" />
      </g>
    </g>
    <g
       inkscape:groupmode="layer"
       id="layer5"
       inkscape:label="Energy"
       style="display:inline">
      <g
         style="display:inline"
         id="g6936"
         transform="translate(165.10935,104.01711)">
        <path
           transform="matrix(-0.36545436,0.93082926,-0.93082926,-0.36545436,155.30957,-19.124955)"
           style="opacity:0.95;fill:#fff6d5;stroke:none;filter:url(#filter6625)"
           d="m 115.80625,56.951832 c -0.26781,2.568315 -1.4441,4.768761 -3.91291,7.319689 -3.46959,3.585023 -4.58183,7.312867 -3.43255,11.504833 0.70113,2.557357 3.64944,5.992093 6.05015,7.048335 6.70909,2.951817 13.88204,-0.914907 17.797,-9.593804 3.57132,-7.917107 -0.0168,-19.099012 -3.39565,-23.501077 -9.40585,-12.254112 -30.984484,-12.751812 -44.590984,-4.26442 10.915553,-2.213107 33.238934,-2.642241 31.484944,11.486444 z"
           id="path7043"
           inkscape:connector-curvature="0"
           sodipodi:nodetypes="cssssscc" />
        <path
           transform="matrix(0.13352275,-0.095222,0.095222,0.13352275,-13.733546,-58.146461)"
           d="m 44.547726,896.11039 -17.727735,2.93348 -1.736507,18.26091 -2.933485,-17.72773 -18.260912,-1.73651 17.727736,-2.93348 1.736506,-18.26092 2.933485,17.72774 z"
           inkscape:randomized="0"
           inkscape:rounded="0"
           inkscape:flatsided="false"
           sodipodi:arg2="0.67171965"
           sodipodi:arg1="-0.042527535"
           sodipodi:r2="3.3236351"
           sodipodi:r1="20.347717"
           sodipodi:cy="896.97546"
           sodipodi:cx="24.218407"
           sodipodi:sides="4"
           id="path3613"
           style="display:inline;opacity:1;fill:#ffffff;fill-opacity:1;stroke:none;stroke-width:1;stroke-miterlimit:4;stroke-dasharray:none;stroke-opacity:1"
           sodipodi:type="star" />
        <path
           sodipodi:type="star"
           style="display:inline;opacity:1;fill:#ffffff;fill-opacity:1;stroke:none;stroke-width:1;stroke-miterlimit:4;stroke-dasharray:none;stroke-opacity:1"
           id="path3521"
           sodipodi:sides="4"
           sodipodi:cx="24.218407"
           sodipodi:cy="896.97546"
           sodipodi:r1="20.347717"
           sodipodi:r2="3.3236351"
           sodipodi:arg1="-0.042527535"
           sodipodi:arg2="0.67171965"
           inkscape:flatsided="false"
           inkscape:rounded="0"
           inkscape:randomized="0"
           d="m 44.547726,896.11039 -17.727735,2.93348 -1.736507,18.26091 -2.933485,-17.72773 -18.260912,-1.73651 17.727736,-2.93348 1.736506,-18.26092 2.933485,17.72774 z"
           transform="matrix(0.31083071,-0.2216695,0.2216695,0.31083071,-158.11844,-214.07702)" />
        <path
           sodipodi:type="star"
           style="display:inline;opacity:1;fill:#ffffff;fill-opacity:1;stroke:none;stroke-width:1;stroke-miterlimit:4;stroke-dasharray:none;stroke-opacity:1"
           id="path3549"
           sodipodi:sides="4"
           sodipodi:cx="24.218407"
           sodipodi:cy="896.97546"
           sodipodi:r1="20.347717"
           sodipodi:r2="3.3236351"
           sodipodi:arg1="-0.042527535"
           sodipodi:arg2="0.67171965"
           inkscape:flatsided="false"
           inkscape:rounded="0"
           inkscape:randomized="0"
           d="m 44.547726,896.11039 -17.727735,2.93348 -1.736507,18.26091 -2.933485,-17.72773 -18.260912,-1.73651 17.727736,-2.93348 1.736506,-18.26092 2.933485,17.72774 z"
           transform="matrix(0.14555147,-0.10380031,0.10380031,0.14555147,-24.095476,-58.536277)" />
        <path
           sodipodi:type="star"
           style="display:inline;opacity:1;fill:#ffffff;fill-opacity:1;stroke:none;stroke-width:1;stroke-miterlimit:4;stroke-dasharray:none;stroke-opacity:1"
           id="path6629"
           sodipodi:sides="4"
           sodipodi:cx="24.218407"
           sodipodi:cy="896.97546"
           sodipodi:r1="20.347717"
           sodipodi:r2="3.3236351"
           sodipodi:arg1="-0.042527535"
           sodipodi:arg2="0.67171965"
           inkscape:flatsided="false"
           inkscape:rounded="0"
           inkscape:randomized="0"
           d="m 44.547726,896.11039 -17.727735,2.93348 -1.736507,18.26091 -2.933485,-17.72773 -18.260912,-1.73651 17.727736,-2.93348 1.736506,-18.26092 2.933485,17.72774 z"
           transform="matrix(0.16576055,-0.11821246,0.11821246,0.16576055,-46.065435,-70.794306)" />
        <path
           transform="matrix(0.16576055,-0.11821246,0.11821246,0.16576055,-44.854642,-76.503642)"
           d="m 44.547726,896.11039 -17.727735,2.93348 -1.736507,18.26091 -2.933485,-17.72773 -18.260912,-1.73651 17.727736,-2.93348 1.736506,-18.26092 2.933485,17.72774 z"
           inkscape:randomized="0"
           inkscape:rounded="0"
           inkscape:flatsided="false"
           sodipodi:arg2="0.67171965"
           sodipodi:arg1="-0.042527535"
           sodipodi:r2="3.3236351"
           sodipodi:r1="20.347717"
           sodipodi:cy="896.97546"
           sodipodi:cx="24.218407"
           sodipodi:sides="4"
           id="path6631"
           style="display:inline;opacity:1;fill:#ffffff;fill-opacity:1;stroke:none;stroke-width:1;stroke-miterlimit:4;stroke-dasharray:none;stroke-opacity:1"
           sodipodi:type="star" />
        <path
           sodipodi:type="star"
           style="display:inline;opacity:1;fill:#ffffff;fill-opacity:1;stroke:none;stroke-width:1;stroke-miterlimit:4;stroke-dasharray:none;stroke-opacity:1"
           id="path6633"
           sodipodi:sides="4"
           sodipodi:cx="24.218407"
           sodipodi:cy="896.97546"
           sodipodi:r1="20.347717"
           sodipodi:r2="3.3236351"
           sodipodi:arg1="-0.042527535"
           sodipodi:arg2="0.67171965"
           inkscape:flatsided="false"
           inkscape:rounded="0"
           inkscape:randomized="0"
           d="m 44.547726,896.11039 -17.727735,2.93348 -1.736507,18.26091 -2.933485,-17.72773 -18.260912,-1.73651 17.727736,-2.93348 1.736506,-18.26092 2.933485,17.72774 z"
           transform="matrix(0.16576055,-0.11821246,0.11821246,0.16576055,-29.166854,-92.328443)" />
        <path
           sodipodi:type="star"
           style="display:inline;opacity:1;fill:#ffffff;fill-opacity:1;stroke:none;stroke-width:1;stroke-miterlimit:4;stroke-dasharray:none;stroke-opacity:1"
           id="path6637"
           sodipodi:sides="4"
           sodipodi:cx="24.218407"
           sodipodi:cy="896.97546"
           sodipodi:r1="20.347717"
           sodipodi:r2="3.3236351"
           sodipodi:arg1="-0.042527535"
           sodipodi:arg2="0.67171965"
           inkscape:flatsided="false"
           inkscape:rounded="0"
           inkscape:randomized="0"
           d="m 44.547726,896.11039 -17.727735,2.93348 -1.736507,18.26091 -2.933485,-17.72773 -18.260912,-1.73651 17.727736,-2.93348 1.736506,-18.26092 2.933485,17.72774 z"
           transform="matrix(0.13352275,-0.095222,0.095222,0.13352275,-41.618282,-35.65303)" />
        <path
           transform="matrix(0.13352275,-0.095222,0.095222,0.13352275,-36.181111,-44.365517)"
           d="m 44.547726,896.11039 -17.727735,2.93348 -1.736507,18.26091 -2.933485,-17.72773 -18.260912,-1.73651 17.727736,-2.93348 1.736506,-18.26092 2.933485,17.72774 z"
           inkscape:randomized="0"
           inkscape:rounded="0"
           inkscape:flatsided="false"
           sodipodi:arg2="0.67171965"
           sodipodi:arg1="-0.042527535"
           sodipodi:r2="3.3236351"
           sodipodi:r1="20.347717"
           sodipodi:cy="896.97546"
           sodipodi:cx="24.218407"
           sodipodi:sides="4"
           id="path6639"
           style="display:inline;opacity:1;fill:#ffffff;fill-opacity:1;stroke:none;stroke-width:1;stroke-miterlimit:4;stroke-dasharray:none;stroke-opacity:1"
           sodipodi:type="star" />
        <path
           sodipodi:type="star"
           style="display:inline;opacity:1;fill:#ffffff;fill-opacity:1;stroke:none;stroke-width:1;stroke-miterlimit:4;stroke-dasharray:none;stroke-opacity:1"
           id="path6641"
           sodipodi:sides="4"
           sodipodi:cx="24.218407"
           sodipodi:cy="896.97546"
           sodipodi:r1="20.347717"
           sodipodi:r2="3.3236351"
           sodipodi:arg1="-0.042527535"
           sodipodi:arg2="0.67171965"
           inkscape:flatsided="false"
           inkscape:rounded="0"
           inkscape:randomized="0"
           d="m 44.547726,896.11039 -17.727735,2.93348 -1.736507,18.26091 -2.933485,-17.72773 -18.260912,-1.73651 17.727736,-2.93348 1.736506,-18.26092 2.933485,17.72774 z"
           transform="matrix(0.16576055,-0.11821246,0.11821246,0.16576055,-73.462258,-72.176677)" />
      </g>
    </g>
  </g>
  <g
     inkscape:groupmode="layer"
     id="layer3"
     inkscape:label="Bot"
     style="display:inline">
    <g
       inkscape:groupmode="layer"
       id="layer10"
       inkscape:label="Beam"
       style="display:inline">
      <path
         style="display:inline;opacity:1;fill:#aa87de;fill-opacity:1;stroke:none;stroke-width:2;stroke-miterlimit:4;stroke-dasharray:none;stroke-opacity:1;filter:url(#filter9124)"
         d="m 79.750001,78.238281 a 4.90625,2.71875 0 0 0 -4.90625,2.71875 4.90625,2.71875 0 0 0 4.90625,2.71875 4.90625,2.71875 0 0 0 4.90625,-2.71875 4.90625,2.71875 0 0 0 -4.90625,-2.71875 z m 0,1.417969 c 1.078748,0 2.148317,0.268407 2.78125,0.619141 0.632933,0.350733 0.707031,0.639768 0.707031,0.68164 0,0.04187 -0.0741,0.330908 -0.707031,0.681641 -0.632933,0.350733 -1.702502,0.61914 -2.78125,0.61914 -1.078748,10e-7 -2.148317,-0.268407 -2.78125,-0.61914 -0.632933,-0.350733 -0.707031,-0.639768 -0.707031,-0.681641 0,-0.04187 0.0741,-0.330907 0.707031,-0.68164 0.632933,-0.350734 1.702502,-0.619141 2.78125,-0.619141 z"
         id="path9105"
         inkscape:connector-curvature="0" />
      <path
         style="display:inline;opacity:1;fill:#8d5fd3;fill-opacity:1;stroke:none;stroke-width:2;stroke-miterlimit:4;stroke-dasharray:none;stroke-opacity:1;filter:url(#filter9128)"
         d="m 79.750001,71.738281 a 8,4.09375 0 0 0 -8,4.09375 8,4.09375 0 0 0 8,4.09375 8,4.09375 0 0 0 8,-4.09375 8,4.09375 0 0 0 -8,-4.09375 z m 0,2.058594 c 1.818705,0 3.62678,0.413873 4.71875,0.972656 1.09197,0.558783 1.22266,1.043589 1.22266,1.0625 0,0.01891 -0.13069,0.503717 -1.22266,1.0625 -1.09197,0.558783 -2.900045,0.972657 -4.71875,0.972657 -1.818705,-10e-7 -3.626777,-0.413874 -4.71875,-0.972657 -1.091973,-0.558783 -1.222656,-1.043588 -1.222656,-1.0625 0,-0.01891 0.130683,-0.503717 1.222656,-1.0625 1.091973,-0.558783 2.900045,-0.972656 4.71875,-0.972656 z"
         id="path9098"
         inkscape:connector-curvature="0" />
      <path
         style="display:inline;opacity:1;fill:#7137c8;fill-opacity:1;stroke:none;stroke-width:2;stroke-miterlimit:4;stroke-dasharray:none;stroke-opacity:1;filter:url(#filter9132)"
         d="M 79.75,74.599609 A 10.6875,5.5446711 0 0 0 69.0625,80.144531 10.6875,5.5446711 0 0 0 79.75,85.689453 10.6875,5.5446711 0 0 0 90.4375,80.144531 10.6875,5.5446711 0 0 0 79.75,74.599609 Z m 0,2.369141 c 2.476143,0 4.938624,0.566523 6.466797,1.359375 1.528173,0.792852 1.851585,1.560815 1.851562,1.816406 2.3e-5,0.255592 -0.323389,1.023555 -1.851562,1.816407 -1.528173,0.79285 -3.990654,1.359375 -6.466797,1.359374 -2.476143,10e-7 -4.938624,-0.566524 -6.466797,-1.359374 -1.528173,-0.792852 -1.851585,-1.560815 -1.851562,-1.816407 -2.3e-5,-0.255591 0.323389,-1.023554 1.851562,-1.816406 C 74.811376,77.535273 77.273857,76.96875 79.75,76.96875 Z"
         id="path9069"
         inkscape:connector-curvature="0"
         transform="matrix(1.2192218,0,0,1.2192218,-17.48294,-31.56943)" />
    </g>
    <g
       inkscape:groupmode="layer"
       id="layer12"
       inkscape:label="Back Arm"
       style="display:inline">
      <path
         sodipodi:nodetypes="ccccccccc"
         inkscape:connector-curvature="0"
         id="path8860"
         d="m 68.519645,44.493341 c 0.791791,-0.420251 1.072076,-1.416718 0.615476,-2.18812 l -0.84362,-1.42538 c -0.427456,-0.722307 -1.347138,-0.981108 -2.088553,-0.587726 l -8.689279,4.432326 c -0.791788,0.420249 -1.072077,1.416718 -0.61548,2.188123 l 0.843619,1.42538 c 0.427457,0.722308 1.347142,0.981109 2.088557,0.587724 z"
         style="display:inline;opacity:1;fill:#000000;fill-opacity:1;stroke:none;stroke-width:1;stroke-miterlimit:4;stroke-dasharray:none;stroke-opacity:1" />
      <path
         sodipodi:type="inkscape:offset"
         inkscape:radius="0.034040406"
         inkscape:original="M 66.939453 51.679688 L 58.25 56.113281 L 59.09375 57.537109 L 67.783203 53.105469 L 66.939453 51.679688 z "
         style="display:inline;opacity:1;fill:#aa87de;fill-opacity:1;stroke:none;stroke-width:1;stroke-miterlimit:4;stroke-dasharray:none;stroke-opacity:1"
         id="path8872"
         d="m 66.929688,51.646484 a 0.03404381,0.03404381 0 0 0 -0.002,0.002 0.03404381,0.03404381 0 0 0 -0.0039,0 l -8.689453,4.433593 a 0.03404381,0.03404381 0 0 0 -0.002,0.002 0.03404381,0.03404381 0 0 0 -0.0078,0.0078 0.03404381,0.03404381 0 0 0 -0.002,0.002 0.03404381,0.03404381 0 0 0 -0.0039,0.0059 0.03404381,0.03404381 0 0 0 -0.002,0.0098 0.03404381,0.03404381 0 0 0 0,0.0098 0.03404381,0.03404381 0 0 0 0.0039,0.0098 0.03404381,0.03404381 0 0 0 0,0.002 l 0.84375,1.423829 a 0.03404381,0.03404381 0 0 0 0.002,0.002 0.03404381,0.03404381 0 0 0 0.0039,0.0059 0.03404381,0.03404381 0 0 0 0.0059,0.0039 0.03404381,0.03404381 0 0 0 0.0059,0.002 0.03404381,0.03404381 0 0 0 0.0098,0.002 0.03404381,0.03404381 0 0 0 0.01367,-0.002 0.03404381,0.03404381 0 0 0 0.0039,0 l 8.689453,-4.43164 a 0.03404381,0.03404381 0 0 0 0.002,-0.002 0.03404381,0.03404381 0 0 0 0.0078,-0.0078 0.03404381,0.03404381 0 0 0 0.002,-0.002 0.03404381,0.03404381 0 0 0 0.0039,-0.0059 0.03404381,0.03404381 0 0 0 0.002,-0.0098 0.03404381,0.03404381 0 0 0 0,-0.0098 0.03404381,0.03404381 0 0 0 -0.0039,-0.0098 0.03404381,0.03404381 0 0 0 0,-0.002 l -0.84375,-1.425782 a 0.03404381,0.03404381 0 0 0 -0.002,-0.002 0.03404381,0.03404381 0 0 0 -0.0039,-0.0059 0.03404381,0.03404381 0 0 0 -0.0059,-0.0039 0.03404381,0.03404381 0 0 0 -0.0059,-0.002 0.03404381,0.03404381 0 0 0 -0.0098,-0.002 0.03404381,0.03404381 0 0 0 -0.01172,0 z"
         transform="translate(0,-10)" />
      <path
         sodipodi:type="inkscape:offset"
         inkscape:radius="0"
         inkscape:original="M 76.0625 62.552734 C 75.068859 62.566613 74.053949 62.811973 73.117188 63.322266 C 72.469437 63.675121 71.486561 64.124658 70.638672 64.986328 C 69.790783 65.847999 69.206885 67.40902 69.699219 68.957031 C 69.930055 69.682831 70.540266 71.341853 71.257812 73.007812 C 71.616586 73.840794 71.996023 74.659386 72.376953 75.355469 C 72.757883 76.051551 72.917804 76.595259 73.806641 77.154297 C 74.737648 77.739862 75.749827 78.064282 76.677734 77.919922 C 77.605641 77.775562 78.196341 77.407155 79.064453 77.041016 C 82.83517 75.450662 84.599642 71.045192 83.003906 67.261719 C 81.805689 64.420737 79.042724 62.511107 76.0625 62.552734 z "
         style="display:inline;opacity:1;fill:#000000;fill-opacity:1;stroke:none;stroke-width:1;stroke-miterlimit:4;stroke-dasharray:none;stroke-opacity:1"
         id="path8868"
         d="m 76.0625,62.552734 c -0.993641,0.01388 -2.008551,0.259239 -2.945312,0.769532 -0.647751,0.352855 -1.630627,0.802392 -2.478516,1.664062 -0.847889,0.861671 -1.431787,2.422692 -0.939453,3.970703 0.230836,0.7258 0.841047,2.384822 1.558593,4.050781 0.358774,0.832982 0.738211,1.651574 1.119141,2.347657 0.38093,0.696082 0.540851,1.23979 1.429688,1.798828 0.931007,0.585565 1.943186,0.909985 2.871093,0.765625 0.927907,-0.14436 1.518607,-0.512767 2.386719,-0.878906 3.770717,-1.590354 5.535189,-5.995824 3.939453,-9.779297 -1.198217,-2.840982 -3.961182,-4.750612 -6.941406,-4.708985 z"
         transform="matrix(0.77944567,0,0,0.77944567,-5.0082901,-5.6327199)" />
      <path
         sodipodi:type="inkscape:offset"
         inkscape:radius="-0.61142457"
         inkscape:original="M 76.089844 64.478516 C 75.390245 64.488287 74.696219 64.655692 74.039062 65.013672 C 73.34151 65.393656 72.530023 65.811162 72.011719 66.337891 C 71.493415 66.864619 71.232097 67.420157 71.535156 68.373047 C 71.718887 68.950736 72.338678 70.64719 73.027344 72.246094 C 73.371677 73.045546 73.734484 73.825111 74.066406 74.431641 C 74.398329 75.03817 74.760612 75.478517 74.832031 75.523438 C 75.585348 75.997242 75.950958 76.08446 76.380859 76.017578 C 76.810761 75.950696 77.378028 75.6614 78.316406 75.265625 C 81.11982 74.083246 82.423027 70.84194 81.228516 68.009766 C 80.33304 65.886586 78.188839 64.449197 76.089844 64.478516 z "
         style="display:inline;opacity:1;fill:#aa87de;fill-opacity:1;stroke:none;stroke-width:1;stroke-miterlimit:4;stroke-dasharray:none;stroke-opacity:1"
         id="path8870"
         d="m 76.097656,65.089844 c -0.607736,0.0085 -1.196955,0.15116 -1.765625,0.460937 -0.707264,0.385275 -1.476948,0.802351 -1.884765,1.216797 -0.21981,0.223382 -0.339879,0.403819 -0.394532,0.595703 -0.05465,0.191885 -0.06129,0.428849 0.06445,0.824219 0.168146,0.52869 0.793423,2.239403 1.472656,3.816406 0.339732,0.788772 0.697591,1.557184 1.013672,2.134766 0.150903,0.275748 0.310201,0.517231 0.435546,0.6875 0.06198,0.08419 0.114702,0.149895 0.150391,0.191406 0.655954,0.408771 0.807856,0.44157 1.097656,0.396484 0.245998,-0.03827 0.835634,-0.30799 1.791016,-0.710937 2.497267,-1.053257 3.655606,-3.923535 2.587891,-6.455078 -0.798061,-1.892209 -2.754233,-3.183543 -4.56836,-3.158203 z"
         transform="matrix(0.77944567,0,0,0.77944567,-5.0082901,-5.6327199)" />
    </g>
    <g
       inkscape:groupmode="layer"
       id="layer9"
       inkscape:label="Body"
       style="display:inline">
      <path
         style="display:inline;opacity:1;fill:#000000;fill-opacity:1;stroke:none;stroke-width:1;stroke-miterlimit:4;stroke-dasharray:none;stroke-opacity:1"
         d="m 79.748016,17.253323 c -5.525728,6.7e-5 -11.00217,0.660051 -15.089009,1.881035 -2.043418,0.610492 -3.75038,1.340059 -5.085829,2.303157 -1.334969,0.962752 -2.460971,2.35199 -2.462377,4.106432 l -0.151817,3.275148 7.135343,27.871159 c 0.427393,1.669195 1.577981,2.701631 2.823404,3.586185 1.245422,0.884554 2.711227,1.606797 4.245287,2.217992 3.068121,1.222389 6.226554,2.014808 8.647946,1.945834 2.258002,-0.06432 5.715102,-0.801596 9.064514,-1.975457 1.674707,-0.586931 3.280542,-1.278364 4.63964,-2.140233 1.359097,-0.861867 2.669343,-1.877592 3.060383,-3.723189 l 5.889339,-27.791548 -0.0777,-3.26404 c -6e-4,-1.755437 -1.12866,-3.145161 -2.46423,-4.108283 -1.335593,-0.963123 -3.042242,-1.692662 -5.085854,-2.303157 -4.087224,-1.220988 -9.562962,-1.881116 -15.08901,-1.881035 z"
         id="path8823"
         inkscape:connector-curvature="0"
         sodipodi:nodetypes="ssscccssssscccsss" />
      <ellipse
         style="display:inline;opacity:1;fill:#5a2ca0;fill-opacity:1;stroke:none;stroke-width:1;stroke-miterlimit:4;stroke-dasharray:none;stroke-opacity:1"
         id="path8575"
         cx="79.748764"
         cy="25.546425"
         rx="20.457087"
         ry="6.1121349" />
      <path
         style="display:inline;opacity:1;fill:#5a2ca0;fill-opacity:1;stroke:none;stroke-width:1;stroke-miterlimit:4;stroke-dasharray:none;stroke-opacity:1"
         d="M 94.442879,56.14901 C 93.716544,59.445594 83.271025,62.160814 79.748765,62.261147 76.226506,62.36148 67.075704,59.411067 66.207233,56.14901 L 59.070868,29.344186 c 8.99829,6.397017 32.72924,6.668443 41.260302,0.07995 z"
         id="ellipse8577"
         inkscape:connector-curvature="0"
         sodipodi:nodetypes="szsccs" />
      <g
         id="g9154"
         clip-path="url(#clipPath9159)"
         style="display:inline;fill:#aa87de"
         transform="translate(0,-10)">
        <path
           style="display:inline;opacity:1;fill:#aa87de;fill-opacity:1;stroke:none;stroke-width:1;stroke-miterlimit:4;stroke-dasharray:none;stroke-opacity:1"
           d="m 68.56386,52.763889 c -0.92091,-0.328941 -1.61705,-1.184317 -1.73795,-2.135712 -1.951736,-0.57852 -3.858986,-1.224887 -5.318756,-2.553703 l -5.261287,-2.360852 0.31089,-1.406507 4.50086,1.759876 c 1.1899,1.229019 3.391008,2.546359 6.079753,3.154881 0.49309,-0.732666 1.43798,-1.004019 2.3592,-0.677499 1.20164,0.427677 1.96698,1.718949 1.70942,2.884139 -0.25755,1.16519 -1.44047,1.763058 -2.64213,1.335377 z m 0.3109,-1.406505 c 0.40056,0.142558 0.79486,-0.05673 0.88071,-0.445128 0.0859,-0.388389 -0.16925,-0.818817 -0.56981,-0.961379 -0.40054,-0.142555 -0.79485,0.05673 -0.8807,0.445129 -0.0859,0.388388 0.16926,0.818819 0.5698,0.961378 z"
           id="path9146"
           inkscape:connector-curvature="0"
           sodipodi:nodetypes="ccccccccscsssss" />
        <path
           sodipodi:nodetypes="ccccccccscsssss"
           inkscape:connector-curvature="0"
           id="path9148"
           d="m 68.56386,58.763889 c -0.92091,-0.328941 -1.61705,-1.184317 -1.73795,-2.135712 -1.951736,-0.57852 -3.858986,-1.224887 -5.318756,-2.553703 l -5.261287,-2.360852 0.31089,-1.406507 4.50086,1.759876 c 1.1899,1.229019 3.391008,2.546359 6.079753,3.154881 0.49309,-0.732666 1.43798,-1.004019 2.3592,-0.677499 1.20164,0.427677 1.96698,1.718949 1.70942,2.884139 -0.25755,1.16519 -1.44047,1.763058 -2.64213,1.335377 z m 0.3109,-1.406505 c 0.40056,0.142558 0.79486,-0.05673 0.88071,-0.445128 0.0859,-0.388389 -0.16925,-0.818817 -0.56981,-0.961379 -0.40054,-0.142555 -0.79485,0.05673 -0.8807,0.445129 -0.0859,0.388388 0.16926,0.818819 0.5698,0.961378 z"
           style="display:inline;opacity:1;fill:#aa87de;fill-opacity:1;stroke:none;stroke-width:1;stroke-miterlimit:4;stroke-dasharray:none;stroke-opacity:1" />
        <path
           style="display:inline;opacity:1;fill:#aa87de;fill-opacity:1;stroke:none;stroke-width:1;stroke-miterlimit:4;stroke-dasharray:none;stroke-opacity:1"
           d="m 68.56386,64.763889 c -0.92091,-0.328941 -1.61705,-1.184317 -1.73795,-2.135712 -1.951736,-0.57852 -3.858986,-1.224887 -5.318756,-2.553703 l -5.261287,-2.360852 0.31089,-1.406507 4.50086,1.759876 c 1.1899,1.229019 3.391008,2.546359 6.079753,3.154881 0.49309,-0.732666 1.43798,-1.004019 2.3592,-0.677499 1.20164,0.427677 1.96698,1.718949 1.70942,2.884139 -0.25755,1.16519 -1.44047,1.763058 -2.64213,1.335377 z m 0.3109,-1.406505 c 0.40056,0.142558 0.79486,-0.05673 0.88071,-0.445128 0.0859,-0.388389 -0.16925,-0.818817 -0.56981,-0.961379 -0.40054,-0.142555 -0.79485,0.05673 -0.8807,0.445129 -0.0859,0.388388 0.16926,0.818819 0.5698,0.961378 z"
           id="path9150"
           inkscape:connector-curvature="0"
           sodipodi:nodetypes="ccccccccscsssss" />
      </g>
    </g>
    <g
       inkscape:groupmode="layer"
       id="layer11"
       inkscape:label="Front Arm"
       style="display:inline">
      <path
         sodipodi:type="inkscape:offset"
         inkscape:radius="2.0155649"
         inkscape:original="M 98.320312 -30.494141 L 98.320312 -28.369141 L 107.42773 -27.943359 L 107.42773 -30.068359 L 98.320312 -30.494141 z "
         style="display:inline;opacity:1;fill:#000000;fill-opacity:1;stroke:none;stroke-width:1;stroke-miterlimit:4;stroke-dasharray:none;stroke-opacity:1"
         id="path8835"
         d="m 98.414062,-32.507812 a 2.0157665,2.0157665 0 0 0 -2.109374,2.013671 l 0,2.125 a 2.0157665,2.0157665 0 0 0 1.921874,2.013672 l 9.107418,0.425781 a 2.0157665,2.0157665 0 0 0 2.10938,-2.013671 l 0,-2.125 a 2.0157665,2.0157665 0 0 0 -1.92188,-2.013672 l -9.107418,-0.425781 z"
         transform="matrix(0.70163807,0.71253352,-0.71253352,0.70163807,0,-10)" />
      <path
         style="display:inline;opacity:1;fill:#aa87de;fill-opacity:1;stroke:none;stroke-width:1;stroke-miterlimit:4;stroke-dasharray:none;stroke-opacity:1"
         d="m 90.713837,38.661527 6.086431,6.786933 -1.514134,1.490981 -6.08643,-6.786933 z"
         id="rect8826"
         inkscape:connector-curvature="0"
         sodipodi:nodetypes="ccccc" />
      <path
         sodipodi:type="inkscape:offset"
         inkscape:radius="1.1283268"
         inkscape:original="M 99.1875 56.988281 A 2.6875 2.6875 0 0 0 96.5 59.675781 A 2.6875 2.6875 0 0 0 99.1875 62.363281 A 2.6875 2.6875 0 0 0 101.875 59.675781 A 2.6875 2.6875 0 0 0 99.1875 56.988281 z "
         style="display:inline;opacity:1;fill:#000000;fill-opacity:1;stroke:none;stroke-width:1;stroke-miterlimit:4;stroke-dasharray:none;stroke-opacity:1"
         id="path8839"
         d="m 99.1875,55.859375 c -0.998981,0 -1.990879,0.412754 -2.697266,1.119141 -0.706386,0.706386 -1.11914,1.698284 -1.11914,2.697265 0,0.998981 0.412754,1.99088 1.11914,2.697266 0.706387,0.706386 1.698285,1.11914 2.697266,1.119141 0.99898,0 1.99088,-0.412755 2.69727,-1.119141 0.70638,-0.706386 1.11914,-1.698285 1.11914,-2.697266 0,-0.998981 -0.41276,-1.990879 -1.11914,-2.697265 -0.70639,-0.706387 -1.69829,-1.119141 -2.69727,-1.119141 z"
         transform="translate(-0.875,-11.25)" />
      <path
         sodipodi:type="inkscape:offset"
         inkscape:radius="-0.6069721"
         inkscape:original="M 99.1875 56.988281 A 2.6875 2.6875 0 0 0 96.5 59.675781 A 2.6875 2.6875 0 0 0 99.1875 62.363281 A 2.6875 2.6875 0 0 0 101.875 59.675781 A 2.6875 2.6875 0 0 0 99.1875 56.988281 z "
         style="display:inline;opacity:1;fill:#aa87de;fill-opacity:1;stroke:none;stroke-width:1;stroke-miterlimit:4;stroke-dasharray:none;stroke-opacity:1"
         id="path8841"
         d="m 99.1875,57.595703 c -0.544681,0 -1.085556,0.224228 -1.470703,0.609375 -0.385148,0.385148 -0.609375,0.926022 -0.609375,1.470703 0,0.544681 0.224227,1.085556 0.609375,1.470703 0.385147,0.385148 0.926022,0.609375 1.470703,0.609375 0.544681,0 1.08556,-0.224227 1.4707,-0.609375 0.38515,-0.385147 0.60938,-0.926022 0.60938,-1.470703 0,-0.544681 -0.22423,-1.085555 -0.60938,-1.470703 -0.38514,-0.385147 -0.926019,-0.609375 -1.4707,-0.609375 z"
         transform="translate(-0.875,-11.25)" />
      <path
         style="display:inline;opacity:1;fill:#000000;fill-opacity:1;stroke:none;stroke-width:1;stroke-miterlimit:4;stroke-dasharray:none;stroke-opacity:1"
         d="m 96.013003,52.984059 c 1.015838,-0.539166 1.375433,-1.817597 0.789633,-2.807277 l -1.082333,-1.82871 c -0.54841,-0.926693 -1.728328,-1.258725 -2.679536,-0.754031 l -11.148025,5.686511 c -1.015834,0.539164 -1.375435,1.817597 -0.789638,2.807281 l 1.082333,1.82871 c 0.548411,0.926694 1.728333,1.258726 2.679541,0.754027 z"
         id="path8843"
         inkscape:connector-curvature="0"
         sodipodi:nodetypes="ccccccccc" />
      <path
         sodipodi:nodetypes="ccccc"
         inkscape:connector-curvature="0"
         id="path8845"
         d="M 95.067106,51.203651 83.920273,56.89015 82.83794,55.06144 93.984773,49.374941 Z"
         style="display:inline;opacity:1;fill:#aa87de;fill-opacity:1;stroke:none;stroke-width:1;stroke-miterlimit:4;stroke-dasharray:none;stroke-opacity:1" />
      <path
         sodipodi:type="inkscape:offset"
         inkscape:radius="1.5026014"
         inkscape:original="M 76.083984 64.054688 C 75.319714 64.065363 74.55459 64.251099 73.835938 64.642578 C 72.46274 65.390613 70.441483 66.334395 71.130859 68.501953 C 71.519041 69.722482 73.602622 75.250839 74.607422 75.882812 C 76.192217 76.879582 76.634621 76.434764 78.480469 75.65625 C 81.496629 74.384142 82.901897 70.887104 81.619141 67.845703 C 80.657081 65.564652 78.376795 64.022662 76.083984 64.054688 z "
         style="display:inline;opacity:1;fill:#000000;fill-opacity:1;stroke:none;stroke-width:1;stroke-miterlimit:4;stroke-dasharray:none;stroke-opacity:1"
         id="path8850"
         d="m 76.0625,62.552734 c -0.993641,0.01388 -2.008551,0.259239 -2.945312,0.769532 -0.647751,0.352855 -1.630627,0.802392 -2.478516,1.664062 -0.847889,0.861671 -1.431787,2.422692 -0.939453,3.970703 0.230836,0.7258 0.841046,2.384821 1.558593,4.050781 0.358774,0.832981 0.738211,1.651574 1.119141,2.347657 0.38093,0.696082 0.540851,1.23979 1.429688,1.798828 0.931007,0.585565 1.943186,0.909985 2.871093,0.765625 0.927907,-0.14436 1.518607,-0.512767 2.386719,-0.878906 3.770717,-1.590354 5.535189,-5.995824 3.939453,-9.779297 -1.198217,-2.840982 -3.961182,-4.750612 -6.941406,-4.708985 z"
         transform="translate(1.6793786,-11.325825)" />
      <path
         sodipodi:type="inkscape:offset"
         inkscape:radius="-0.42365652"
         inkscape:original="M 76.083984 64.054688 C 75.319714 64.065363 74.55459 64.251099 73.835938 64.642578 C 72.46274 65.390613 70.441483 66.334395 71.130859 68.501953 C 71.519041 69.722482 73.602622 75.250839 74.607422 75.882812 C 76.192217 76.879582 76.634621 76.434764 78.480469 75.65625 C 81.496629 74.384142 82.901897 70.887104 81.619141 67.845703 C 80.657081 65.564652 78.376795 64.022662 76.083984 64.054688 z "
         style="display:inline;opacity:1;fill:#aa87de;fill-opacity:1;stroke:none;stroke-width:1;stroke-miterlimit:4;stroke-dasharray:none;stroke-opacity:1"
         id="path8852"
         d="m 76.089844,64.478516 c -0.699599,0.0098 -1.393625,0.177176 -2.050782,0.535156 -0.697552,0.379984 -1.509039,0.79749 -2.027343,1.324219 -0.518304,0.526728 -0.779622,1.082266 -0.476563,2.035156 0.183731,0.577689 0.803522,2.274143 1.492188,3.873047 0.344333,0.799452 0.70714,1.579017 1.039062,2.185547 0.331923,0.606529 0.694206,1.046877 0.765625,1.091797 0.753317,0.473804 1.118927,0.561022 1.548828,0.49414 0.429902,-0.06688 0.997169,-0.356178 1.935547,-0.751953 2.803414,-1.182379 4.106621,-4.423685 2.91211,-7.255859 -0.895476,-2.12318 -3.039677,-3.560569 -5.138672,-3.53125 z"
         transform="translate(1.6793786,-11.325825)" />
    </g>
    <g
       inkscape:groupmode="layer"
       id="layer8"
       inkscape:label="Head"
       style="display:inline">
      <path
         sodipodi:type="inkscape:offset"
         inkscape:radius="0"
         inkscape:original="M 77.267578 17.136719 C 77.214698 17.138419 77.1617 17.142641 77.109375 17.150391 L 66.839844 18.691406 C 66.004261 19.151231 64.836663 20.089823 64.814453 21.001953 L 64.814453 32.332031 C 64.814608 32.875722 65.134154 33.368748 65.630859 33.589844 L 81.939453 40.841797 C 82.898219 40.920747 83.633156 40.736824 84.46875 40.560547 L 94.103516 35.951172 C 94.581706 35.722331 94.884796 35.239116 94.884766 34.708984 L 94.884766 22.427734 C 94.558266 21.459588 94.27453 19.996413 93.3125 19.802734 L 77.542969 17.154297 C 77.452399 17.138827 77.359414 17.133889 77.267578 17.136719 z "
         style="display:inline;opacity:1;fill:#000000;fill-opacity:1;stroke:none;stroke-width:1;stroke-miterlimit:4;stroke-dasharray:none;stroke-opacity:1"
         id="path8809"
         d="m 77.267578,17.136719 c -0.05288,0.0017 -0.105878,0.0059 -0.158203,0.01367 l -10.269531,1.541015 c -0.835583,0.459825 -2.003181,1.398417 -2.025391,2.310547 l 0,11.330078 c 1.55e-4,0.543691 0.319701,1.036717 0.816406,1.257813 l 16.308594,7.251953 c 0.958766,0.07895 1.693703,-0.104973 2.529297,-0.28125 l 9.634766,-4.609375 c 0.47819,-0.228841 0.78128,-0.712056 0.78125,-1.242188 l 0,-12.28125 c -0.3265,-0.968146 -0.610236,-2.431321 -1.572266,-2.625 L 77.542969,17.154297 c -0.09057,-0.01547 -0.183555,-0.02041 -0.275391,-0.01758 z"
         transform="translate(0,-10)" />
      <path
         sodipodi:type="inkscape:offset"
         inkscape:radius="-1.06066"
         inkscape:original="M 66.189453 21.001953 L 66.189453 32.332031 L 82.498047 39.583984 L 82.498047 24.605469 L 66.189453 21.001953 z "
         style="display:inline;opacity:1;fill:#aa87de;fill-opacity:1;stroke:none;stroke-width:1;stroke-miterlimit:4;stroke-dasharray:none;stroke-opacity:1"
         id="path8811"
         d="m 67.25,22.322266 0,9.320312 14.1875,6.308594 0,-12.494141 L 67.25,22.322266 Z"
         transform="translate(0,-10)" />
      <path
         sodipodi:type="inkscape:offset"
         inkscape:radius="-0.93439603"
         inkscape:original="M 93.507812 22.429688 L 83.875 24.605469 L 83.875 39.318359 L 93.507812 34.708984 L 93.507812 22.429688 z "
         style="display:inline;opacity:1;fill:#aa87de;fill-opacity:1;stroke:none;stroke-width:1;stroke-miterlimit:4;stroke-dasharray:none;stroke-opacity:1"
         id="path8813"
         d="m 92.574219,23.599609 -7.765625,1.751953 0,12.484376 7.765625,-3.714844 0,-10.521485 z"
         transform="translate(0,-10)" />
      <path
         sodipodi:type="inkscape:offset"
         inkscape:radius="-0.40600023"
         inkscape:original="M 77.314453 18.511719 L 67.044922 20.054688 L 83.451172 23.335938 L 93.085938 21.158203 L 77.314453 18.511719 z "
         style="display:inline;opacity:1;fill:#aa87de;fill-opacity:1;stroke:none;stroke-width:1;stroke-miterlimit:4;stroke-dasharray:none;stroke-opacity:1"
         id="path8815"
         d="m 77.314453,18.923828 -7.912109,1.1875 14.042968,2.808594 7.53711,-1.703125 -13.667969,-2.292969 z"
         transform="translate(0,-10)" />
      <path
         style="display:inline;opacity:1;fill:#5a2ca0;fill-opacity:1;stroke:none;stroke-width:1;stroke-miterlimit:4;stroke-dasharray:none;stroke-opacity:1"
         d="m 75.57258,30.376717 c 0.006,0.944415 -0.581664,1.557139 -1.467435,1.529618 l 0.163759,7.220194 -1.483419,-0.571987 -0.163765,-7.220781 c -0.890362,-0.657285 -1.4909,-1.727877 -1.499407,-2.673047 -0.0094,-1.232596 0.979248,-1.847666 2.208158,-1.373799 1.228908,0.473837 2.232733,1.857207 2.242109,3.089802 z m -1.483421,-0.571998 c -0.0031,-0.410858 -0.337736,-0.871979 -0.747371,-1.029931 -0.409637,-0.157979 -0.739177,0.04706 -0.736052,0.457932 0.0031,0.41085 0.337735,0.871981 0.747371,1.029932 0.409636,0.157979 0.739175,-0.04707 0.736052,-0.457933 z"
         id="path13559"
         inkscape:connector-curvature="0"
         sodipodi:nodetypes="ccccccscsssss"
         clip-path="url(#clipPath9170)"
         transform="translate(0,-10)" />
      <path
         style="display:inline;opacity:0.9;fill:#5a2ca0;fill-opacity:1;stroke:none;stroke-width:1;stroke-miterlimit:4;stroke-dasharray:none;stroke-opacity:1;filter:url(#filter9906)"
         d="m 72.447266,16.753906 c -0.323259,0.01271 -0.623965,0.100682 -0.882813,0.261719 -0.519133,0.322959 -0.821884,0.928157 -0.816406,1.646484 l 0,0.002 c 0.0094,1.037601 0.609907,2.105481 1.5,2.832032 l 0.06641,3.384765 c 9.91e-4,0.04943 0.03077,0.09371 0.07617,0.113282 L 74.378908,25.877 c 0.08429,0.03783 0.1793,-0.02481 0.177735,-0.117187 l -0.07031,-3.548828 c 0.364334,-0.05769 0.708923,-0.184552 0.958984,-0.445313 0.333726,-0.348005 0.505452,-0.840063 0.501954,-1.390625 -0.01088,-1.430127 -1.091734,-2.901285 -2.482422,-3.4375 -0.348733,-0.134473 -0.694564,-0.196289 -1.017578,-0.183594 z m 0.621093,2.34375 c 0.03046,-9.73e-4 0.07645,0.0033 0.138672,0.02734 0.116945,0.04509 0.251187,0.161652 0.34961,0.296875 0.09842,0.135223 0.157482,0.289266 0.158203,0.384766 l 0,0.002 c 4.47e-4,0.0564 -0.0075,0.08307 -0.01367,0.0957 -0.0061,0.01263 -0.0083,0.01524 -0.02148,0.02344 -0.01473,0.0091 -0.06645,0.03264 -0.191407,-0.01563 -0.11694,-0.04509 -0.251186,-0.161649 -0.349609,-0.296875 -0.09842,-0.135225 -0.157483,-0.289274 -0.158203,-0.384765 l 0,-0.002 c -4.48e-4,-0.05641 0.0075,-0.08307 0.01367,-0.0957 0.0061,-0.01263 0.0083,-0.01524 0.02148,-0.02344 0.007,-0.0044 0.02211,-0.01077 0.05273,-0.01171 z"
         id="path9910"
         inkscape:connector-curvature="0"
         sodipodi:nodetypes="ccccccccccsccccccccccccsccccc" />
    </g>
    <g
       style="opacity:1"
       id="g6282"
       inkscape:label="Gear12"
       transform="matrix(0.11182476,0,0,0.11182476,73.508238,96.53147)" />
    <g
       style="opacity:1"
       transform="matrix(0.10801442,-0.02894238,0.02894238,0.10801442,82.993496,96.53147)"
       inkscape:label="Gear12"
       id="g6317" />
  </g>
  <g
     inkscape:groupmode="layer"
     id="layer22"
     inkscape:label="Frame"
     sodipodi:insensitive="true"
     style="display:none">
    <g
       style="display:inline"
       transform="matrix(0.66664978,0,0,0.66664978,-75.56477,-344.95492)"
       id="g8901">
      <path
         inkscape:connector-curvature="0"
         id="path8162"
         d="m 190.77903,649.46266 c 0.003,-0.31605 0.62097,-8.67425 0.64237,-8.68558 0.0594,-0.0314 4.37654,0.0478 4.37923,0.0803 0.007,0.0806 -0.42953,8.54947 -0.44051,8.55279 -0.0408,0.0124 -4.51554,0.17761 -4.54528,0.16787 -0.0202,-0.007 -0.0363,-0.0586 -0.0358,-0.11542 z"
         style="display:inline;fill:#000000;fill-opacity:1;stroke:none;stroke-width:0.3973152;stroke-miterlimit:4;stroke-dasharray:none;stroke-opacity:1" />
      <path
         sodipodi:nodetypes="cccccccccccc"
         inkscape:connector-curvature="0"
         id="path8160"
         d="m 196.66318,648.03997 0.13947,-5.74391 0.10157,-4.14467 0.15849,-0.0169 2.72727,-0.3043 2.57372,-0.26865 0.44482,7.69524 -2.4437,0.71079 0.85868,3.5651 -4.37769,0.0896 -0.22053,0.017 z"
         style="display:inline;fill:#000000;fill-opacity:1;stroke:none;stroke-width:0.3973152;stroke-miterlimit:4;stroke-dasharray:none;stroke-opacity:1" />
      <path
         sodipodi:nodetypes="cccccc"
         inkscape:connector-curvature="0"
         id="path8158"
         d="m 203.66347,637.87432 c 0.0141,-0.0458 0.85274,-0.0841 2.35798,-0.10771 1.28487,-0.0201 2.36019,-0.0282 2.38961,-0.0179 0.0407,0.0143 -0.0244,5.78193 -0.0721,6.02317 l -4.42134,1.33993 z"
         style="display:inline;fill:#000000;fill-opacity:1;stroke:none;stroke-width:0.3973152;stroke-miterlimit:4;stroke-dasharray:none;stroke-opacity:1" />
      <path
         sodipodi:nodetypes="cccccc"
         inkscape:connector-curvature="0"
         id="path8154"
         d="m 209.12613,643.42728 0.0935,-2.75884 4.66735,-0.26862 -0.27351,8.10725 -3.4879,-5.43986 z"
         style="display:inline;fill:#000000;fill-opacity:1;stroke:none;stroke-width:0.3973152;stroke-miterlimit:4;stroke-dasharray:none;stroke-opacity:1" />
      <path
         inkscape:connector-curvature="0"
         id="path8164"
         d="m 195.77902,667.00968 0.76052,-7.70621 -2.97183,-4.59794 c -1.63451,-2.52887 -2.96655,-4.60323 -2.96009,-4.60969 0.006,-0.006 3.99125,0.0393 8.85507,0.10164 4.86383,0.0624 8.85026,0.10716 8.85872,0.0996 0.0253,-0.0227 -1.07663,-1.79272 -1.11605,-1.79272 -0.02,0 -1.19545,0.219 -2.61222,0.48666 -1.41676,0.26765 -2.5805,0.48233 -2.58609,0.47705 -0.0241,-0.0228 -0.89872,-2.88721 -0.89828,-2.942 3e-4,-0.0378 1.58057,-0.53195 4.18844,-1.3098 2.30338,-0.68703 4.27901,-1.27652 4.3903,-1.30997 l 0.20234,-0.0608 2.24475,3.28749 2.24476,3.28749 -3.52799,4.59501 c -2.48228,3.23304 -3.52527,4.6274 -3.51884,4.70433 0.005,0.0601 0.41271,3.4086 0.90597,7.44105 z"
         style="display:inline;fill:#000000;fill-opacity:1;stroke:none;stroke-width:0.3973152;stroke-miterlimit:4;stroke-dasharray:none;stroke-opacity:1" />
    </g>
    <path
       transform="translate(-166.52356,-106.01711)"
       style="display:inline;opacity:1;fill:#000000;fill-opacity:1;stroke:none;stroke-width:0.40000001;stroke-miterlimit:4;stroke-dasharray:none;stroke-opacity:1"
       d="m 260.67423,185.87679 c -0.6321,3.48601 -1.79647,7.02176 -1.58466,10.29679 0.19983,4.46716 0.83028,5.40755 6.80253,9.6407 l -34.64544,0.0105 -0.74232,-4.56906 4.52535,-6.47881 0.47766,-8.95162 z"
       id="path8828"
       inkscape:connector-curvature="0"
       sodipodi:nodetypes="cccccccc" />
    <path
       transform="translate(-166.52356,-106.01711)"
       style="display:inline;opacity:1;fill:#000000;fill-opacity:1;stroke:none;stroke-width:0.40000001;stroke-miterlimit:4;stroke-dasharray:none;stroke-opacity:1"
       d="m 276.72079,185.87695 c 0.6321,3.48601 1.7964,7.02158 1.58459,10.29661 -0.19982,4.46716 -0.83096,5.40723 -6.80321,9.64038 l 23.77544,0.007 0.001,0.004 2.71087,-0.003 4.15875,0.003 10e-4,-0.0104 0.64191,0 9.74715,-9.97501 -9.76538,-9.96459 z"
       id="path8830"
       inkscape:connector-curvature="0"
       sodipodi:nodetypes="cccccccccccc" />
    <path
       transform="translate(-166.52356,-106.01711)"
       style="display:inline;fill:#000000;fill-opacity:1"
       d="m 179.25654,186.49208 c -0.4621,-3.5e-4 -0.89014,0.0234 -0.98113,0.0709 -0.07,0.0365 -0.15559,0.0552 -0.19029,0.0418 -0.0992,-0.038 -0.97768,0.27426 -1.47508,0.5243 -0.88182,0.44331 -1.51544,0.97425 -2.02908,1.69979 -0.77535,1.09522 -1.20072,2.07652 -1.39815,3.22614 -0.10506,0.61173 -0.0923,1.58427 0.0149,2.41506 l 0.36236,0 1.46428,0 1.28412,-2.33205 c 0.70641,-1.28236 1.29807,-2.31984 1.31447,-2.30575 0.0164,0.0141 0.66489,1.50548 1.44067,3.31455 0.77579,1.80905 1.42001,3.28924 1.4319,3.28889 0.0119,-3.4e-4 0.193,-0.20313 0.40285,-0.45007 l 0.38192,-0.44874 0.62688,0 0.62687,0 0.0857,-0.10189 c 0.0473,-0.0561 0.17249,-0.1521 0.2787,-0.21323 0.69981,-0.4028 1.6731,-0.21418 2.06214,0.39948 0.15083,0.23792 0.15083,0.65953 0,0.89746 -0.38904,0.61365 -1.36233,0.80227 -2.06214,0.39947 -0.10621,-0.0611 -0.23149,-0.15718 -0.2787,-0.21324 -0.0801,-0.0951 -0.10308,-0.10191 -0.34345,-0.10121 l -0.2571,6.4e-4 -0.97169,1.13432 -0.97169,1.13499 -1.30099,-3.03114 c -0.71587,-1.66731 -1.31284,-3.02629 -1.32663,-3.01966 -0.0138,0.007 -0.3608,0.62 -0.7706,1.36307 l -0.74496,1.35092 -1.56078,0 -0.94875,0 c 0.10726,0.37691 0.24351,0.80754 0.3347,1.02027 0.0939,0.21908 0.81565,1.0296 1.43865,1.61611 0.20117,0.18941 0.66482,0.63504 1.03039,0.98991 1.78065,1.72853 5.54908,5.18209 6.8241,6.2539 0.59424,0.49954 0.66562,0.51278 1.04861,0.18827 1.67295,-1.41752 3.6337,-3.2156 6.76,-6.1979 0.73047,-0.69684 1.47014,-1.38666 1.64377,-1.53311 0.8247,-0.69563 1.37777,-1.70896 1.64108,-3.00819 0.14226,-0.70199 0.15325,-2.39907 0.0195,-3.01224 -0.20542,-0.94213 -0.66241,-2.01828 -1.22406,-2.8847 -0.62475,-0.96376 -1.59338,-1.67307 -3.01764,-2.20857 -0.29397,-0.11053 -0.52501,-0.17133 -0.59584,-0.15723 -0.0635,0.0127 -0.15555,-0.007 -0.20445,-0.0425 -0.0701,-0.0513 -0.28907,-0.0648 -1.03782,-0.0648 -0.94425,0 -0.9524,2.8e-4 -1.49128,0.15589 -0.60786,0.17552 -1.14784,0.39372 -1.59249,0.64239 -0.35234,0.19704 -0.90204,0.62533 -1.11542,0.86911 -0.17181,0.19629 -0.16195,0.1991 -0.51351,-0.15721 -0.53159,-0.53879 -1.94547,-1.23426 -2.92992,-1.44135 -0.22697,-0.0478 -0.72281,-0.0724 -1.18493,-0.0729 z"
       id="path8877-6"
       inkscape:connector-curvature="0" />
    <path
       transform="translate(-166.52356,-106.01711)"
       sodipodi:nodetypes="cccccsccc"
       inkscape:connector-curvature="0"
       id="path8908"
       d="m 217.48098,185.87679 -0.63666,8.75913 3.90192,6.07788 -0.54183,4.97125 -34.99061,0.13976 c 3.94496,-2.92967 6.83744,-6.17186 8.91334,-7.98025 1.15786,-1.00865 1.13137,-1.95719 1.44796,-3.15377 0.52411,-4.26885 -1.20261,-7.31279 -3.73348,-8.86547 z"
       style="display:inline;opacity:1;fill:#000000;fill-opacity:1;stroke:none;stroke-width:0.40000001;stroke-miterlimit:4;stroke-dasharray:none;stroke-opacity:1" />
    <path
       transform="translate(-166.52356,-106.01711)"
       style="display:inline;fill:#000000"
       d="m 268.86544,186.49197 c -0.37674,6.4e-4 -0.75492,0.0225 -1.13409,0.0521 -0.20973,0.0147 -0.42067,0.0334 -0.6315,0.056 -0.007,6.7e-4 -0.0139,5.5e-4 -0.0208,0.001 l 0,0.001 c -1.36676,0.14794 -2.75861,0.45018 -4.23297,0.93097 -0.73247,0.23885 -0.87311,0.30576 -0.94659,0.44921 -0.11136,0.21739 -0.542,1.91409 -0.78123,3.07804 -0.0516,0.25096 -0.0884,0.47956 -0.13281,0.71874 -0.1,0.53833 -0.18326,1.05556 -0.24869,1.54944 -0.003,0.0236 -0.007,0.0481 -0.0104,0.0716 -0.0637,0.49147 -0.1128,0.9722 -0.14452,1.44137 -4.6e-4,0.007 -0.002,0.0141 -0.003,0.0208 -0.0331,0.49602 -0.0547,0.98877 -0.0547,1.48433 2e-5,1.77568 0.17257,2.73782 0.68879,3.84366 0.24242,0.51933 0.34614,0.66054 0.85284,1.15882 0.82931,0.81552 2.42494,1.9809 5.0129,3.66658 0.045,0.0293 0.0781,0.0524 0.12369,0.082 0.77702,0.5048 1.17421,0.72655 1.30075,0.72655 0.0381,0 0.15208,-0.0501 0.29556,-0.11849 0.28454,-0.12936 0.77557,-0.40147 1.35544,-0.73175 0.003,-0.001 0.005,-0.003 0.008,-0.004 0.55244,-0.31479 1.14051,-0.65263 1.77079,-1.04425 2.78884,-1.73284 3.90114,-2.63968 4.3879,-3.57803 0.51598,-0.99466 0.67221,-1.78474 0.72134,-3.63532 0.0164,-0.61859 0.007,-1.23036 -0.0287,-1.85022 -5.2e-4,-0.009 -0.002,-0.0183 -0.003,-0.0273 -0.0567,-0.9676 -0.19289,-1.97433 -0.39062,-3.05591 -0.1492,-0.81613 -0.3255,-1.66672 -0.56379,-2.61452 -0.37148,-1.47759 -0.27151,-1.34272 -1.22132,-1.6536 -1.6242,-0.53163 -3.15668,-0.84899 -4.67306,-0.96482 -0.43301,-0.0331 -0.8647,-0.0555 -1.29684,-0.0547 z m 1.29684,1.29945 c 1.37514,0.11304 2.77455,0.40877 4.28635,0.90362 0.13976,0.0457 0.16512,0.0537 0.24348,0.0794 -0.0548,-0.0461 -0.001,0.0608 0.15755,0.69398 0.21082,0.83855 0.3745,1.59297 0.51171,2.31115 l -5.19909,0 0,-3.98818 z m -3.08326,0.0651 0,3.92308 -4.828,0 c 0.0305,-0.15839 0.0534,-0.30293 0.0872,-0.46744 0.11397,-0.55453 0.27879,-1.25944 0.42576,-1.8385 0.0649,-0.2559 0.12365,-0.4719 0.17448,-0.65232 0.0972,-0.0352 0.11036,-0.0446 0.29297,-0.10416 1.35768,-0.44276 2.61869,-0.71774 3.84755,-0.86066 z m -5.25117,7.00633 5.25117,0 0,8.65864 c -2.14262,-1.42086 -3.52176,-2.45135 -4.14052,-3.05982 -0.48341,-0.47539 -0.3762,-0.32247 -0.59764,-0.79686 -0.44411,-0.95137 -0.57158,-1.62259 -0.5716,-3.31762 0,-0.49604 0.0236,-0.98793 0.0586,-1.48434 z m 8.33443,0 5.60272,0 c 0.0366,0.60971 0.0487,1.20889 0.0325,1.81766 -0.0475,1.78999 -0.14282,2.24835 -0.58201,3.09498 -0.28075,0.54121 -1.1905,1.38526 -3.94,3.09367 -0.39703,0.24669 -0.73451,0.43329 -1.11326,0.65623 l 0,-8.66254 z"
       id="path8958"
       inkscape:connector-curvature="0" />
    <path
       transform="translate(-166.52356,-106.01711)"
       inkscape:connector-curvature="0"
       style="display:inline;opacity:1;fill:#000000;fill-opacity:1;stroke:none;stroke-width:0.40000001;stroke-miterlimit:4;stroke-dasharray:none;stroke-opacity:1"
       d="m 175.38636,185.82487 -8.8628,0.0182 0,19.92006 15.49024,0.0612 c -3.94496,-2.92967 -6.83794,-6.17188 -8.91384,-7.98027 -1.15786,-1.00865 -1.13129,-1.95699 -1.44788,-3.15356 -0.52411,-4.26885 1.20341,-7.31298 3.73428,-8.86566 z"
       id="path8995-0"
       sodipodi:nodetypes="ccccsccc" />
  </g>
</svg>
