<?xml version="1.0" encoding="UTF-8" standalone="no"?>
<!-- Created with Inkscape (http://www.inkscape.org/) -->

<svg
   xmlns:dc="http://purl.org/dc/elements/1.1/"
   xmlns:cc="http://creativecommons.org/ns#"
   xmlns:rdf="http://www.w3.org/1999/02/22-rdf-syntax-ns#"
   xmlns:svg="http://www.w3.org/2000/svg"
   xmlns="http://www.w3.org/2000/svg"
   xmlns:sodipodi="http://sodipodi.sourceforge.net/DTD/sodipodi-0.dtd"
   xmlns:inkscape="http://www.inkscape.org/namespaces/inkscape"
   width="29.999998"
   height="30"
   viewBox="0 0 29.999998 29.999999"
   id="svg4454"
   version="1.1"
   inkscape:version="0.91 r13725"
   sodipodi:docname="icons.svg">
  <defs
     id="defs4456" />
  <sodipodi:namedview
     id="base"
     pagecolor="#ffffff"
     bordercolor="#666666"
     borderopacity="1.0"
     inkscape:pageopacity="0.0"
     inkscape:pageshadow="2"
     inkscape:zoom="9.757377"
     inkscape:cx="6.4039383"
     inkscape:cy="4.3763202"
     inkscape:document-units="px"
     inkscape:current-layer="layer15"
     showgrid="false"
     inkscape:window-width="1440"
     inkscape:window-height="852"
     inkscape:window-x="0"
     inkscape:window-y="0"
     inkscape:window-maximized="1"
     fit-margin-top="0"
     fit-margin-left="0"
     fit-margin-right="0"
     fit-margin-bottom="0"
     units="px"
     showguides="true"
     inkscape:guide-bbox="true" />
  <metadata
     id="metadata4459">
    <rdf:RDF>
      <cc:Work
         rdf:about="">
        <dc:format>image/svg+xml</dc:format>
        <dc:type
           rdf:resource="http://purl.org/dc/dcmitype/StillImage" />
        <dc:title />
      </cc:Work>
    </rdf:RDF>
  </metadata>
  <g
     inkscape:groupmode="layer"
     id="layer4"
     inkscape:label="People"
     style="display:none">
    <circle
       style="opacity:0.98999999;fill:#000000;fill-opacity:1;stroke:none;stroke-width:1;stroke-miterlimit:4;stroke-dasharray:none;stroke-dashoffset:0;stroke-opacity:1"
       id="path4162"
       cx="14.999999"
       cy="7.987299"
       r="7.4721494" />
    <path
       style="opacity:0.98999999;fill:#000000;fill-opacity:1;stroke:none;stroke-width:1;stroke-miterlimit:4;stroke-dasharray:none;stroke-dashoffset:0;stroke-opacity:1"
       d="M 14.994225,17.068231 A 14.829342,14.829342 0 0 0 0.37883182,29.484848 l 29.24233418,0 A 14.829342,14.829342 0 0 0 14.994225,17.068231 Z"
       id="circle4164"
       inkscape:connector-curvature="0" />
  </g>
  <g
     inkscape:groupmode="layer"
     id="layer18"
     inkscape:label="Search"
     style="display:none">
    <path
       style="display:inline;opacity:0.98999999;fill:#000000;fill-opacity:1;stroke:none;stroke-width:0.1;stroke-miterlimit:4;stroke-dasharray:none;stroke-opacity:1;enable-background:new"
       d="M 12.951647,0.00195708 A 11.099721,11.099721 0 0 0 5.7541522,2.4766451 11.099721,11.099721 0 0 0 4.1232412,18.090424 11.099721,11.099721 0 0 0 17.354131,21.180367 l 6.86936,8.470973 a 0.94402117,0.94402117 0 0 0 1.326214,0.138676 l 2.45711,-1.99225 a 0.94402117,0.94402117 0 0 0 0.138676,-1.326215 L 21.3484,18.090424 A 11.099721,11.099721 0 0 0 21.36598,4.1075561 11.099721,11.099721 0 0 0 12.951648,0.00195708 Z M 12.914537,2.0000681 A 9.101315,9.101315 0 0 1 19.813195,5.3673621 9.101315,9.101315 0 0 1 18.477215,18.168552 9.101315,9.101315 0 0 1 5.6760262,16.830619 9.101315,9.101315 0 0 1 7.0120052,4.0294301 9.101315,9.101315 0 0 1 12.914537,2.0000681 Z m 7.109603,17.4693069 6.045114,7.455316 -0.972687,0.789087 -6.0666,-7.4768 a 11.099721,11.099721 0 0 0 0.705101,-0.515642 11.099721,11.099721 0 0 0 0.289072,-0.251961 z"
       id="path17483"
       inkscape:connector-curvature="0" />
  </g>
  <g
     inkscape:groupmode="layer"
     id="layer17"
     inkscape:label="Sacrifice"
     style="display:none">
    <path
       id="rect3703"
       style="opacity:0.98999999;fill:#000000;fill-opacity:1;fill-rule:nonzero;stroke:none;stroke-width:1;stroke-linecap:round;stroke-miterlimit:4;stroke-dasharray:none;stroke-dashoffset:0;stroke-opacity:1"
       d="m 9.400592,15.406547 3.730078,2.4765 -4.116782,6.200654 C 7.195544,26.991483 4.18776,28.815916 -9.0367432e-7,29.565622 Z m 8.584899,-11.2934675 -0.04601,0.141547 c -0.02465,0.07768 -0.465849,1.45576 -0.979444,3.061866 -0.581477,1.818403 -0.920645,2.9288005 -0.898873,2.9439345 0.03155,0.02194 2.036823,0.648534 2.059564,0.643609 0.0051,-10e-4 0.341664,-0.760931 0.747306,-1.6875035 0.405629,-0.926565 0.745058,-1.692945 0.752954,-1.704501 0.01558,-0.0228 1.475638,0.03823 1.478758,0.06189 8.19e-4,0.0082 -1.602273,2.300585 -3.563246,5.0932225 -1.96092,2.792654 -3.563802,5.082303 -3.562501,5.087774 8.87e-4,0.0068 1.729186,0.0559 3.840848,0.109911 l 3.84031,0.0976 3.334907,2.79739 a 12.608393,12.608393 0 0 0 3.329789,-3.302227 12.608393,12.608393 0 0 0 1.680146,-3.594188 c -1.907694,-0.987949 -3.802179,-1.969165 -3.832511,-1.986116 -0.0474,-0.02627 -0.440936,-1.183665 -1.3313,-3.9009525 l -1.265496,-3.861947 -2.794313,-3.39e-4 -2.790892,-9.55e-4 z m -0.545742,0.27704 -1.561044,-1.145926 1.691468,-2.80981695 4.587807,3.36681095 -4.531297,-0.132449 z m -5.378303,0.966654 c -0.02084,-0.02646 0.288755,-0.527224 0.870767,-1.408473 0.496837,-0.7522 0.917693,-1.378276 0.935258,-1.391273 0.0244,-0.01784 3.339456,2.302313 3.460342,2.425371 l -0.97357,3.091289 z m 3.11805,8.0778245 -3.271912,-2.353895 -2.360574,-1.6990415 0.05295,-0.09851 0.903038,-1.700178 0.862912,-1.597113 4.633434,2.787668 -0.555359,1.6967855 2.404864,0.913481 -1.68054,2.571189 -0.07738,0.134494 z m -1.504524,3.971353 c -0.181645,-0.12716 -4.778736,-3.792455 -4.776827,-3.809338 0.0053,-0.04678 1.759671,-2.516149 1.779555,-2.504841 0.04954,0.02773 4.782222,3.632181 4.7798,3.639855 -0.009,0.02854 -1.684112,2.685872 -1.701526,2.699247 -0.01203,0.0089 -0.04831,-0.0022 -0.08101,-0.02496 z"
       inkscape:connector-curvature="0" />
  </g>
  <g
     inkscape:label="Refresh"
     inkscape:groupmode="layer"
     id="layer1"
     transform="translate(-73.938735,-297.33928)"
     style="display:none">
    <g
       id="g10423"
       transform="matrix(1.1429006,0,0,0.7833163,-38.138373,97.057952)"
       style="opacity:0.98999999">
      <path
         sodipodi:nodetypes="csscsccccscsssscsscsccc"
         inkscape:connector-curvature="0"
         id="path10419"
         d="m 98.063739,275.99912 c 0.21823,-1.49121 0.69857,-2.77328 1.48919,-3.97478 1.405471,-2.13587 3.547471,-3.59515 6.053671,-4.12418 0.58624,-0.12375 1.39786,-0.20443 1.88265,-0.18715 0.2243,0.008 0.40782,0.004 0.40782,-0.01 0,-0.0239 -0.61565,-1.82822 -0.68242,-2 -0.0185,-0.0475 -0.0442,-0.15888 -0.0572,-0.24752 -0.0568,-0.38664 0.2897,-0.75151 0.71544,-0.75346 0.18538,-8.4e-4 0.29942,0.0492 0.57688,0.2532 0.15865,0.11664 1.54064,1.13848 3.22973,2.38805 2.23493,1.65337 2.88416,2.13891 2.88324,2.15627 -5.6e-4,0.0112 -0.18324,0.15902 -0.40588,0.32842 -0.37232,0.28328 -1.18815,0.90873 -4.09765,3.14143 -0.59072,0.4533 -1.24959,0.95848 -1.46416,1.12263 -0.22026,0.1685 -0.45339,0.3175 -0.53541,0.3422 -0.2869,0.0864 -0.61522,-0.0343 -0.7971,-0.29311 -0.17332,-0.2466 -0.1522,-0.37438 0.26981,-1.63259 0.20061,-0.59812 0.36474,-1.10961 0.36474,-1.13665 0,-0.0412 -0.0794,-0.0457 -0.49223,-0.0277 -1.79439,0.0784 -3.2648,0.78825 -4.41066,2.12929 -0.96024,1.12379 -1.47945,2.73568 -1.35445,4.20488 0.65293,3.01264 4.45132,4.57171 6.01343,4.61647 -4.27296,1.54778 -9.280875,-1.32974 -9.589441,-6.2957 z"
         style="fill:#000000" />
      <path
         style="fill:#000000"
         d="m 124.31274,273.66718 c -0.21823,1.49121 -0.69857,2.77328 -1.48919,3.97478 -1.40547,2.13587 -3.54747,3.59515 -6.05367,4.12418 -0.58624,0.12375 -1.39786,0.20443 -1.88265,0.18715 -0.2243,-0.008 -0.40782,-0.004 -0.40782,0.01 0,0.0239 0.61565,1.82822 0.68242,2 0.0185,0.0475 0.0442,0.15888 0.0572,0.24752 0.0568,0.38664 -0.2897,0.75151 -0.71544,0.75346 -0.18538,8.4e-4 -0.29942,-0.0492 -0.57688,-0.2532 -0.15865,-0.11664 -1.54064,-1.13848 -3.22973,-2.38805 -2.23493,-1.65337 -2.88416,-2.13891 -2.88324,-2.15627 5.6e-4,-0.0112 0.18324,-0.15902 0.40588,-0.32842 0.37232,-0.28328 1.18815,-0.90873 4.09765,-3.14143 0.59072,-0.4533 1.24959,-0.95848 1.46416,-1.12263 0.22026,-0.1685 0.45339,-0.3175 0.53541,-0.3422 0.2869,-0.0864 0.61522,0.0343 0.7971,0.29311 0.17332,0.2466 0.1522,0.37438 -0.26981,1.63259 -0.20061,0.59812 -0.36474,1.10961 -0.36474,1.13665 0,0.0412 0.0794,0.0457 0.49223,0.0277 1.79439,-0.0784 3.2648,-0.78825 4.41066,-2.12929 0.96024,-1.12379 1.47945,-2.73568 1.35445,-4.20488 -0.65293,-3.01264 -4.45132,-4.57171 -6.01343,-4.61647 4.27296,-1.54778 9.28087,1.32974 9.58944,6.2957 z"
         id="path10421"
         inkscape:connector-curvature="0"
         sodipodi:nodetypes="csscsccccscsssscsscsccc" />
    </g>
  </g>
  <g
     inkscape:groupmode="layer"
     id="layer15"
     inkscape:label="Play"
     style="display:inline">
    <g
       style="display:inline"
       id="g3346"
       transform="translate(4.8210048,0.26393731)">
      <path
         d="m 13.098573,24.700641 6.160842,0 0,5.139093 -6.160842,0 0,-5.139093 z m 0,-25.06825153 6.160842,0 0,13.25238553 -0.60698,7.223055 -4.916533,0 -0.637329,-7.223055 0,-13.25238553 z"
         style="font-style:normal;font-variant:normal;font-weight:normal;font-stretch:normal;font-size:medium;line-height:125%;font-family:Montserrat;-inkscape-font-specification:Montserrat;letter-spacing:0px;word-spacing:0px;fill:#000000;fill-opacity:1;stroke:none;stroke-width:1px;stroke-linecap:butt;stroke-linejoin:miter;stroke-opacity:1"
         id="path3338"
         inkscape:connector-curvature="0" />
      <path
         inkscape:connector-curvature="0"
         id="path3342"
         style="font-style:normal;font-variant:normal;font-weight:normal;font-stretch:normal;font-size:medium;line-height:125%;font-family:Montserrat;-inkscape-font-specification:Montserrat;letter-spacing:0px;word-spacing:0px;fill:#000000;fill-opacity:1;stroke:none;stroke-width:1px;stroke-linecap:butt;stroke-linejoin:miter;stroke-opacity:1"
         d="m 1.0985734,24.700641 6.1608415,0 0,5.139093 -6.1608415,0 0,-5.139093 z m 0,-25.06825153 6.1608415,0 0,13.25238553 -0.6069795,7.223055 -4.9165335,0 -0.6373285,-7.223055 0,-13.25238553 z" />
    </g>
  </g>
  <g
     inkscape:groupmode="layer"
     id="layer13"
     inkscape:label="Minion"
     style="display:none">
    <path
       style="display:inline;opacity:0.98999999;fill:#000000;fill-opacity:1;stroke:none;stroke-width:1;stroke-miterlimit:4;stroke-dasharray:none;stroke-opacity:1"
       d="M 14.997799,8.6146326e-5 C 10.316273,8.6146326e-5 6.52295,3.7933875 6.52295,8.474935 c 0.0044,3.587906 2.264355,6.785596 5.647062,7.981565 l 0.0044,0 0,13.339497 a 21.771804,21.771804 0 0 0 2.823542,0.204002 21.771804,21.771804 0 0 0 2.827765,-0.208356 l 0,-13.330963 c 3.381444,-1.197318 5.646822,-4.398427 5.651329,-7.985832 0,-4.6815476 -3.797547,-8.47484895367432 -8.479094,-8.47484895367432 z m 0,5.651307053674 c 1.560516,0 2.82352,1.2630259 2.82352,2.8235418 0,1.560516 -1.263004,2.827765 -2.82352,2.827765 -1.560494,0 -2.827787,-1.267249 -2.827787,-2.827765 0,-1.5605159 1.267293,-2.8235418 2.827787,-2.8235418 z"
       id="path4374"
       inkscape:connector-curvature="0" />
  </g>
  <g
     inkscape:groupmode="layer"
     id="layer14"
     inkscape:label="Heal"
     style="display:none">
    <path
       inkscape:connector-curvature="0"
       id="path3733"
       d="m 8.7190061,1.2877243 c -0.655537,-4.868e-4 -1.262774,0.033231 -1.391845,0.1003273 -0.09948,0.05207 -0.220742,0.07831 -0.269975,0.05927 -0.140755,-0.05376 -1.386935,0.389098 -2.09253,0.743779 -1.250964,0.62889 -2.149807,1.382086 -2.878473,2.411334 -1.09992202,1.553682 -1.70334902,2.945802 -1.98341902,4.576614 -0.14901,0.8678344 -0.130807,2.2474674 0.02117,3.4260424 l 0.514042,0 2.07724802,0 1.821646,-3.3082524 c 1.002134,-1.819191 1.841457,-3.29096 1.864719,-3.270979 0.02328,0.02117 0.943228,2.135688 2.043743,4.7020454 1.100556,2.566357 2.0144269,4.666105 2.0313179,4.665661 0.01693,-4.87e-4 0.273763,-0.288157 0.571465,-0.638499 l 0.541812,-0.636594 0.889276,0 0.889297,0 0.121494,-0.144565 c 0.0671,-0.07958 0.244681,-0.215789 0.395363,-0.302486 0.992757,-0.571466 2.373469,-0.303841 2.925356,0.566682 0.21399,0.337516 0.21399,0.93563 0,1.273146 -0.551887,0.870522 -1.932599,1.138084 -2.925356,0.566724 -0.150703,-0.08678 -0.328394,-0.223007 -0.395363,-0.302528 -0.113663,-0.134829 -0.146259,-0.144565 -0.487225,-0.143507 l -0.364714,8.89e-4 -1.378447,1.609159 -1.3784689,1.61009 -1.845563,-4.299994 c -1.015554,-2.365257 -1.862391,-4.293115 -1.88197,-4.283696 -0.02117,0.0085 -0.51184,0.879519 -1.093191,1.933658 l -1.056784,1.916407 -2.214131,0 -1.34591502,0 c 0.152185,0.534721 0.345432,1.145619 0.474821,1.447364 0.13334702,0.310804 1.15707002,1.460614 2.04084302,2.292657 0.285405,0.268641 0.943123,0.900853 1.461736,1.40427 2.526035,2.452101 7.8719559,7.351352 9.6807109,8.871824 0.842986,0.708623 0.944245,0.727418 1.487559,0.267075 2.373258,-2.010914 5.154769,-4.561671 9.589781,-8.792388 1.036233,-0.988524 2.085546,-1.967121 2.331878,-2.174888 1.169897,-0.986809 1.954485,-2.424332 2.328025,-4.267398 0.201714,-0.995889 0.217419,-3.4033524 0.02752,-4.2731974 -0.291394,-1.336496 -0.939693,-2.863149 -1.736452,-4.092268 -0.88627,-1.367187 -2.260357,-2.373425 -4.280838,-3.133079 -0.417037,-0.156842 -0.744774,-0.243052 -0.845271,-0.22305 -0.09017,0.01905 -0.220636,-0.01058 -0.290019,-0.06053 -0.09948,-0.07281 -0.410073,-0.092073 -1.472256,-0.092073 -1.339544,0 -1.351058,3.81e-4 -2.115538,0.221166 -0.86231,0.248977 -1.628335,0.558533 -2.25913,0.911288 -0.499818,0.279521 -1.279643,0.887117 -1.582341,1.232907 -0.243728,0.278483 -0.229737,0.282441 -0.728455,-0.223007 -0.75413,-0.764351 -2.759858,-1.750906 -4.156402,-2.044693 C 10.077777,1.3227016 9.3743621,1.287987 8.7188241,1.2869287 Z"
       style="display:inline;opacity:0.98999999;fill:#000000;fill-opacity:1" />
  </g>
  <g
     inkscape:groupmode="layer"
     id="layer25"
     inkscape:label="Energy"
     style="display:none">
    <path
       style="opacity:0.98999999;fill:#000000;fill-opacity:1;stroke:none;stroke-width:1.03936291;stroke-miterlimit:4;stroke-dasharray:none;stroke-opacity:1"
       d="M 14.999999,-6.5867432e-7 A 15,15 0 0 0 -9.5367431e-7,14.999999 15,15 0 0 0 14.999999,29.999999 a 15,15 0 0 0 15,-15 15,15 0 0 0 -15,-14.99999965867432 z M 15.667968,3.7167963 c 1.013034,0.04491 2.725042,0.5169663 4.302734,1.3789063 1.577692,0.86194 3.02751,2.1034112 3.738282,3.5820312 0.831433,1.7296402 1.051383,3.3515312 0.783203,4.6445312 -0.26818,1.293 -0.986522,2.272314 -2.203125,2.871094 -0.336399,0.16557 -1.001175,0.301593 -1.66211,0.308593 -0.660936,0.0067 -1.333379,-0.11419 -1.683594,-0.27539 -1.482469,-0.68234 -2.202446,-1.750602 -2.404296,-3.707031 -0.166723,-1.61596 -0.636004,-2.8338282 -1.535157,-3.7675784 -1.176822,-1.263 -2.633248,-1.7568163 -4.033203,-1.5976563 -1.402863,0.1595 -2.729073,0.888035 -3.957031,1.859375 C 5.973468,9.8364908 5.047235,10.889209 4.17578,11.943359 4.967484,10.341679 6.006054,8.8370751 7.234374,7.5722651 9.611633,5.1243751 12.619681,3.5816763 15.667968,3.7167963 Z M 9.373046,13.499999 c 0.660936,-0.0067 1.33338,0.114191 1.683594,0.275391 1.482469,0.68234 2.202447,1.750601 2.404297,3.707031 0.166723,1.61596 0.636003,2.833828 1.535156,3.767578 1.176821,1.263 2.633248,1.756816 4.033203,1.597656 1.402863,-0.159499 2.729073,-0.888034 3.957031,-1.859374 1.040203,-0.822821 1.966437,-1.875538 2.837891,-2.929688 -0.791704,1.60168 -1.830274,3.106274 -3.058594,4.371094 -2.377259,2.44788 -5.385307,3.990589 -8.433594,3.855468 -1.013033,-0.04491 -2.725042,-0.516966 -4.302734,-1.378906 -1.577692,-0.86194 -3.02751,-2.103411 -3.738281,-3.582031 -0.831433,-1.72964 -1.051383,-3.351531 -0.783203,-4.644531 0.26818,-1.29301 0.986522,-2.272314 2.203125,-2.871094 0.336399,-0.16557 1.001174,-0.301594 1.662109,-0.308594 z"
       id="circle3635"
       inkscape:connector-curvature="0" />
  </g>
  <g
     style="display:none"
     inkscape:label="End"
     id="g3395"
     inkscape:groupmode="layer">
    <path
       id="path3397"
       style="opacity:0.98999999;fill:#000000"
       d="m 22.634723,14.772348 c 0.0058,-0.219986 -0.09284,-3.443543 -0.219249,-7.1634594 -0.04133,-2.507803 0.04097,-5.64865 0.337029,-6.78153297 0.109534,-0.419138 2.070792,-0.188577 2.243409,0.07574 -0.796761,9.34493437 0.529904,18.86635537 0.436316,27.97720037 -0.05974,0.229868 -1.706057,0.520882 -1.872719,0.522854 -0.355968,0.0042 -0.49539,-0.418628 -0.512453,-1.554189 M 21.965139,22.532132 C 20.81453,21.959053 19.968547,21.848814 17.269264,21.920219 12.60766,22.038562 9.2181184,20.40173 8.2609464,19.792404 6.8351007,18.758511 3.8629837,14.741064 4.7132937,14.996996 c 0.160098,0.04819 0.754956,0.215223 1.321908,0.371192 2.6357867,0.579776 2.4818327,0.410171 4.1096883,0.400931 1.243509,-0.0302 3.922454,-1.012734 6.028186,-2.210899 2.018098,-1.148301 4.138843,-1.940557 5.306526,-1.982383"
       inkscape:connector-curvature="0" />
  </g>
  <g
     inkscape:groupmode="layer"
     id="layer12"
     inkscape:label="Draw"
     style="display:none">
    <path
       style="display:inline;opacity:0.98999999;fill:#000000;fill-opacity:1;fill-rule:nonzero;stroke:none;stroke-width:1;stroke-linecap:round;stroke-miterlimit:4;stroke-dasharray:none;stroke-dashoffset:0;stroke-opacity:1"
       d="M 8.8164062,0 C 6.7020522,0 5,1.7020522 5,3.8164062 L 5,26.183594 C 5,28.297948 6.7020522,30 8.8164062,30 L 21.183594,30 C 23.297948,30 25,28.297948 25,26.183594 L 25,3.8164062 C 25,1.7020522 23.297948,0 21.183594,0 L 8.8164062,0 Z m 4.8593748,7.5742188 2.648438,0 0,6.1015622 6.101562,0 0,2.648438 -6.101562,0 0,6.101562 -2.648438,0 0,-6.101562 -6.1015622,0 0,-2.648438 6.1015622,0 0,-6.1015622 z"
       id="path3610"
       inkscape:connector-curvature="0" />
  </g>
  <g
     inkscape:groupmode="layer"
     id="layer11"
     inkscape:label="Draft"
     style="display:none">
    <path
       id="rect3598"
       style="opacity:0.98999999;fill:#000000;fill-opacity:1;fill-rule:nonzero;stroke:none;stroke-width:1;stroke-linecap:round;stroke-miterlimit:4;stroke-dasharray:none;stroke-dashoffset:0;stroke-opacity:1"
       d="m 12.774414,-9.5367432e-7 0,15.52539095367432 -4.6835945,0 6.9082035,5.630859 6.910156,-5.630859 -4.683594,0 0,-15.52539095367432 -4.451171,0 z M 0,9 0,30 30,30 30,9 25,9 25,25 5,25 5,9 Z"
       inkscape:connector-curvature="0" />
  </g>
  <g
     inkscape:groupmode="layer"
     id="layer10"
     inkscape:label="Dispel"
     style="display:none">
    <path
       style="color:#000000;font-style:normal;font-variant:normal;font-weight:normal;font-stretch:normal;font-size:medium;line-height:normal;font-family:sans-serif;text-indent:0;text-align:start;text-decoration:none;text-decoration-line:none;text-decoration-style:solid;text-decoration-color:#000000;letter-spacing:normal;word-spacing:normal;text-transform:none;direction:ltr;block-progression:tb;writing-mode:lr-tb;baseline-shift:baseline;text-anchor:start;white-space:normal;clip-rule:nonzero;display:inline;overflow:visible;visibility:visible;opacity:0.98999999;isolation:auto;mix-blend-mode:normal;color-interpolation:sRGB;color-interpolation-filters:linearRGB;solid-color:#000000;solid-opacity:1;fill:#000000;fill-opacity:1;fill-rule:nonzero;stroke:none;stroke-width:1;stroke-linecap:round;stroke-linejoin:miter;stroke-miterlimit:4;stroke-dasharray:none;stroke-dashoffset:0;stroke-opacity:1;color-rendering:auto;image-rendering:auto;shape-rendering:auto;text-rendering:auto;enable-background:accumulate"
       d="m 4.4021458,4.419072 c -2.7160115,2.7160112 -4.39870145,6.466502 -4.39870145,10.602459 2.2e-7,4.127523 1.67724605,7.869826 4.38350965,10.584504 l 1.4666941,-1.466694 c -0.5230163,-0.524919 -0.9957323,-1.098503 -1.4225002,-1.707 l 3.1295002,0 2.0881748,-2.088175 -3.9167086,10e-7 9.2724897,-16.0618207 3.91809,6.7879487 1.528842,-1.5288416 -4.256451,-7.3721413 c 3.087161,0.2810328 5.856535,1.6379727 7.92733,3.7012622 L 25.589109,4.4038799 C 22.87443,1.6976168 19.132127,0.02037128 15.004604,0.02037057 10.868648,0.02037114 7.1181572,1.7030609 4.4021458,4.419072 Z M 5.8688399,5.8857662 C 7.9414286,3.8131776 10.718683,2.4510984 13.814124,2.1693122 L 3.2807185,20.417363 C 2.5250494,18.774517 2.0916191,16.951822 2.0916191,15.021531 c 2e-7,-3.57202 1.4419645,-6.8005087 3.7772208,-9.1357648 z M 25.33223,25.873963 c 0.179299,-0.170709 0.354097,-0.345508 0.524806,-0.524807 l -0.524806,0.524807 z"
       id="path28973"
       inkscape:connector-curvature="0" />
  </g>
  <g
     style="display:none"
     inkscape:label="Discard"
     id="g3539"
     inkscape:groupmode="layer">
    <path
       style="opacity:0.98999999;fill:#000000;fill-opacity:1;fill-rule:nonzero;stroke:none;stroke-width:1;stroke-linecap:round;stroke-miterlimit:4;stroke-dasharray:none;stroke-dashoffset:0;stroke-opacity:1"
       d="M 8.8164062,0 C 6.7020522,0 5,1.7020522 5,3.8164062 L 5,26.183594 C 5,28.297948 6.7020522,30 8.8164062,30 L 21.183594,30 C 23.297948,30 25,28.297948 25,26.183594 L 25,3.8164062 C 25,1.7020522 23.297948,0 21.183594,0 L 8.8164062,0 Z M 12.099609,8.8125 15,11.712891 17.900391,8.8125 21.1875,12.099609 18.287109,15 21.1875,17.900391 17.900391,21.1875 15,18.287109 12.099609,21.1875 8.8125,17.900391 11.712891,15 8.8125,12.099609 12.099609,8.8125 Z"
       id="rect3555"
       inkscape:connector-curvature="0" />
  </g>
  <g
     inkscape:groupmode="layer"
     id="layer9"
     inkscape:label="Disable"
     style="display:none">
    <path
       id="path3385"
       style="opacity:0.98999999;fill:#000000;fill-opacity:1;fill-rule:nonzero;stroke:none;stroke-width:1;stroke-linecap:round;stroke-miterlimit:4;stroke-dasharray:none;stroke-dashoffset:0;stroke-opacity:1"
       d="M 14.886719,0 C 13.833661,6.3628138e-4 12.775816,0.11523122 11.722656,0.34375 8.9167689,0.95257873 5.557267,2.9501479 3.7128906,5.109375 1.601064,7.5817126 0.39706825,10.55661 0.12890625,13.634766 c -0.02633,0.302235 -0.0446952,0.604301 -0.05273438,0.908203 -0.0052041,0.152677 -0.0072265,0.304539 -0.0078125,0.457031 5.8636e-4,0.152493 0.0026096,0.304355 0.0078125,0.457031 0.0080392,0.303902 0.02640394,0.607922 0.05273438,0.910157 0.26816144,3.078155 1.47215775,6.0511 3.58398435,8.523437 1.8443762,2.159227 5.2038788,4.158749 8.0097654,4.767578 4.212644,0.914075 8.514914,-0.01517 12.177735,-2.628906 1.537556,-1.097174 2.828822,-2.575804 3.832031,-4.25 0.814973,-1.29505 1.401332,-2.69183 1.759766,-4.1875 0.0068,-0.02715 0.01093,-0.05291 0.01758,-0.08008 0.100035,-0.428355 0.183264,-0.865681 0.246093,-1.310547 0.03863,-0.255857 0.07884,-0.510575 0.103516,-0.767578 0.0016,-0.01708 0.0043,-0.03368 0.0059,-0.05078 0.03891,-0.421372 0.06641,-0.842027 0.06641,-1.263671 1e-6,-0.04024 -0.0075,-0.07902 -0.0078,-0.119141 2.69e-4,-0.04012 0.0078,-0.07695 0.0078,-0.117188 0,-0.421644 -0.0275,-0.844251 -0.06641,-1.265624 -0.0015,-0.0171 -0.0043,-0.0337 -0.0059,-0.05078 -0.02468,-0.257001 -0.06489,-0.511719 -0.103516,-0.767578 -0.06283,-0.444864 -0.146054,-0.880238 -0.246093,-1.308594 -0.0067,-0.02718 -0.01079,-0.05489 -0.01758,-0.08203 C 29.13376,9.9125446 28.547394,8.5157537 27.732422,7.2207031 26.729212,5.5465078 25.437946,4.0678778 23.900391,2.9707031 21.153275,1.0104025 18.045894,-0.00190913 14.886719,0 Z m 0.310547,3.4433594 c 0.488192,0.014064 0.982204,0.060014 1.480468,0.1425781 2.394493,0.3967799 4.480081,1.4823887 6.115235,2.9941406 0.01075,0.011451 0.01458,0.015783 0.02539,0.027344 0.937373,1.002333 1.557196,1.7647114 2.039063,2.5019531 0.426478,0.7039909 0.775372,1.4504138 1.042969,2.2304688 0.0778,0.242996 0.160059,0.468937 0.232421,0.742187 0.02622,0.09784 0.04668,0.196276 0.07031,0.294922 0.06908,0.288282 0.129902,0.577444 0.175781,0.865235 0.02406,0.1523 0.04078,0.307224 0.05859,0.460937 0.02854,0.242923 0.05382,0.484982 0.06641,0.726563 0.0095,0.18927 0.0061,0.379585 0.0059,0.570312 1.94e-4,0.190728 0.0036,0.38104 -0.0059,0.570312 -0.01255,0.240796 -0.03802,0.484434 -0.06641,0.726563 -0.0181,0.15638 -0.03404,0.311879 -0.05859,0.466797 -0.04524,0.283059 -0.106147,0.566068 -0.173828,0.849609 -0.02427,0.101679 -0.04524,0.203883 -0.07227,0.304688 -0.07388,0.278951 -0.158692,0.510289 -0.238281,0.757812 -0.266979,0.774906 -0.613236,1.517103 -1.037109,2.216797 -0.481866,0.737242 -1.101692,1.495714 -2.039063,2.498047 -0.01267,0.01355 -0.0168,0.01979 -0.0293,0.0332 -1.634495,1.509556 -3.719037,2.593819 -6.111328,2.990234 C 12.991423,27.024897 9.5411929,25.68772 7.0859375,23.306641 6.3227548,22.482154 5.7342835,21.753179 5.2695312,21.060547 4.2058168,19.364351 3.5591052,17.402289 3.4882812,15.328125 3.4856312,15.219493 3.468244,15.108147 3.46875,15 3.4682437,14.891847 3.4856282,14.782451 3.4882812,14.673828 3.5590553,12.601138 4.2052154,10.636787 5.2675781,8.9414062 5.731872,8.2489829 6.3195736,7.5192839 7.0820312,6.6953125 9.2057685,4.6339937 12.071889,3.3533235 15.197266,3.4433594 Z m 2.702785,5.3698612 3.286726,3.2867264 -9.086831,9.08683 -3.2867259,-3.286726 z m 3.286726,9.0868314 -3.286726,3.286726 -9.0868305,-9.086831 3.2867265,-3.286726 z"
       inkscape:connector-curvature="0" />
  </g>
  <g
     inkscape:groupmode="layer"
     id="layer8"
     inkscape:label="Defend"
     style="display:none">
    <path
       inkscape:connector-curvature="0"
       id="path3806"
       d="m 15.126465,0.00140013 c -0.58462,0.001 -1.171449,0.034969 -1.759832,0.080981 -0.32546,0.023108 -0.65278,0.051943 -0.979916,0.087116 -0.01022,0.001 -0.02188,7.975e-4 -0.03231,0.00131 l 0,0.00133 c -2.120874,0.2295496 -4.2807057,0.6985464 -6.5685327,1.44463867 -1.136623,0.3706331 -1.354864,0.4744366 -1.468871,0.6970332 -0.173006,0.3373611 -0.841062,2.9702175 -1.212288,4.7763485 -0.07996,0.389447 -0.137218,0.74419 -0.206073,1.115335 -0.155214,0.835356 -0.284335,1.637992 -0.385889,2.4043705 -0.0061,0.0364 -0.01022,0.07485 -0.01841,0.111248 -0.09877,0.762615 -0.17505,1.508585 -0.224273,2.2366 -6.95e-4,0.01022 -0.0041,0.02188 -0.0061,0.03231 -0.05153,0.769712 -0.08487,1.534312 -0.08487,2.303349 4.1e-5,2.755372 0.267811,4.248415 1.068852,5.96436 0.376175,0.805888 0.537095,1.025008 1.323392,1.798196 1.286888,1.265519 3.762915,3.073899 7.7787747,5.689639 0.06994,0.0454 0.121063,0.08139 0.192024,0.126994 C 13.747866,29.655911 14.364204,30 14.560584,30 c 0.0591,0 0.235971,-0.07791 0.458629,-0.183844 0.441512,-0.200613 1.203494,-0.622943 2.103328,-1.135478 0.0061,-0.0013 0.0061,-0.0041 0.01022,-0.0061 0.857258,-0.488465 1.769771,-1.012677 2.747806,-1.620405 4.327617,-2.688951 6.053626,-4.096146 6.808941,-5.552237 0.800714,-1.54345 1.043106,-2.76948 1.119363,-5.641109 0.02556,-0.959875 0.01023,-1.909198 -0.04458,-2.871118 -7.98e-4,-0.01636 -0.0041,-0.02822 -0.0041,-0.04254 C 27.672241,11.445709 27.460894,9.8834625 27.154065,8.2051235 26.922531,6.9387045 26.648933,5.6188105 26.2792,4.1480366 25.702739,1.855179 25.857851,2.0644832 24.383989,1.5820508 21.863648,0.75710393 19.485637,0.26465103 17.132575,0.08489683 16.460634,0.03356773 15.790758,-0.00119697 15.120187,3.0030979e-5 Z m 2.012367,2.01641647 c 2.13386,0.1752553 4.30543,0.6343339 6.651355,1.4022054 0.21683,0.070961 0.256257,0.083435 0.377852,0.1233125 -0.08487,-0.071574 -0.0014,0.094274 0.244478,1.076889 0.327116,1.301245 0.581123,2.471917 0.794047,3.586311 l -8.067732,0 0,-6.1886361 z m -4.784446,0.1010223 0,6.0876546 -7.4918847,0 c 0.04744,-0.245766 0.08282,-0.47006 0.135174,-0.725377 0.176891,-0.860448 0.432616,-1.954331 0.660673,-2.852877 0.100818,-0.3970947 0.19182,-0.7322677 0.270756,-1.0122262 0.150716,-0.054601 0.171165,-0.069529 0.4546,-0.1615538 2.106805,-0.6870332 4.0635687,-1.1137397 5.9704567,-1.3355183 z m -8.1485087,10.8721221 8.1485087,0 0,13.43604 C 9.0295473,24.22218 6.8894903,22.623104 5.9292883,21.678935 c -0.7501,-0.737708 -0.583761,-0.500408 -0.92736,-1.236539 -0.68916,-1.476316 -0.886951,-2.517847 -0.886971,-5.148107 0,-0.769732 0.0364,-1.533043 0.091,-2.303328 z m 12.9329547,0 8.69405,0 c 0.05665,0.946092 0.07566,1.875865 0.05051,2.820546 -0.07382,2.777601 -0.221636,3.488887 -0.903168,4.802624 -0.435623,0.839855 -1.847378,2.149586 -6.113912,4.800623 -0.616072,0.382801 -1.139772,0.672371 -1.727521,1.018321 l 0,-13.442114 z"
       style="display:inline;opacity:0.98999999;fill:#000000" />
  </g>
  <g
     inkscape:groupmode="layer"
     id="layer7"
     inkscape:label="Damage"
     style="display:none">
    <path
       id="path4432"
       style="clip-rule:evenodd;display:inline;opacity:0.98999999;fill:#000000;fill-rule:evenodd"
       d="m 27.374998,14.284231 c -2.950367,0.934499 -5.75039,2.120401 -8.416823,3.507983 -3.089009,1.578311 -6.107045,3.642057 -8.5969,5.460762 C 7.6132795,25.325852 5.029486,27.598187 2.5899204,29.999999 10.537218,24.763891 19.015145,21.351304 27.410078,18.116913 Z m 0,-14.2842323335868 C 24.424631,0.93449951 21.624608,2.1204007 18.958175,3.5079826 15.869166,5.0862936 12.85113,7.1500394 10.361275,8.9687447 7.6132795,11.041621 5.029486,13.313955 2.5899204,15.715767 10.537218,10.47966 19.015145,7.067072 27.410078,3.8326818 Z m 0,7.1421160335868 c -2.950367,0.9344997 -5.75039,2.120401 -8.416823,3.5079833 -3.089009,1.578311 -6.107045,3.642057 -8.5969,5.460763 -2.7479955,2.072875 -5.331789,4.34521 -7.7713546,6.747022 C 10.537218,17.621776 19.015145,14.209188 27.410078,10.974797 Z"
       inkscape:connector-curvature="0" />
  </g>
  <g
     inkscape:groupmode="layer"
     id="layer6"
     inkscape:label="Begin"
     style="display:none">
    <path
       id="path3426"
       style="opacity:0.98999999;fill:#000000"
       d="M 7.2396188,5.5474943 C 8.5118493,5.3637855 9.2701744,4.9729095 11.44892,3.3778252 15.214396,0.62723562 18.932974,0.04380565 20.066789,-9.0312169e-7 21.82761,0.0385189 26.557971,1.6500525 25.713164,1.9236005 25.554102,1.9751045 24.969928,2.176346 24.414998,2.3708029 21.917821,3.3943377 22.14094,3.4461617 20.807754,4.3803008 c -1.005239,0.7326133 -2.648668,3.0652617 -3.69806,5.2489473 -1.005719,2.0928079 -2.29849,3.9512949 -3.234768,4.6503049 m 0.64593,2.962538 c 0.120424,0.18419 2.036326,2.778486 4.25756,5.765102 1.461367,2.038428 3.181404,4.667718 3.582795,5.7677 0.148505,0.406965 -1.595299,1.333701 -1.887669,1.214629 C 15.809711,21.85249 9.2995168,14.778957 4.1907652,7.2346271 4.1090499,7.0116216 5.2970336,5.8352987 5.4329434,5.7388163 5.7232272,5.5327436 6.0785336,5.8010527 6.7389009,6.7250152"
       inkscape:connector-curvature="0" />
  </g>
  <g
     inkscape:groupmode="layer"
     id="layer3"
     inkscape:label="Attack"
     style="display:none">
    <path
       id="path3783"
       style="display:inline;opacity:0.98999999;fill:#000000;fill-opacity:1;stroke:none;stroke-width:0.3973152;stroke-miterlimit:4;stroke-dasharray:none;stroke-opacity:1"
       d="m 22.604211,6.4619775 -0.209321,0.061348 c -0.11438,0.034388 -2.14674,0.6398218 -4.514885,1.346165 -2.681165,0.7997135 -4.30525,1.3073036 -4.305564,1.3461632 -4.62e-4,0.056322 0.899148,3.0009103 0.923909,3.0243583 0.0055,0.0054 1.203262,-0.215653 2.659861,-0.490826 1.456579,-0.275185 2.66459,-0.498045 2.685101,-0.498045 0.04047,0 1.173716,1.817261 1.147661,1.840599 -0.0092,0.0078 -4.108586,-0.0369 -9.109152,-0.101057 -5.0005465,-0.06408 -9.0964016,-0.110758 -9.1019451,-0.104661 -0.00739,0.0067 1.3619528,2.138684 3.0423956,4.738643 l 3.0568454,4.727816 -0.6279809,6.348266 a 18.478181,18.478181 0 0 0 6.748878,1.299247 18.478181,18.478181 0 0 0 5.738344,-0.938344 c -0.381667,-3.125263 -0.760562,-6.228978 -0.765126,-6.279695 -0.0074,-0.07909 1.067799,-1.512162 3.619857,-4.836087 L 27.220153,13.221662 24.91038,9.8400107 22.604211,6.4619683 Z M 21.817779,6.0306229 21.913869,3.1942295 26.712412,2.9180583 26.431211,11.253211 22.845262,5.660431 Z M 16.201558,0.3215634 c 0.01478,-0.0470824 0.876716,-0.0864594 2.424282,-0.11073974 1.320987,-0.0206586 2.426536,-0.0289923 2.456785,-0.0184782 0.04176,0.0147825 -0.02513,5.94446784 -0.0741,6.19248934 L 16.462892,7.7624312 Z M 9.0044914,10.772981 9.1478821,4.8676024 9.2522838,0.60642119 9.4152614,0.5890517 12.219214,0.27619762 14.865272,-4.9952539e-6 15.322606,7.9115575 12.810202,8.642329 l 0.882814,3.665319 -4.5007493,0.09211 -0.2267273,0.01755 z m -6.0495532,1.462683 c 0.0037,-0.324935 0.6384212,-8.9180927 0.6604287,-8.9297413 0.060978,-0.032281 4.4995664,0.049152 4.5023196,0.082561 0.00739,0.082875 -0.4415915,8.7898063 -0.4528817,8.7932193 -0.041945,0.01275 -4.6424767,0.182601 -4.6730581,0.172587 -0.020696,-0.0072 -0.037326,-0.06024 -0.036772,-0.118667 z"
       inkscape:connector-curvature="0" />
  </g>
  <g
     inkscape:groupmode="layer"
     id="layer5"
     inkscape:label="Activate"
     style="display:none">
    <path
       style="opacity:0.98999999;fill:#000000"
       d="M 11.868681,29.672442 C 9.1852406,29.090182 5.9727506,27.177952 4.2088606,25.112951 0.40713062,20.662224 -0.35351938,14.517233 2.2381306,9.1921183 c 1.11591,-2.292869 3.77131,-5.110017 5.03295,-5.339513 1.57574,-0.286633 2.8889604,0.851192 2.8889604,2.503112 0,0.646998 -0.2078604,0.976528 -1.4314804,2.269473 -1.7088,1.8055957 -2.42717,2.9729137 -2.86553,4.6563307 -1.68578,6.473869 3.98747,12.795787 10.5125704,11.714542 5.56447,-0.922061 9.15339,-6.318625 7.75994,-11.668415 -0.472,-1.812131 -0.99916,-2.68838 -2.7323,-4.5416267 -1.35319,-1.446972 -1.57663,-1.79228 -1.57663,-2.436551 0,-1.645728 1.31588,-2.783014 2.88896,-2.496865 0.61802,0.11242 1.15347,0.512129 2.47608,1.848368 2.73012,2.758255 4.09139,6.1073737 4.09139,10.0659807 0,4.409327 -2.27242,8.898027 -5.76717,11.391825 -3.50298,2.499674 -7.61838,3.387849 -11.64719,2.513663 z m 2.35403,-13.991535 c -0.36605,-0.103118 -0.90979,-0.477763 -1.20832,-0.832545 l -0.54278,-0.645059 0,-6.4139967 0,-6.413998 0.64548,-0.60297102 c 1.15992,-1.083525 2.69526,-1.02184 3.7993,0.152645 0.49231,0.52372902 0.49374,0.54124702 0.55505,6.83598802 0.0529,5.4283017 0.0157,6.3807277 -0.2656,6.8101057 -0.64621,0.986239 -1.84227,1.431215 -2.98313,1.109831 z"
       id="path3376"
       inkscape:connector-curvature="0" />
  </g>
  <g
     style="display:none"
     inkscape:label="Activate (White)"
     id="g25081"
     inkscape:groupmode="layer">
    <path
       inkscape:connector-curvature="0"
       id="path25083"
       d="M 11.868681,29.672442 C 9.1852406,29.090182 5.9727506,27.177952 4.2088606,25.112951 0.40713062,20.662224 -0.35351938,14.517233 2.2381306,9.1921183 c 1.11591,-2.292869 3.77131,-5.110017 5.03295,-5.339513 1.57574,-0.286633 2.8889604,0.851192 2.8889604,2.503112 0,0.646998 -0.2078604,0.976528 -1.4314804,2.269473 -1.7088,1.8055957 -2.42717,2.9729137 -2.86553,4.6563307 -1.68578,6.473869 3.98747,12.795787 10.5125704,11.714542 5.56447,-0.922061 9.15339,-6.318625 7.75994,-11.668415 -0.472,-1.812131 -0.99916,-2.68838 -2.7323,-4.5416267 -1.35319,-1.446972 -1.57663,-1.79228 -1.57663,-2.436551 0,-1.645728 1.31588,-2.783014 2.88896,-2.496865 0.61802,0.11242 1.15347,0.512129 2.47608,1.848368 2.73012,2.758255 4.09139,6.1073737 4.09139,10.0659807 0,4.409327 -2.27242,8.898027 -5.76717,11.391825 -3.50298,2.499674 -7.61838,3.387849 -11.64719,2.513663 z m 2.35403,-13.991535 c -0.36605,-0.103118 -0.90979,-0.477763 -1.20832,-0.832545 l -0.54278,-0.645059 0,-6.4139967 0,-6.413998 0.64548,-0.60297102 c 1.15992,-1.083525 2.69526,-1.02184 3.7993,0.152645 0.49231,0.52372902 0.49374,0.54124702 0.55505,6.83598802 0.0529,5.4283017 0.0157,6.3807277 -0.2656,6.8101057 -0.64621,0.986239 -1.84227,1.431215 -2.98313,1.109831 z"
       style="fill:#ffffff" />
  </g>
</svg>
