<?xml version="1.0" encoding="UTF-8" standalone="no"?>
<!-- Created with Inkscape (http://www.inkscape.org/) -->

<svg
   xmlns:dc="http://purl.org/dc/elements/1.1/"
   xmlns:cc="http://creativecommons.org/ns#"
   xmlns:rdf="http://www.w3.org/1999/02/22-rdf-syntax-ns#"
   xmlns:svg="http://www.w3.org/2000/svg"
   xmlns="http://www.w3.org/2000/svg"
   xmlns:sodipodi="http://sodipodi.sourceforge.net/DTD/sodipodi-0.dtd"
   xmlns:inkscape="http://www.inkscape.org/namespaces/inkscape"
   width="210mm"
   height="297mm"
   viewBox="0 0 744.09448819 1052.3622047"
   id="svg8236"
   version="1.1"
   inkscape:version="0.91 r13725"
   sodipodi:docname="stats.svg">
  <defs
     id="defs8238" />
  <sodipodi:namedview
     id="base"
     pagecolor="#ffffff"
     bordercolor="#666666"
     borderopacity="1.0"
     inkscape:pageopacity="0.0"
     inkscape:pageshadow="2"
     inkscape:zoom="4"
     inkscape:cx="169.70075"
     inkscape:cy="386.05979"
     inkscape:document-units="px"
     inkscape:current-layer="layer1"
     showgrid="false"
     inkscape:window-width="1440"
     inkscape:window-height="851"
     inkscape:window-x="0"
     inkscape:window-y="0"
     inkscape:window-maximized="1" />
  <metadata
     id="metadata8241">
    <rdf:RDF>
      <cc:Work
         rdf:about="">
        <dc:format>image/svg+xml</dc:format>
        <dc:type
           rdf:resource="http://purl.org/dc/dcmitype/StillImage" />
        <dc:title></dc:title>
      </cc:Work>
    </rdf:RDF>
  </metadata>
  <g
     inkscape:label="Layer 1"
     inkscape:groupmode="layer"
     id="layer1">
    <g
       id="g8901">
      <path
         inkscape:connector-curvature="0"
         id="path8162"
         d="m 190.77903,649.46266 c 0.003,-0.31605 0.62097,-8.67425 0.64237,-8.68558 0.0594,-0.0314 4.37654,0.0478 4.37923,0.0803 0.007,0.0806 -0.42953,8.54947 -0.44051,8.55279 -0.0408,0.0124 -4.51554,0.17761 -4.54528,0.16787 -0.0202,-0.007 -0.0363,-0.0586 -0.0358,-0.11542 z"
         style="display:inline;fill:#000000;fill-opacity:1;stroke:none;stroke-width:0.3973152;stroke-miterlimit:4;stroke-dasharray:none;stroke-opacity:1" />
      <path
         sodipodi:nodetypes="cccccccccccc"
         inkscape:connector-curvature="0"
         id="path8160"
         d="m 196.66318,648.03997 0.13947,-5.74391 0.10157,-4.14467 0.15849,-0.0169 2.72727,-0.3043 2.57372,-0.26865 0.44482,7.69524 -2.4437,0.71079 0.85868,3.5651 -4.37769,0.0896 -0.22053,0.017 z"
         style="display:inline;fill:#000000;fill-opacity:1;stroke:none;stroke-width:0.3973152;stroke-miterlimit:4;stroke-dasharray:none;stroke-opacity:1" />
      <path
         sodipodi:nodetypes="cccccc"
         inkscape:connector-curvature="0"
         id="path8158"
         d="m 203.66347,637.87432 c 0.0141,-0.0458 0.85274,-0.0841 2.35798,-0.10771 1.28487,-0.0201 2.36019,-0.0282 2.38961,-0.0179 0.0407,0.0143 -0.0244,5.78193 -0.0721,6.02317 l -4.42134,1.33993 z"
         style="display:inline;fill:#000000;fill-opacity:1;stroke:none;stroke-width:0.3973152;stroke-miterlimit:4;stroke-dasharray:none;stroke-opacity:1" />
      <path
         sodipodi:nodetypes="cccccc"
         inkscape:connector-curvature="0"
         id="path8154"
         d="m 209.12613,643.42728 0.0935,-2.75884 4.66735,-0.26862 -0.27351,8.10725 -3.4879,-5.43986 z"
         style="display:inline;fill:#000000;fill-opacity:1;stroke:none;stroke-width:0.3973152;stroke-miterlimit:4;stroke-dasharray:none;stroke-opacity:1" />
      <path
         inkscape:connector-curvature="0"
         id="path8164"
         d="m 195.77902,667.00968 0.76052,-7.70621 -2.97183,-4.59794 c -1.63451,-2.52887 -2.96655,-4.60323 -2.96009,-4.60969 0.006,-0.006 3.99125,0.0393 8.85507,0.10164 4.86383,0.0624 8.85026,0.10716 8.85872,0.0996 0.0253,-0.0227 -1.07663,-1.79272 -1.11605,-1.79272 -0.02,0 -1.19545,0.219 -2.61222,0.48666 -1.41676,0.26765 -2.5805,0.48233 -2.58609,0.47705 -0.0241,-0.0228 -0.89872,-2.88721 -0.89828,-2.942 3e-4,-0.0378 1.58057,-0.53195 4.18844,-1.3098 2.30338,-0.68703 4.27901,-1.27652 4.3903,-1.30997 l 0.20234,-0.0608 2.24475,3.28749 2.24476,3.28749 -3.52799,4.59501 c -2.48228,3.23304 -3.52527,4.6274 -3.51884,4.70433 0.005,0.0601 0.41271,3.4086 0.90597,7.44105 z"
         style="display:inline;fill:#000000;fill-opacity:1;stroke:none;stroke-width:0.3973152;stroke-miterlimit:4;stroke-dasharray:none;stroke-opacity:1" />
    </g>
    <path
       style="opacity:1;fill:#000000;fill-opacity:1;stroke:none;stroke-width:0.40000001;stroke-miterlimit:4;stroke-dasharray:none;stroke-opacity:1"
       d="m 253.829,637.23804 c -0.94818,5.22915 -2.69478,10.53291 -2.37705,15.44558 0.29974,6.70092 1.24545,8.11154 10.20405,14.46142 l -51.96947,0.0158 -1.11352,-6.85377 6.7882,-9.71846 0.71651,-13.42777 z"
       id="path8828"
       inkscape:connector-curvature="0"
       sodipodi:nodetypes="cccccccc" />
    <path
       style="opacity:1;fill:#000000;fill-opacity:1;stroke:none;stroke-width:0.40000001;stroke-miterlimit:4;stroke-dasharray:none;stroke-opacity:1"
       d="m 276.40039,637.23828 c 0.94818,5.22915 2.69468,10.53264 2.37695,15.44531 -0.29974,6.70092 -1.24647,8.11106 -10.20507,14.46094 l 35.66406,0.01 0.002,0.006 4.06641,-0.004 6.23828,0.004 0.002,-0.0156 0.96289,0 14.6211,-14.96289 -14.64844,-14.94726 z"
       id="path8830"
       inkscape:connector-curvature="0"
       sodipodi:nodetypes="cccccccccccc" />
    <path
       style="fill-opacity:1"
       d="m 133.95064,638.161 c -0.69317,-5.2e-4 -1.33525,0.0351 -1.47174,0.10628 -0.10507,0.0548 -0.23339,0.0828 -0.28544,0.0627 -0.14873,-0.057 -1.46656,0.41141 -2.21267,0.78648 -1.32277,0.66497 -2.27322,1.4614 -3.0437,2.54974 -1.16306,1.64287 -1.80113,3.11487 -2.09728,4.83934 -0.1576,0.91762 -0.13846,2.37646 0.0223,3.62268 l 0.54355,0 2.19648,0 1.92623,-3.49817 c 1.05964,-1.92358 1.94715,-3.47985 1.97176,-3.45871 0.0246,0.0212 0.99736,2.25828 2.16105,4.97195 1.16372,2.71365 2.13007,4.93399 2.1479,4.93347 0.0178,-5.1e-4 0.28951,-0.30471 0.60429,-0.67513 l 0.57291,-0.67312 0.94033,0 0.94034,0 0.12854,-0.15284 c 0.0709,-0.0841 0.25873,-0.22816 0.41805,-0.31986 1.04975,-0.60422 2.50972,-0.32128 3.09329,0.59923 0.22625,0.35689 0.22625,0.98933 0,1.34623 -0.58357,0.9205 -2.04354,1.20344 -3.09329,0.59922 -0.15932,-0.0917 -0.34724,-0.23578 -0.41805,-0.31986 -0.12018,-0.14273 -0.15463,-0.15287 -0.5152,-0.15182 l -0.38565,9.6e-4 -1.45757,1.70152 -1.45758,1.70252 -1.95153,-4.54682 c -1.07383,-2.50103 -1.96931,-4.53955 -1.98999,-4.52961 -0.0207,0.01 -0.54122,0.93003 -1.15594,2.04466 l -1.11746,2.02643 -2.34123,0 -1.42316,0 c 0.16089,0.56538 0.36527,1.21134 0.50206,1.53045 0.14085,0.32862 1.2235,1.54444 2.15802,2.42422 0.30177,0.28412 0.99726,0.95259 1.54563,1.4849 2.67104,2.59287 8.32383,7.77334 10.23641,9.3811 0.89138,0.74933 0.99846,0.76919 1.57296,0.28241 2.50948,-2.12634 5.45068,-4.82352 10.14025,-9.29709 1.09574,-1.04528 2.20527,-2.08004 2.46572,-2.29972 1.23708,-1.04347 2.0667,-2.5635 2.46168,-4.5124 0.2134,-1.05302 0.22989,-3.5987 0.0293,-4.51848 -0.30813,-1.41322 -0.99364,-3.02749 -1.83614,-4.32716 -0.93714,-1.44567 -2.39012,-2.50967 -4.52657,-3.31294 -0.44097,-0.1658 -0.78753,-0.25699 -0.89378,-0.23584 -0.0953,0.019 -0.23334,-0.01 -0.30669,-0.0638 -0.10518,-0.077 -0.43361,-0.0972 -1.55677,-0.0972 -1.41641,0 -1.42863,4.1e-4 -2.23697,0.23383 -0.91182,0.26329 -1.7218,0.5906 -2.3888,0.96361 -0.52852,0.29557 -1.35309,0.93803 -1.67317,1.30371 -0.25772,0.29444 -0.24293,0.29865 -0.77029,-0.23583 -0.7974,-0.8082 -2.91827,-1.85144 -4.39499,-2.16207 -0.34046,-0.0717 -1.08424,-0.10867 -1.77743,-0.10932 z"
       id="path8877"
       inkscape:connector-curvature="0" />
    <path
       style="fill:#000000"
       d=""
       id="path8860"
       inkscape:connector-curvature="0" />
    <path
       style="fill:#000000"
       d=""
       id="path8858"
       inkscape:connector-curvature="0" />
    <path
       sodipodi:nodetypes="cccccsccc"
       inkscape:connector-curvature="0"
       id="path8908"
       d="m 190.53773,637.23804 -0.95502,13.13904 5.85303,9.11704 -0.81276,7.45707 -52.48724,0.20965 c 5.91758,-4.39462 10.25641,-9.25803 13.37035,-11.97068 1.73683,-1.51301 1.69709,-2.93587 2.17199,-4.73078 0.78619,-6.40343 -1.80396,-10.96946 -5.60036,-13.29854 z"
       style="opacity:1;fill:#000000;fill-opacity:1;stroke:none;stroke-width:0.40000001;stroke-miterlimit:4;stroke-dasharray:none;stroke-opacity:1" />
    <path
       style="fill:#000000"
       d="m 265.36719,638.16084 c -0.56512,9.6e-4 -1.13241,0.0338 -1.70117,0.0781 -0.31461,0.022 -0.63103,0.0501 -0.94727,0.084 -0.0104,10e-4 -0.0208,8.2e-4 -0.0312,0.002 l 0,0.002 c -2.05018,0.22192 -4.13802,0.67528 -6.34961,1.39649 -1.09873,0.35829 -1.30969,0.45865 -1.41992,0.67383 -0.16704,0.32609 -0.81302,2.87121 -1.17188,4.61718 -0.0774,0.37645 -0.13257,0.71935 -0.19921,1.07813 -0.15,0.80752 -0.2749,1.58338 -0.37305,2.32422 -0.005,0.0354 -0.011,0.0721 -0.0156,0.10742 -0.0956,0.73722 -0.1692,1.45834 -0.21679,2.16211 -6.9e-4,0.0102 -0.003,0.0211 -0.004,0.0312 -0.0496,0.74405 -0.082,1.4832 -0.082,2.22656 3e-5,2.66358 0.25885,4.10683 1.0332,5.76563 0.36365,0.77902 0.51923,0.99084 1.2793,1.73828 1.24399,1.22331 3.6375,2.97142 7.51953,5.5 0.0675,0.0439 0.11716,0.0786 0.18555,0.12304 1.16555,0.75722 1.76136,1.08985 1.95117,1.08985 0.0572,0 0.22813,-0.0751 0.44336,-0.17774 0.42682,-0.19404 1.16337,-0.60222 2.0332,-1.09765 0.004,-0.002 0.008,-0.004 0.0117,-0.006 0.82868,-0.4722 1.71082,-0.97897 2.65625,-1.56641 4.18337,-2.59934 5.85187,-3.95963 6.58203,-5.36719 0.77399,-1.49203 1.00833,-2.67718 1.08203,-5.45312 0.0246,-0.92791 0.0103,-1.84559 -0.043,-2.77539 -7.8e-4,-0.0136 -0.003,-0.0274 -0.004,-0.041 -0.085,-1.45144 -0.28934,-2.96157 -0.58594,-4.58398 -0.22381,-1.22423 -0.48826,-2.50015 -0.8457,-3.92188 -0.55724,-2.21644 -0.40728,-2.01413 -1.83203,-2.48047 -2.43637,-0.79746 -4.73515,-1.27351 -7.00977,-1.44726 -0.64953,-0.0496 -1.29709,-0.0833 -1.94531,-0.082 z m 1.94531,1.94922 c 2.06277,0.16957 4.16194,0.61318 6.42969,1.35547 0.20965,0.0686 0.24769,0.0805 0.36523,0.11914 -0.0822,-0.0691 -0.002,0.0912 0.23633,1.04101 0.31624,1.25785 0.56176,2.38951 0.76758,3.4668 l -7.79883,0 0,-5.98242 z m -4.625,0.0977 0,5.88477 -7.24219,0 c 0.0458,-0.23759 0.0801,-0.4544 0.13086,-0.70117 0.17097,-0.83182 0.41821,-1.88921 0.63867,-2.75782 0.0974,-0.38386 0.18548,-0.70787 0.26172,-0.97851 0.14575,-0.0528 0.16555,-0.0669 0.43946,-0.15625 2.03658,-0.66415 3.92814,-1.07663 5.77148,-1.29102 z m -7.87695,10.50977 7.87695,0 0,12.98828 c -3.21402,-2.13134 -5.28277,-3.67711 -6.21094,-4.58984 -0.72514,-0.7131 -0.56431,-0.48372 -0.89648,-1.19532 -0.66619,-1.4271 -0.8574,-2.43395 -0.85742,-4.97656 -1e-5,-0.74408 0.0354,-1.48194 0.0879,-2.22656 z m 12.50195,0 8.4043,0 c 0.0549,0.91458 0.0731,1.81337 0.0488,2.72656 -0.0713,2.68504 -0.21424,3.37261 -0.87304,4.64258 -0.42114,0.81184 -1.7858,2.07795 -5.91016,4.64062 -0.59555,0.37005 -1.10178,0.64995 -1.66992,0.98438 l 0,-12.99414 z"
       id="path8958"
       inkscape:connector-curvature="0" />
    <path
       style="opacity:1;fill:#000000;fill-opacity:1;stroke:none;stroke-width:0.40000001;stroke-miterlimit:4;stroke-dasharray:none;stroke-opacity:1"
       d="M 128.89453 637.16016 L 115.75 637.1875 L 115.75 667.06836 L 138.83594 667.16016 C 132.91836 662.76554 128.57878 657.9021 125.46484 655.18945 C 123.72801 653.67644 123.76787 652.25389 123.29297 650.45898 C 122.50678 644.05555 125.09813 639.48924 128.89453 637.16016 z "
       id="path8995" />
  </g>
</svg>
