<?xml version="1.0" encoding="UTF-8" standalone="no"?>
<svg
   xmlns:dc="http://purl.org/dc/elements/1.1/"
   xmlns:cc="http://creativecommons.org/ns#"
   xmlns:rdf="http://www.w3.org/1999/02/22-rdf-syntax-ns#"
   xmlns:svg="http://www.w3.org/2000/svg"
   xmlns="http://www.w3.org/2000/svg"
   version="1.1"
   id="svg4759"
   viewBox="0 0 120 120"
   height="120"
   width="120">
  <defs
     id="defs4761" />
  <metadata
     id="metadata4764">
    <rdf:RDF>
      <cc:Work
         rdf:about="">
        <dc:format>image/svg+xml</dc:format>
        <dc:type
           rdf:resource="http://purl.org/dc/dcmitype/StillImage" />
        <dc:title></dc:title>
      </cc:Work>
    </rdf:RDF>
  </metadata>
  <g
     id="vowels">
    <g
       style="display:inline"
       id="layer4">
      <path
         id="i"
         d="M 10,90 110,90 110,105 10,105 Z"
         style="opacity:1;fill:#000000;fill-opacity:1;fill-rule:nonzero;stroke:none;stroke-width:1;stroke-linecap:round;stroke-miterlimit:4;stroke-dasharray:none;stroke-dashoffset:0;stroke-opacity:1" />
    </g>
    <g
       style="display:none"
       id="layer5">
      <path
         id="a"
         d="M 52.5,85 52.5,90 10,90 10,105 52.5,105 52.5,110 67.499999,110 67.499999,105 110,105 110,90 67.499999,90 67.499999,85 52.5,85 Z"
         style="display:inline;opacity:1;fill:#000000;fill-opacity:1;fill-rule:nonzero;stroke:none;stroke-width:1;stroke-linecap:round;stroke-miterlimit:4;stroke-dasharray:none;stroke-dashoffset:0;stroke-opacity:1" />
    </g>
  </g>
  <g
     id="consonants">
    <g
       style="display:none"
       id="layer2">
      <path
         id="g"
         d="M 37.5,9.99996 37.5,70 10,70 l 0,15 27.5,0 15,0 15,0 15,0 27.5,0 0,-15 -27.5,0 0,-60.00004 -15,0 0,60.00004 -15,0 0,-60.00004 -15,0 z"
         style="opacity:1;fill:#000000;fill-opacity:1;fill-rule:nonzero;stroke:none;stroke-width:1;stroke-linecap:round;stroke-miterlimit:4;stroke-dasharray:none;stroke-dashoffset:0;stroke-opacity:1" />
    </g>
    <g
       style="display:inline"
       id="layer6">
      <path
         id="k"
         d="M 52.5,9.99996 52.5,70 10,70 l 0,15 42.5,0 15,0 42.5,0 0,-15 -42.5,0 0,-60.00004 -15,0 z"
         style="opacity:1;fill:#000000;fill-opacity:1;fill-rule:nonzero;stroke:none;stroke-width:1;stroke-linecap:round;stroke-miterlimit:4;stroke-dasharray:none;stroke-dashoffset:0;stroke-opacity:1" />
    </g>
  </g>
</svg>
